<mxfile host="Electron" agent="Mozilla/5.0 (Windows NT 10.0; Win64; x64) AppleWebKit/537.36 (KHTML, like Gecko) draw.io/28.0.6 Chrome/138.0.7204.100 Electron/37.2.3 Safari/537.36" version="28.0.6">
  <diagram name="Page-1" id="SHoBomY-6iCJYnsd0dSs">
    <mxGraphModel dx="439" dy="256" grid="1" gridSize="10" guides="1" tooltips="1" connect="1" arrows="1" fold="1" page="1" pageScale="1" pageWidth="850" pageHeight="1100" math="0" shadow="0">
      <root>
        <mxCell id="0" />
        <mxCell id="1" style="" parent="0" />
        <mxCell id="IPuMuHIr2qcVIGaZvRd8-1" value="" style="rounded=0;whiteSpace=wrap;html=1;fillColor=none;dashed=1;fontColor=#ffffff;strokeColor=light-dark(#432D57, #dcd5e1);" vertex="1" parent="1">
          <mxGeometry x="100" y="350" width="70" height="210" as="geometry" />
        </mxCell>
        <mxCell id="IPuMuHIr2qcVIGaZvRd8-2" value="&lt;font style=&quot;font-size: 6px;&quot;&gt;Source&lt;/font&gt;" style="rounded=0;whiteSpace=wrap;html=1;align=center;fillColor=default;strokeColor=none;" vertex="1" parent="1">
          <mxGeometry x="125" y="340" width="20" as="geometry" />
        </mxCell>
        <mxCell id="IPuMuHIr2qcVIGaZvRd8-3" value="" style="rounded=0;whiteSpace=wrap;html=1;fillColor=none;dashed=1;fontColor=#ffffff;strokeColor=light-dark(#432D57, #dcd5e1);" vertex="1" parent="1">
          <mxGeometry x="190" y="350" width="230" height="210" as="geometry" />
        </mxCell>
        <mxCell id="IPuMuHIr2qcVIGaZvRd8-4" value="&lt;span style=&quot;font-size: 6px;&quot;&gt;Data Ware House&lt;/span&gt;" style="rounded=0;whiteSpace=wrap;html=1;align=center;fillColor=default;strokeColor=none;" vertex="1" parent="1">
          <mxGeometry x="275" y="340" width="55" as="geometry" />
        </mxCell>
        <mxCell id="IPuMuHIr2qcVIGaZvRd8-5" value="" style="rounded=0;whiteSpace=wrap;html=1;fillColor=none;dashed=1;fontColor=#ffffff;strokeColor=light-dark(#432D57, #dcd5e1);" vertex="1" parent="1">
          <mxGeometry x="440" y="350" width="50" height="210" as="geometry" />
        </mxCell>
        <mxCell id="IPuMuHIr2qcVIGaZvRd8-6" value="&lt;span style=&quot;font-size: 6px;&quot;&gt;Consumer&lt;/span&gt;" style="rounded=0;whiteSpace=wrap;html=1;align=center;fillColor=default;strokeColor=none;" vertex="1" parent="1">
          <mxGeometry x="455" y="340" width="20" as="geometry" />
        </mxCell>
        <mxCell id="IPuMuHIr2qcVIGaZvRd8-7" value="" style="rounded=0;whiteSpace=wrap;html=1;dashed=1;strokeColor=#FFB570;fillColor=none;" vertex="1" parent="1">
          <mxGeometry x="200" y="360" width="60" height="190" as="geometry" />
        </mxCell>
        <mxCell id="IPuMuHIr2qcVIGaZvRd8-8" value="" style="rounded=0;whiteSpace=wrap;html=1;dashed=1;strokeColor=#FFD966;fillColor=none;" vertex="1" parent="1">
          <mxGeometry x="350" y="360" width="60" height="190" as="geometry" />
        </mxCell>
        <mxCell id="IPuMuHIr2qcVIGaZvRd8-9" value="" style="rounded=0;whiteSpace=wrap;html=1;dashed=1;strokeColor=#FFFFFF;fillColor=none;" vertex="1" parent="1">
          <mxGeometry x="272.5" y="360" width="60" height="190" as="geometry" />
        </mxCell>
        <mxCell id="IPuMuHIr2qcVIGaZvRd8-16" value="&lt;font style=&quot;font-size: 6px; color: rgb(255, 181, 112);&quot;&gt;Bronze&lt;/font&gt;" style="rounded=0;whiteSpace=wrap;html=1;fillColor=none;strokeColor=none;" vertex="1" parent="1">
          <mxGeometry x="210" y="360" width="40" height="10" as="geometry" />
        </mxCell>
        <mxCell id="IPuMuHIr2qcVIGaZvRd8-22" value="&lt;span style=&quot;font-size: 6px;&quot;&gt;Silver&lt;/span&gt;" style="rounded=0;whiteSpace=wrap;html=1;fillColor=none;strokeColor=none;" vertex="1" parent="1">
          <mxGeometry x="285" y="360" width="40" height="10" as="geometry" />
        </mxCell>
        <mxCell id="IPuMuHIr2qcVIGaZvRd8-23" value="&lt;span style=&quot;font-size: 6px;&quot;&gt;&lt;font style=&quot;color: rgb(255, 217, 102);&quot;&gt;Gold&lt;/font&gt;&lt;/span&gt;" style="rounded=0;whiteSpace=wrap;html=1;fillColor=none;strokeColor=none;" vertex="1" parent="1">
          <mxGeometry x="360" y="360" width="40" height="10" as="geometry" />
        </mxCell>
        <mxCell id="IPuMuHIr2qcVIGaZvRd8-27" value="" style="image;html=1;image=img/lib/clip_art/general/Full_Folder_128x128.png" vertex="1" parent="1">
          <mxGeometry x="125" y="385" width="20" height="15" as="geometry" />
        </mxCell>
        <mxCell id="IPuMuHIr2qcVIGaZvRd8-28" value="" style="image;aspect=fixed;html=1;points=[];align=center;fontSize=12;image=img/lib/azure2/general/File.svg;" vertex="1" parent="1">
          <mxGeometry x="138.76" y="390" width="8.12" height="10" as="geometry" />
        </mxCell>
        <mxCell id="IPuMuHIr2qcVIGaZvRd8-30" value="" style="image;html=1;image=img/lib/clip_art/general/Full_Folder_128x128.png" vertex="1" parent="1">
          <mxGeometry x="125" y="420" width="20" height="15" as="geometry" />
        </mxCell>
        <mxCell id="IPuMuHIr2qcVIGaZvRd8-31" value="" style="image;aspect=fixed;html=1;points=[];align=center;fontSize=12;image=img/lib/azure2/general/File.svg;" vertex="1" parent="1">
          <mxGeometry x="138.76" y="425" width="8.12" height="10" as="geometry" />
        </mxCell>
        <mxCell id="IPuMuHIr2qcVIGaZvRd8-32" value="&lt;font style=&quot;font-size: 5px;&quot;&gt;&lt;b&gt;CRM&lt;/b&gt;&lt;/font&gt;" style="text;html=1;align=center;verticalAlign=middle;whiteSpace=wrap;rounded=0;" vertex="1" parent="1">
          <mxGeometry x="130" y="400" width="10" as="geometry" />
        </mxCell>
        <mxCell id="IPuMuHIr2qcVIGaZvRd8-33" value="&lt;font style=&quot;font-size: 5px;&quot;&gt;&lt;b&gt;ERP&lt;/b&gt;&lt;/font&gt;" style="text;html=1;align=center;verticalAlign=middle;whiteSpace=wrap;rounded=0;" vertex="1" parent="1">
          <mxGeometry x="130" y="440" width="10" as="geometry" />
        </mxCell>
        <mxCell id="IPuMuHIr2qcVIGaZvRd8-45" value="" style="html=1;verticalLabelPosition=bottom;align=center;labelBackgroundColor=#ffffff;verticalAlign=top;strokeWidth=2;strokeColor=#FFB570;shadow=0;dashed=0;shape=mxgraph.ios7.icons.data;fillColor=none;" vertex="1" parent="1">
          <mxGeometry x="219" y="380" width="22" height="20" as="geometry" />
        </mxCell>
        <mxCell id="IPuMuHIr2qcVIGaZvRd8-46" value="" style="html=1;verticalLabelPosition=bottom;align=center;labelBackgroundColor=#ffffff;verticalAlign=top;strokeWidth=2;strokeColor=#FFD966;shadow=0;dashed=0;shape=mxgraph.ios7.icons.data;fillColor=none;" vertex="1" parent="1">
          <mxGeometry x="369" y="380" width="22" height="20" as="geometry" />
        </mxCell>
        <mxCell id="IPuMuHIr2qcVIGaZvRd8-47" value="" style="html=1;verticalLabelPosition=bottom;align=center;labelBackgroundColor=#ffffff;verticalAlign=top;strokeWidth=2;strokeColor=#FFFFFF;shadow=0;dashed=0;shape=mxgraph.ios7.icons.data;fillColor=none;" vertex="1" parent="1">
          <mxGeometry x="294" y="380" width="22" height="20" as="geometry" />
        </mxCell>
        <mxCell id="IPuMuHIr2qcVIGaZvRd8-48" value="" style="endArrow=none;html=1;rounded=0;exitX=-0.008;exitY=0.433;exitDx=0;exitDy=0;exitPerimeter=0;strokeColor=#6D6D6D;" edge="1" parent="1">
          <mxGeometry width="50" height="50" relative="1" as="geometry">
            <mxPoint x="109.53999999999996" y="460" as="sourcePoint" />
            <mxPoint x="159.47" y="460" as="targetPoint" />
            <Array as="points">
              <mxPoint x="160.47" y="460" />
            </Array>
          </mxGeometry>
        </mxCell>
        <mxCell id="IPuMuHIr2qcVIGaZvRd8-49" value="" style="endArrow=none;html=1;rounded=0;exitX=-0.008;exitY=0.433;exitDx=0;exitDy=0;exitPerimeter=0;strokeColor=#FFD966;" edge="1" parent="1">
          <mxGeometry width="50" height="50" relative="1" as="geometry">
            <mxPoint x="354.53" y="427.31" as="sourcePoint" />
            <mxPoint x="404.46000000000004" y="427.31" as="targetPoint" />
            <Array as="points">
              <mxPoint x="405.46000000000004" y="427.31" />
            </Array>
          </mxGeometry>
        </mxCell>
        <mxCell id="IPuMuHIr2qcVIGaZvRd8-50" value="" style="endArrow=none;html=1;rounded=0;exitX=-0.008;exitY=0.433;exitDx=0;exitDy=0;exitPerimeter=0;strokeColor=#FFFFFF;" edge="1" parent="1">
          <mxGeometry width="50" height="50" relative="1" as="geometry">
            <mxPoint x="279.07" y="427.31" as="sourcePoint" />
            <mxPoint x="329.00000000000006" y="427.31" as="targetPoint" />
            <Array as="points">
              <mxPoint x="330.00000000000006" y="427.31" />
            </Array>
          </mxGeometry>
        </mxCell>
        <mxCell id="IPuMuHIr2qcVIGaZvRd8-51" value="" style="endArrow=none;html=1;rounded=0;exitX=-0.008;exitY=0.433;exitDx=0;exitDy=0;exitPerimeter=0;strokeColor=#FFB570;" edge="1" parent="1">
          <mxGeometry width="50" height="50" relative="1" as="geometry">
            <mxPoint x="204.99999999999997" y="425" as="sourcePoint" />
            <mxPoint x="254.93000000000004" y="425" as="targetPoint" />
            <Array as="points">
              <mxPoint x="255.93000000000004" y="425" />
            </Array>
          </mxGeometry>
        </mxCell>
        <mxCell id="IPuMuHIr2qcVIGaZvRd8-54" value="" style="shape=flexArrow;endArrow=classic;html=1;rounded=0;width=4.90566037735849;endSize=5.89811320754717;endWidth=10.601637593449627;fillColor=#FFB570;strokeColor=#B09500;" edge="1" parent="1">
          <mxGeometry width="50" height="50" relative="1" as="geometry">
            <mxPoint x="170" y="439.62" as="sourcePoint" />
            <mxPoint x="200" y="439.62" as="targetPoint" />
          </mxGeometry>
        </mxCell>
        <mxCell id="IPuMuHIr2qcVIGaZvRd8-56" value="" style="shape=flexArrow;endArrow=classic;html=1;rounded=0;width=4.90566037735849;endSize=6.113207547169811;endWidth=6.828052687789249;fillColor=#FFF2F5;" edge="1" parent="1">
          <mxGeometry width="50" height="50" relative="1" as="geometry">
            <mxPoint x="260" y="439.62" as="sourcePoint" />
            <mxPoint x="290" y="439.62" as="targetPoint" />
          </mxGeometry>
        </mxCell>
        <mxCell id="IPuMuHIr2qcVIGaZvRd8-57" value="" style="shape=flexArrow;endArrow=classic;html=1;rounded=0;width=4.90566037735849;endSize=5.89811320754717;endWidth=10.601637593449627;fillColor=#FFD966;" edge="1" parent="1">
          <mxGeometry width="50" height="50" relative="1" as="geometry">
            <mxPoint x="330" y="439.62" as="sourcePoint" />
            <mxPoint x="360" y="439.62" as="targetPoint" />
          </mxGeometry>
        </mxCell>
        <mxCell id="IPuMuHIr2qcVIGaZvRd8-58" value="" style="shape=flexArrow;endArrow=classic;html=1;rounded=0;width=4.90566037735849;endSize=5.89811320754717;endWidth=10.601637593449627;fillColor=#fad9d5;strokeColor=#ae4132;" edge="1" parent="1">
          <mxGeometry width="50" height="50" relative="1" as="geometry">
            <mxPoint x="410" y="440" as="sourcePoint" />
            <mxPoint x="440" y="440" as="targetPoint" />
          </mxGeometry>
        </mxCell>
        <mxCell id="IPuMuHIr2qcVIGaZvRd8-62" value="&lt;h6&gt;&lt;font style=&quot;font-size: 4px;&quot;&gt;&lt;font style=&quot;&quot; face=&quot;Times New Roman&quot;&gt;&lt;b style=&quot;background-color: transparent; color: light-dark(rgb(0, 0, 0), rgb(255, 255, 255));&quot;&gt;Object Type:&lt;/b&gt;&lt;span style=&quot;background-color: transparent; color: light-dark(rgb(0, 0, 0), rgb(255, 255, 255));&quot;&gt; Csv&lt;br&gt;&lt;/span&gt;&lt;/font&gt;&lt;font face=&quot;Times New Roman&quot; style=&quot;&quot;&gt;&lt;b style=&quot;&quot;&gt;Interface:&lt;/b&gt; Files in Folder&lt;/font&gt;&lt;/font&gt;&lt;/h6&gt;" style="rounded=0;whiteSpace=wrap;html=1;fillColor=none;strokeColor=none;align=left;" vertex="1" parent="1">
          <mxGeometry x="107.82" y="490" width="70" height="15" as="geometry" />
        </mxCell>
        <mxCell id="IPuMuHIr2qcVIGaZvRd8-68" value="&lt;font style=&quot;font-size: 5px;&quot;&gt;&lt;b style=&quot;&quot;&gt;Raw Data&lt;/b&gt;&lt;/font&gt;" style="text;html=1;align=center;verticalAlign=middle;whiteSpace=wrap;rounded=0;spacing=-1;" vertex="1" parent="1">
          <mxGeometry x="205" y="405" width="50" height="10" as="geometry" />
        </mxCell>
        <mxCell id="IPuMuHIr2qcVIGaZvRd8-69" value="&lt;div style=&quot;line-height: 60%;&quot;&gt;&lt;span style=&quot;line-height: 60%;&quot;&gt;&lt;b style=&quot;&quot;&gt;&lt;font style=&quot;font-size: 5px;&quot;&gt;Cleaned &amp;amp; Standardised&lt;/font&gt;&lt;/b&gt;&lt;/span&gt;&lt;div&gt;&lt;span style=&quot;line-height: 60%;&quot;&gt;&lt;b style=&quot;&quot;&gt;&lt;font style=&quot;font-size: 5px;&quot;&gt;Data&lt;/font&gt;&lt;/b&gt;&lt;/span&gt;&lt;/div&gt;&lt;/div&gt;" style="text;html=1;align=center;verticalAlign=middle;whiteSpace=wrap;rounded=0;spacing=-1;" vertex="1" parent="1">
          <mxGeometry x="272.5" y="405" width="60" height="20" as="geometry" />
        </mxCell>
        <mxCell id="IPuMuHIr2qcVIGaZvRd8-70" value="&lt;div style=&quot;line-height: 60%;&quot;&gt;&lt;b style=&quot;background-color: transparent; color: light-dark(rgb(0, 0, 0), rgb(255, 255, 255));&quot;&gt;&lt;font style=&quot;font-size: 5px;&quot;&gt;Business Ready Data&lt;/font&gt;&lt;/b&gt;&lt;/div&gt;" style="text;html=1;align=center;verticalAlign=middle;whiteSpace=wrap;rounded=0;spacing=-1;" vertex="1" parent="1">
          <mxGeometry x="350" y="405" width="60" height="20" as="geometry" />
        </mxCell>
        <mxCell id="IPuMuHIr2qcVIGaZvRd8-71" value="&lt;div style=&quot;line-height: 70%;&quot;&gt;&lt;font style=&quot;line-height: 70%; font-size: 4px;&quot;&gt;&lt;b style=&quot;&quot;&gt;Object Type:&lt;/b&gt; Table&lt;/font&gt;&lt;div&gt;&lt;font style=&quot;line-height: 70%; font-size: 4px;&quot;&gt;&lt;b&gt;Load:&amp;nbsp;&lt;/b&gt;&lt;/font&gt;&lt;/div&gt;&lt;div&gt;&lt;span style=&quot;background-color: transparent; color: light-dark(rgb(0, 0, 0), rgb(255, 255, 255)); line-height: 80%;&quot;&gt;&lt;font style=&quot;font-size: 4px;&quot;&gt;&amp;nbsp;*Batch&amp;nbsp; Processing&lt;/font&gt;&lt;/span&gt;&lt;/div&gt;&lt;div&gt;&lt;font style=&quot;background-color: transparent; color: light-dark(rgb(0, 0, 0), rgb(255, 255, 255)); font-size: 4px;&quot;&gt;*Full Load (Truncate &amp;amp; Insert)&lt;/font&gt;&lt;/div&gt;&lt;div&gt;&lt;div&gt;&lt;font style=&quot;line-height: 70%; font-size: 4px;&quot;&gt;No Transformations&lt;/font&gt;&lt;/div&gt;&lt;/div&gt;&lt;div&gt;&lt;font style=&quot;line-height: 70%; font-size: 4px;&quot;&gt;&lt;b style=&quot;&quot;&gt;Data Model &lt;/b&gt;-None (as is)&lt;/font&gt;&lt;/div&gt;&lt;/div&gt;" style="text;html=1;align=left;verticalAlign=middle;whiteSpace=wrap;rounded=0;" vertex="1" parent="1">
          <mxGeometry x="205" y="435" width="60" height="80" as="geometry" />
        </mxCell>
        <mxCell id="IPuMuHIr2qcVIGaZvRd8-72" value="&lt;div style=&quot;line-height: 20%;&quot;&gt;&lt;font style=&quot;line-height: 70%; font-size: 4px;&quot;&gt;&lt;b style=&quot;&quot;&gt;Object Type:&lt;/b&gt; Table&lt;/font&gt;&lt;/div&gt;&lt;div style=&quot;line-height: 20%;&quot;&gt;&lt;font style=&quot;font-size: 4px;&quot;&gt;&lt;br&gt;&lt;/font&gt;&lt;div&gt;&lt;font style=&quot;line-height: 70%; font-size: 4px;&quot;&gt;&lt;b&gt;Load:&amp;nbsp;&lt;/b&gt;&lt;/font&gt;&lt;/div&gt;&lt;div&gt;&lt;span style=&quot;background-color: transparent; color: light-dark(rgb(0, 0, 0), rgb(255, 255, 255)); line-height: 80%;&quot;&gt;&lt;font style=&quot;font-size: 4px;&quot;&gt;&amp;nbsp;*Batch&amp;nbsp; Processing&lt;/font&gt;&lt;/span&gt;&lt;/div&gt;&lt;div&gt;&lt;font style=&quot;background-color: transparent; color: light-dark(rgb(0, 0, 0), rgb(255, 255, 255)); font-size: 4px;&quot;&gt;*Full Load (Truncate &amp;amp; Insert)&lt;/font&gt;&lt;/div&gt;&lt;div&gt;&lt;font style=&quot;background-color: transparent; color: light-dark(rgb(0, 0, 0), rgb(255, 255, 255)); font-size: 4px;&quot;&gt;&lt;br&gt;&lt;/font&gt;&lt;/div&gt;&lt;div&gt;&lt;div&gt;&lt;font style=&quot;line-height: 70%; font-size: 4px;&quot;&gt;&lt;b&gt;Transformations:&lt;/b&gt;&lt;/font&gt;&lt;/div&gt;&lt;/div&gt;&lt;div&gt;&lt;font style=&quot;font-size: 4px;&quot;&gt;&lt;br&gt;&lt;/font&gt;&lt;/div&gt;&lt;div&gt;&lt;font style=&quot;font-size: 4px;&quot;&gt;&amp;nbsp; * Data Cleaning&lt;/font&gt;&lt;/div&gt;&lt;div&gt;&lt;font style=&quot;font-size: 4px;&quot;&gt;&amp;nbsp; * Data Standardisation&lt;/font&gt;&lt;/div&gt;&lt;div&gt;&lt;font style=&quot;font-size: 4px;&quot;&gt;&amp;nbsp; *Data Normalization&lt;/font&gt;&lt;/div&gt;&lt;div&gt;&lt;font style=&quot;font-size: 4px;&quot;&gt;&amp;nbsp; * Derived&amp;nbsp;&lt;/font&gt;&lt;span style=&quot;font-size: 4px; background-color: transparent; color: light-dark(rgb(0, 0, 0), rgb(255, 255, 255));&quot;&gt;Columns&lt;/span&gt;&lt;/div&gt;&lt;div&gt;&lt;font style=&quot;font-size: 4px;&quot;&gt;&amp;nbsp; * Data Enrichement&lt;/font&gt;&lt;/div&gt;&lt;div&gt;&lt;font style=&quot;line-height: 70%; font-size: 4px;&quot;&gt;&lt;br&gt;&lt;/font&gt;&lt;/div&gt;&lt;div&gt;&lt;font style=&quot;line-height: 70%; font-size: 4px;&quot;&gt;&lt;b style=&quot;&quot;&gt;Data Model &lt;/b&gt;-None (as is)&lt;/font&gt;&lt;/div&gt;&lt;/div&gt;" style="text;html=1;align=left;verticalAlign=middle;whiteSpace=wrap;rounded=0;" vertex="1" parent="1">
          <mxGeometry x="275" y="440" width="60" height="100" as="geometry" />
        </mxCell>
        <mxCell id="IPuMuHIr2qcVIGaZvRd8-74" value="&lt;div style=&quot;line-height: 20%;&quot;&gt;&lt;font style=&quot;line-height: 70%; font-size: 4px;&quot;&gt;&lt;b style=&quot;&quot;&gt;Object Type:&lt;/b&gt; Veiws&lt;/font&gt;&lt;/div&gt;&lt;div style=&quot;line-height: 20%;&quot;&gt;&lt;font style=&quot;font-size: 4px;&quot;&gt;&lt;br&gt;&lt;/font&gt;&lt;div&gt;&lt;font style=&quot;line-height: 70%; font-size: 4px;&quot;&gt;&lt;b&gt;&amp;nbsp;No Load&lt;/b&gt;&lt;/font&gt;&lt;/div&gt;&lt;div&gt;&lt;font style=&quot;background-color: transparent; color: light-dark(rgb(0, 0, 0), rgb(255, 255, 255)); font-size: 4px;&quot;&gt;&lt;br&gt;&lt;/font&gt;&lt;/div&gt;&lt;div&gt;&lt;div&gt;&lt;font style=&quot;line-height: 70%; font-size: 4px;&quot;&gt;&lt;b&gt;Transformations:&lt;/b&gt;&lt;/font&gt;&lt;/div&gt;&lt;/div&gt;&lt;div&gt;&lt;font style=&quot;font-size: 4px;&quot;&gt;&amp;nbsp; * Data Integration&lt;/font&gt;&lt;/div&gt;&lt;div&gt;&lt;font style=&quot;font-size: 4px;&quot;&gt;&amp;nbsp; * Aggregations Standardisation&lt;/font&gt;&lt;/div&gt;&lt;div&gt;&lt;font style=&quot;font-size: 4px;&quot;&gt;&amp;nbsp; *BusinessLogics&lt;/font&gt;&lt;/div&gt;&lt;div&gt;&lt;font style=&quot;font-size: 4px;&quot;&gt;&amp;nbsp;&lt;/font&gt;&lt;/div&gt;&lt;div&gt;&lt;b style=&quot;font-size: 4px; background-color: transparent; color: light-dark(rgb(0, 0, 0), rgb(255, 255, 255));&quot;&gt;Data Model :&lt;/b&gt;&lt;/div&gt;&lt;div&gt;&lt;b style=&quot;font-size: 4px; background-color: transparent; color: light-dark(rgb(0, 0, 0), rgb(255, 255, 255));&quot;&gt;&amp;nbsp; &amp;nbsp;* &lt;/b&gt;&lt;span style=&quot;font-size: 4px; background-color: transparent; color: light-dark(rgb(0, 0, 0), rgb(255, 255, 255));&quot;&gt;Star Schema&lt;/span&gt;&lt;/div&gt;&lt;div&gt;&lt;span style=&quot;font-size: 4px; background-color: transparent; color: light-dark(rgb(0, 0, 0), rgb(255, 255, 255));&quot;&gt;&amp;nbsp; &amp;nbsp;* Flat Table&lt;/span&gt;&lt;/div&gt;&lt;div&gt;&lt;span style=&quot;font-size: 4px; background-color: transparent; color: light-dark(rgb(0, 0, 0), rgb(255, 255, 255));&quot;&gt;&amp;nbsp; &amp;nbsp;*&amp;nbsp; Aggregated Table&lt;/span&gt;&lt;/div&gt;&lt;/div&gt;" style="text;html=1;align=left;verticalAlign=middle;whiteSpace=wrap;rounded=0;" vertex="1" parent="1">
          <mxGeometry x="350" y="445" width="60" height="90" as="geometry" />
        </mxCell>
        <mxCell id="IPuMuHIr2qcVIGaZvRd8-75" value="" style="image;aspect=fixed;html=1;points=[];align=center;fontSize=12;image=img/lib/azure2/analytics/Power_BI_Embedded.svg;" vertex="1" parent="1">
          <mxGeometry x="450" y="381" width="14.25" height="19" as="geometry" />
        </mxCell>
        <mxCell id="IPuMuHIr2qcVIGaZvRd8-89" value="&lt;font style=&quot;line-height: 80%; font-size: 5px;&quot;&gt;&lt;b&gt;BI and Reporting&lt;/b&gt;&lt;/font&gt;" style="text;html=1;align=center;verticalAlign=middle;whiteSpace=wrap;rounded=0;" vertex="1" parent="1">
          <mxGeometry x="435" y="405" width="60" height="10" as="geometry" />
        </mxCell>
        <mxCell id="IPuMuHIr2qcVIGaZvRd8-90" value="" style="sketch=0;html=1;aspect=fixed;strokeColor=none;shadow=0;fillColor=#3B8DF1;verticalAlign=top;labelPosition=center;verticalLabelPosition=bottom;shape=mxgraph.gcp2.search_api" vertex="1" parent="1">
          <mxGeometry x="455" y="430" width="20" height="20" as="geometry" />
        </mxCell>
        <mxCell id="IPuMuHIr2qcVIGaZvRd8-91" value="&lt;div style=&quot;line-height: 50%;&quot;&gt;&lt;font style=&quot;font-size: 5px; line-height: 50%;&quot;&gt;&lt;b&gt;Ad-Hoc&amp;nbsp;&lt;/b&gt;&lt;/font&gt;&lt;div&gt;&lt;font style=&quot;font-size: 5px; line-height: 50%;&quot;&gt;&lt;b&gt;SQL Queries&lt;/b&gt;&lt;/font&gt;&lt;/div&gt;&lt;/div&gt;" style="text;html=1;align=center;verticalAlign=middle;whiteSpace=wrap;rounded=0;" vertex="1" parent="1">
          <mxGeometry x="435" y="450" width="60" height="10" as="geometry" />
        </mxCell>
        <mxCell id="IPuMuHIr2qcVIGaZvRd8-93" value="" style="shape=image;verticalLabelPosition=bottom;labelBackgroundColor=default;verticalAlign=top;aspect=fixed;imageAspect=0;image=data:image/png,iVBORw0KGgoAAAANSUhEUgAAAgAAAAIACAYAAAD0eNT6AAAQAElEQVR4AexdCWAURdZ+r3tmQjgDmJmAoqKiCJkrRMVrV1Twdj3xxHN/8VjFPVzR9cB1XXVdd70P9lJB3UV3vS9QWS9AN2SugCjeB2QmHOEMmUz3+18FiEnIMTNdM9Od9KQq3V1d9dWr191Vr15VvVLA/tkcsDlgc8DmgM0BmwO9jgO2ANDrHrldYJsDNgdsDtgcsDkAYAsA9ltgc8DmgM0BmwM2B3ohB2wBoBc+dDMWObSWSv5XT3t8uJb8C9ZSsPl8PQ01I602TW05QHNOVyl83s4UOnsURc8eR9XnjKHQmbvT8mOK2sa0r2wO2BwwCwcEHbYAILhg+7xyYP6X1GdRPU36cI12x6K1+jsfrtUTjUBrNaLPCSisAFU3n2u0iu+vWVSvL1y0VvvzwjV0wvwE9c8rsXZmO3CAYmeOoPC5F1L0nFkUOScG+zg3AWrfgYKfAmEVqLAEFPVL2DxkM9//giLnvkjhc35J4TODO4DZATYHbA4UjAO2AFAw1ve+jBfWU8WiNdojxSW0EojeIMRrmQs/IoBSPnbmBgPBeAC8GpFeLHZS7aK12hMfrqFDwf7ljQNUc7qLG/PzuTH/L+jq14D0d34u5zIB5QDYWU9f1C8jAegEQPgjoFrNGMsY43qKTHGD/bM5YHOgQBzYmq34QLee2f9tDuSIAwvW0f7ci38ViRYD4lTOpoR9tq4fAE4hpHdZO/DeR/V0BNi/nHGAqi5xUuTsq0Bzfc6ZPMaN+Y/5iOyzdfswxm0A+peMe48tCGTLRjudzQHjHLAFAOM8tBE64QA3/EMWrdFmKjot5N7iMZ1EMxJ8iE70Jg8l/Ov9OhpuBMhOuyMHKHrWj8G1KQyA9wLALuxlur4AOI0FAdYInH0ZERgRKsD+2RywOZA+B7bHtAWA7Zywj1I5wI3//tzwVwHi/zFwTt8zHkqY7HBQ9MM1dBznZTuDHKD5hzkocu4MIOVtFtzGGITrLvlgAHwIoufMo5oLysD+2RywOZA3DuS0Ys5bKeyMTMWBD+tpKjf+HzBRPP7L//PjhvKwwEuL1tKN+cmuZ+ZCVacPgqE7zwOgm7mE+awfjgCtqYqi53g5X9vZHLA5kDMO/ACczw/8h1ztsx7LgYVr6DdE9AgX0ME+347VyPTbRWu1B5gGPs939tbOj2JnecDp+i/3+g8rUEl25rzfpfBZhxQofztbmwO9igO2ANCrHnduC8sq+J8h0u9ym0s66HjFh/X6/enEtONs5QAtOmcg6MqrfBVgX0hXAqi8ykMQFYUkws7b5kBP5UDrctkCQGtu2OdZc2BhPZ3BKvj7sgaQnhCv4OGAadJheyCgGPOHYnqOi2aWRncAAL1CsTNHME22szlgcyBHHLAFgBwxtjfBLlhHeyHRTC6zydTu9McFq+kgpst2XXFgyPBbAPBwMNevDHT1GbEM0Vxk2dTYHLAyB9rSbgsAbflhX2XIgTlEqqLTPznZQPZmcw5FodlVK6iv2QgzCz2saj8UAKeDOX8HgHPj9eYkzabK5oD1OWALANZ/hgUtwYh6uIIJGMferG5kqq9+g1mJKyRdzap/gAeYBjPXA9exkLIP02g7mwM2BwxyoH1yM3/47Wm1r03GgdBaKkGg35qMrB3JIfzlwrW0+443ennI0F0u5bF2n7m5gEVM453mptGmzuaANTlgCwDWfG6moLoR4EomZBB7szuXgvqvzU5kPulrHlsn+lU+8zSQ14kUO8vkgoqB0tlJbQ7khQM7ZmILADvyxA5JgwOvEome2VVpRDVHFMKLqtbTTuYgxgRUODaeyVTsxt4KDkFXrCKsWIGfNo02B5o5YAsAzWyw/2XKgSHr4HhOY5kGlQCKtBSIRo/Jth0gXADW+p1Kyy4aYC2SbWptDpiHAx1RYgsAHXHFDuuWA0R0TreRTBYBk8n7o6E49Xb/cehTlocUsy376+5t6QtbtpzUXST7vs0BmwPpc8AWANLnlR1zGwfE0j8EmLDt0jIH3eUEUphyy1CcG0L74ycMzDIA/7eUU3CSpei1ibU5YBoOdEyILQB0zBc7tAsO7L4ehMW4ki6imPMWt/16H5c5acsjVf3g8zzmJjErAqtpLSQW3oayOSCfA7YAIJ+nPR5RJwhatZC6S7Uq6dLoLobvpWHlGWg4Raa485ynnZ3NActzoLMC2AJAZ5yxwzvlAJJuWcMsurO3CwAELqzr9Nma/gZqo01Po02gzQGLcMAWACzyoMxEJgHuaiZ6MqGFHL1bAHDARlCgKROWmSuuDlZZumguvtnU9GIOdF50WwDonDf2nc44QGBGu/+dUdsmvLdPAlSwsQ0/LHeBaC8FtNxDswk2KwdsAcCsT8bMdCFYdnMdRDQzZ3NOmwLJnOeR0wwQ+ucU3wa3OdDDONBVcWwBoCvu2Pc65AABWLYbSUx8h4XqJYEEFh8CIdrSSx6VXUybAznngC0A5JzFPS8D7kNvtGqpUNetSroUunXqIwWnYCCkbChY3nbGNgcsx4GuCbYFgK75Y9/tiANEtR0FWyGstwsAKegHBBb+7BXrvntW+D5sGnsXByxcE/SuB2Wm0iIqn5qJnkxoUZJaJtF7XFwCBzTREOuWi5Rl1iXeptzmQH450F1utgDQHYfs+204EKmuPcKVWHdFm0ALXWCTZiFqc0PqFijLDXCOUXUogljqD/fHquJ75jgrG97mQK/ggC0A9IrHbLyQkUjdPtFQfA4ivqk2JPcAi86mU7dYeA288cfYjLCJrNl+NtOtKMeRCh9HwrX3hkJrrWeOuvkJ2P9sDuSDA93nYQsA3fOoV8dYsuTbIdHq2jt47DzKjDidPYjGX0mmmk+t9E/h3j+mNCuRnBNaN+KonODmGnQjtdDtRMKrVEh+HgnVTps/nxy5ztvGtznQEzlgCwA98alKKNPy5cuLIqH4NVrS9QUgXsuQbXbRUTc1cpC1HOn60yy8TOztfos+bKIORd9a6+khrAdve5KHIOA9Q0sSkWgocWz7m/a1zYHezIF0ym4LAOlwqZfFiURqT2jYOHAJAvyBiz6I/Q7OKQQAiw0D6A7Xrb6KsjdtX/ZmE5U8t8NDNXHAJtgTktDp5MUxrJZ6JRqOv1lTHfebuBg2aTYHTMUBWwAw1eMoLDGx6rrKaHX8XdTxRaak64FiTQeHEAI4oiUcwRsH7oQfW4LWHBMZDtft/TlccSZrAXKckzz4VfSj7sEIjtARqiPh+BM1HyWsOdOx+1LaMWwOpMGB9KLYAkB6fOrRsWqqVuwaDcWfJNQ/AoRD0y2sY91m7nilG7uw8Vz1De8XlgJz5B6N1u6hkP62Rv3da+gAcxDVDRVi1cJ6GttNrJbbChJM0Z30aSyUuG7Bgm+LW+7YJzYHbA604YAtALRhR++6WLasbgBXkrfpqrqMS342e9b68/80nZhU59jYkGbswkVTNzeCY93GmyLVtScWjorC5xyJrN4FNHyTKdmZPSRgEqSgnzg1ta+l45m+jF5Njg8DCOj3/Ytdy/i5n0VEGQMIENvbHLAiB9Kl2RYA0uVUD4rHlaESqY6fl9yif8qV5PVctKx7Sc61mwF5OIAxzOmIwLVmk6DNiYjPiPkN4qK3+erqlaWoa3O53CPZNzuN+kKcjmk+N+u/deSDDcRD/NkTuCs/96di4fhHkUgibe1W9tnZKW0OWIcDtgBgnWclhdJIde0RsXCiGhEeBzJuEQZ1HVyrNkqhLRcgovFvtfTPhTo+29tmjIv18g5QXufxmn3b83gNHQjrIW31evvkOb1OwQBYQadIygMrUad3I6HES2IYRBKoDWNzwIQcSJ8kWwBIn1eWjhlpZciHCyJ1prTawCr29ZsZ1lxO3bQFHBt2GKJwcUP4bCRSe7i5qM0NNVzOfgokXwaEio5zQPhePwOaoMPFHh0nyUMogQrf6FN4iGKg1NwQeDxBw48jtiEhqXy1wazJAVsAsOZzS5vqDg35pJ06/YiutZtANdGqAKWxCYo610wUsybgpVho5WHpl9B6McUEONSVl3nw++CuqE9Bf/hKnwoa9O0qWh7vsVBCp8Em2CtXebrQNiSUK97auAXmQCbZ2wJAJtyyUNyqKnJGQrXTtKTrc+jAkI/0ohBwg7sB1IakdOhMAYWVwqL4OgBiojpP3JdAeTlanUhjfVnnIGa9U1NT4+pf7HyWmZCWkLOFR4O+1i8CHYoKXCSEWjoO1uZnhcJ2Q0I1PCy01cplgUtvZ29zIJ8csAWAfHI7T3mx2vcEl5r4GAHv4SzzZy+dG9yixHpwsOqd8y2IU7ckoU9tPfB4bzr59wOkl8LhlfunE9kqcebMIVVv2mkWAGZkHW8T7AFf0OWQgv5QiB+BAt/rp0Ed5X10Zh8WlOZEbUNChXjsdp5SOZAZmC0AZMYvU8eOCUM+ofg7rN7u3pBPrkrCQoCrbgOI1QHQZQdcPgGO9ZuhKL4eQM8o44EKKXMF7+RTlH9EscJj9KjE4wA4GbL4NdAI+Ez/OWym3bJInX2SFA2Ar/RLYQ0cmD2I0ZQEtiEhozy001uKA7YAYKnH1TGxYn13NBR/lFD/kGOYQqXtXLcJ+sS5J96kMUm5dWIZomj4xYx/oIwa/+2EDWLezYtE6jqZKLc9mrmP3PhjNJJ4kKk8h33WrgkGwxf0M0jQRJbh1Kxx0k24HrywnH4FGyFnY/7pkiLibTck9FkkFJ8h5lGIQNvbHLACBzKl0RYAMuWYieJvN+SDeupTJusS9vl7nghbOL8unbKlCfqsWAuutZsBMuuVd4nbcpMbe8e6zdDnuzUgViK0hGd3UoK6/no4vNKca+LSKFMsnLgbCS5NI2q3UQhUiNMx8BVdfDcgvNJtgiwiiHkHX9FP4Wv9QkjBgK4R0njfugbI+G4/BLjZNiSUMd/sBBbiQP4aDAsxxeykck9PmiGfLMpKnOYZbtDv5WO3Dpsb6U1Q/N1qHhbYBChnO96VhPR756r1p7rWbmoQeXRLSHoRSnk44O2a6pVj0otunljRcPy3TM3P2ctzCLfuEfjxr9D35PEAOI79PwGgW8GP43ThEDbBHtzoXwDL9WtgA6XJagLxmM9n4AXs8+lsQ0L55LadlwEOZJ7UFgAy51lBU8g25JNRYRAWsU74YHTAlYAoNA5pJ0fWADi5t17MvfU+K+vByeP1SjLVyAA6+3TcUgJ6ABU8+psSHHFgifqbcXsP/g/30n4CcnuHbh2Vt6NVq0anQ5QZ4kRCtVfzc7lRKi1I9/sCnpu2Y6J/djX7s6ApWcZ5Xczh/2KfYN+t47Z7y0bam2rpOPhE/w18of8M1oOP0/HT4/9puiJEOMcbcB8KW+c3fAV5/aFtSCiv/LYzywcHbAEgH1yWkAePT+/D4/xzEJttuUs15JMGeZ8BV7pev/sgX4VnIaXgTwAwmH1WTmlsAueaTVD0/ZrjGppwECBXroRnE+HlhDhdeCD8GQCepyt4QBHg4PGDlbEHDlavPGAQKLQGHwAAEABJREFUvjEZsWVigTfomUcangwAjexlOQ+o2jwrWIyLhOKXI+CfZRV8G85jXr9n2rbzNgesfGYdBp78O/qfPJO9h2+OYH8kAP2Ujz8HpOkA+Gs+TuXjT4DUfXDNdwO+pEvvqaMjIAmdbukLafwm1UTip/uC7meSmjaW3xvOC9ankU5aFAQ6HrYZEqqqWjNIGrANZHPAIAeySW4LANlwLY9p8mXIp5MirRWVbHH/9eWi0kVEilbX/ZjjnsXekCOEWf6KsrcmuHHj+BJcfMAQfPrAIfjwgSV4p/Djh+CD4wfjrIMG4UfBwVjfVWb+ce7X+f6Z7JvYy3Ji45z5kUjtSFmAsnFi1fEpCHC/ZNxnly13/1Q863RwWQj4jv1b6H/qb3y8B31P3Yn+2XfxcSYfX8TAE5/ihP+mSCGhoTDca2dtwj3CtHFl5fDNvoD7ToemCE3NTKa1RSjk81y7ZkNCLrXp80iodtr8+eTIdYY2vs2BXHDAFgBywVUJmHk35NOWZtGQzuRKe7SoZEeNGtXcu16+fHkRKNojHJXbHf6fvWPBgn6VffIdU/qCnucRQQgBqR3vZh2yK+g4f2n1it2yRshRwlg4fjILUX9neJnf8AtJzX325Mk/aFgYX4rz+8s28fP5pWEwgjKVGm/djjOmsnQlP/upCuliTOG17eF5Og5FwHuGliRsQ0J5YridTWccyC5cZuWRHQV2qh04wL3Owhjy2UrJmzrqQVGpcqXdZox388aB17FqXvS4tsbM+j9Nb4+dNVSrhN6A5z8AeDYASBMCEGA3DdV51dV1wxnXFI4b/0lE8DQTI7Pn+eaA+s1nVlaiEP4YWr4TzwcJXzKMjHh5ZHHt+NY45RXDlvI7eywQTeTwGvb5dPvwEIhtSCifHLfzksIBWwCQwkY5IMIYDY/zF8qQz1Ju3I/lSnRiIDBsSfsShUKJUdyDu7Z9eKbX3KB+xA3BXzNNl258H48Ps5pYjEenO7mwW2gCGOVA/e2ajxJl3UbOcQQWDg9nel7gbIrYy3ILFCeePHLCSIMz/LsnB/XUzzjWJvZGnIIKPtqR6t1XUfYmazEquEGeyhm0EWD5OrfONiSUW/7a6J1yINsbtgCQLeckpotEVu/CDX+hDPmsEJUlj/v6fBXuTlWoKtBDQNDHYLFTCDgVEaU1zh3R4w+6HwdEqUIA57OP7qC5VVUrduLzgjjR60Udn5fwHFroZ2EirIHruPJy98aWwByelFcO/4afTYsK30BWvp0G1V3eUXqhxfAFy2aCWjSaNQJ3cpzmISw+5sPZhoTywWU7DykcsAUAKWzMDoR7c/0iofgM7hXl35APwGZRORY3OvYVleXkLsZ9WTg5h0t4JHtDDgH+XB50hw2BpJnYF3D/g4BEL5DbuDQTdRcNwetS1Tc//vC7od1FlX2/pjru516vMMgzQBo2QcyVbDoyGBzc5SRLafltA1q9tvRuPo2wN+QI6Xfh8KqdOwPx+UrWskZguqJpexPCLI4n711gsG7cdkNCn0ZDtZcI2x3dxLdv2xzIkgPZJ7MFgOx5l3VKURlEquPn8XjoZ9wo3sxAxezz5UQl+IwG+lhROY4aP7TLZVTbljrdJYG4b9CJv5WAkzaEP1j2V+bx1WknSC+iP+lyvilWZ6QX3XiscLhubx3hDUYawl6W+8yhK0fte8Auq2UBposzYQKmdBTLPFmXkW6ijuMNUEjrdgmk0Dr4A57zSKeDGGYh+3y6XQDw0Vi4blEkkjgU7J/NARNxwBYA8vwwItW1R8TCiWpEeJyrv/yOKW8z5OMLeiYHg8PSWpLldDTdwSwaxt6QY6HnynypmVsT6q1w38eagJ+3DjN6zkJbQGtyvbJ80eqBRrG6Sx+riu+pkD6f43nYy3FE32qgTxQz6OUAZo4SCLjfJ0SxiiHzxG1TnB4L1x7fNqjjK/+4skXegPtgABQbJaX1/oO0H+2HOr0bCSVesoJ9CWnFtoFyzgEjGdgCgBHuZZA2EqkrpCGfb4jgfO82Qz7pkl0TWrkfElySbvwu4j3vrygTOxR2ESV3t1gTcA+XQ+qyQxbexjcUpV5btqxOnkq+HQvE3BBSYR4Hy1yBECdVnZiuAMh558w5nI2/ZnDDE/V0wgcikdp+jNWtQ0TyBW1DQt0yyo7QKzhgCwA5fsxCVRytrr0DdT3KWZ3OPp9uLSBOL+6/fm9/hecJUfmlm7mYYa2D8ijHN/qObObeptQeONOUsfNWeO4mgFsyTth1goOaGvRXa2oS/buOlvnd6uqVpahrczmlNENErLlYpaN+hN9f+gnjFtyNHTtiDQDKWFmym6Ir10MGv+2GhFKk7MvJbENCzATbWZEDxmg2Wrkby70HpzajIZ9M2L3ToIQwBRvMJE1HcbnnfVMwzeGGjtLLDPMHPTMQ8DaZmCxUHKI30XMLFnwrbR6HsHTnQIXH/Ek0TrLIXUe6cnRHSzxlZZANjjdQKobC3s4mbes0PMzz69jiuDAG1Dq42/OKitIVvqBnKg+ziLSdroLpFii7CLYhoez4ZqeSxAFbAJDEyNYwrI40pSGf1jR2dR6LfT+CEGaA0R9BrFF332cURmZ6b9B9AyCJeQ0yYY/sX+x6/sv5XxpdJgnLF60eqEKT6PkbFr5aFXAzKXiCb1zp4lZhpjgVWildUS5jYowu1XOAAg8S8ZvLYJk625BQphyz45uBA0ZpsAUAoxxslT5WXVcZDcVNacinFZndnlLKIRpto2ptHREuFWuyu80wzxF8gbLrEEDGyobWlE/aMLjvc83mkluHZnC+gLUIDUVNLwLQfhkk6y5qUkc4xe93v9ddxELdDwRKP0XAPxrNX2hjYpG6C4zg+GxDQkbYZ6e1GAdsAUDCAwuHV+3MDb+pDfmkW8xodeIYjnsSe0OO+2EzvUHPAkMgOUxcHnBfiwAPSc2C4OiGjQOfFsM/meLW1NS4+hc7nwXAH4O8XxMpdFog4OHhBHmguUDa0NAohmY+N4xNdJeYP2EERwitwjYG2IaEjLDRTptzDhjPwBYADPCQVf39ouHEtQppyxhGzJbPJz/TNuTDtKXlqqpW9GX1+INpRe46UhyVoowmZXUNJ/8uIhILAT9jQUVsbiQzg5OLHImnxSTKdEHnzCFVbyqdDYDHgryfxurw8/z+MuO29+XR1CnSQQeNaECEDi37dZqo4xtDHYBShnh8tiGhjjlsh/YYDuSzweoxTOOKVYkIQz46LgdqHk82qi7PhDes6YS0DflkAlykqmLcX8as81+KyjOTvAsRF1kI8PndotH5i8z8ieDUoSWJp9IRAsS7NHpU4gnOX+YKESaBLvVXlP2TcS3jvAHPXB7+mGOYYMQLa8IrJxjG2QZgGxLaxgj7YCoOyCDGFgAy5GKkuvaIaDixGIUhHwDDBnIyyj4LQz7p4rM2o5wlCwlW8+gdb8D9VLr5FjoeshCwbLlbTEKbLZmW01kI+Kto4DvD5XsYCyXEMITYwbCzaJmHI/zKHyzL2YZLmROUfgqlSRGrT4yaJkadlPvFsEr6OXcf0zYk1D2P7BjW4oAtAKT5vFob8uGx40CayWRFy8qQT7qZc0OkgI5CFe5MN00n8ZKgOS4VjWon900ZLPZBYCFATB57WjKB58dC8b8087cD4Jpw4k5AEPsVdHA3yyDC63wBz5+yTF3wZOX7u2uR8CYJhIylJvcvJeC0gRDvts82JNSGJ/ZFITggJ09bAOiGj1Y15NNNsdrcjoXjP2Wh5uA2gVlcsAbhdl/lTmI+RBapC5tkmxAwRYoKunVREC+qCdc9ykIAs/iHG9HqxK3Mr2t+CJFwhvBbX4Vbyvi3BGqyhigPlop5KB9mDbAtIQHdmCuzu7YhoW1Mtg+W5oAtAHTy+MRM7kiodpqWdH0O2GytzNVJ1FwENzHoTFJotC/gvnPUqFFG10gzXMdO7GyHcozjfDawfrOlGx8hBCjOVVO4Byp14hw3RD9lIaBl0xp+r64GpBs6fiJZhiLd7wt4bs4ytamScS9bB125gonS2BtxxazZEsKEEYwu09qGhLpkj30zRxyQBWsLAB1wksfDC2rIhxv+Cl/QM9XvLzNsJ72D4rUJShY5/8w90Z3aBGZzQXTZyAkjt2ST1ExpysvLk+hKnAZAr8iki4WAadFQ/E/RUOIKFrhahAFJeTzm9XvE2LkkuMLDCKNFhGS88SY4OlIdPzXXJWpnSGhJrvNrh78Pv69z+P2al401xHZY9mUv4oAtALR62DWhlfvFQvH3UMcXOXhP9nlz3AiHueE/ghv+idzw1+Qj45rwyglIcK6EvJ4SBlQk4JgCQggBGxuaTgeEtyQT9HOuqB+QjPmkN+C+mHvN/ApJRi4wXN8tzhuZhBXsDTlEuFdYWDQEkmZi8R0kNXcQCYVAlu+tlo8kBaqj1fFHYrG4J02S7WiW44A8gm0BgHkZ3mbIRwdlEQEcwkH5dCu5UZj6yXJ3pd9fZtgmerqEixnSOqmih4Xppukk3voUKdd0cs+ywWJdejKlnUiA801ciBdW17svQETdxDRmTdqo8UPXc9lYaMoaYnvCnRuKtFu2X+T6KAwJeSvc94FaNAqI7uT8cjaEx9jtncqC61RKweeRUHyGsC7ZPoJ9bXNgOwd6tQDAqn4zGPIZ7QuWzRTjz9sfSj6OerL0WhY8DG82QwTTxThoPmjOdx5ioleTljqe832XvdncmwPqN585YQKmzEaYTHpYuzGHhbCXjWPSlZFIXYVxnPQRhC0M1ghMV3Us51TPsCf2+XL9WLK/uX+x61MeAjmv/STUfBFh5yOfAzIRe6UAwB9DjzTkk+6LsWRxYi/uJVyXbvzO4+H/PvnMPbPz+9a/I4SA4kbHCVwSw7PSGUOWW8DDRSf1hDkX6TDESamfcbxN7I04FXXtUWF10QhINmnHjnN/xkN7k0mngzj9Qvb5dLsgwuOxcN2HkUji0HxmbOdlfg70OgGAe/2HRwtoyIel8kNEZRAs4Ba5mqLfy6+m0e1rNR1har41F0x33p1QRSc151EA+D8o/C+kges4Hi4y2iAWviRpUjCmYvjXBHR7mtG7iIaVo0fVXdpFhJzeam1IiFUBX+c0sx3AaT/U6d1IKPFSrpZG7pClHZADDsiF7DUCQDhct3c0FJ+DOr7FjXDBDPl4C7xBTqS69kwACTbnCe4NBNwh6CW/ysoh6zRwTuJhk8UFKzJBzJlsmhgMDjZqKa9gRcg2Y9W5SuzeuDTb9D+ko9+Hw6t2/uE6v2eISL6g+5kmTRsDiNM59w3s8+YQ6HjQ8ONIuPbeqqo1g/KWsZ2RKTnQ4wWA7YZ8FNJj/AROZ59Pt1Z85MX91+/tr/A8IT7+fGbePi8xE5ppMLztKuOuTOrO3/KxVznR8CY1/WgudF5WaXA+LY6F1uUOXTlq3wN2yffM8hYaCnkiVmaQgqL3TgbpGKiCLuMbMESGGFryBdx3pkgZzUBiGM2ozQOGSVwCsnEAABAASURBVNu5kPAql9r0eSRUOy2dPSvSRrYj5pQDssF7rADQWwz5ZPJCNBSlfs/xDfd+EOEK0SNmrF7nuOJexePvR3DBJfRGGSUdR/StStrEMZWlK9OJ3lPj+P3u97hsj7M35IjozGgoIXPnxazpERNofUHPVIV0H4O8xj6fbigC3jO0JFHD/Mh35yif5bTz6oQDPVIAiERqT3CpiY/Fy83lLmGfT/cmNxB5M+STbsFi1XWVHFf0oPhgyL3mDXieM4Rg8cQ8/p5ABxwOgB9D7n9xUtWJYhw891mZPwceAvkVU1nH3qCje820RM42JGTwcfag5EJTy0O1Z0Wra++PhRNPx0Lxh2LV8Uurq+uGyy5mjxIAoovrxvE4/zs8zp93Qz78YJYC4bEszefNkA/nmZYTM58J9Ec5ssreiNvMwo0w0WoEo0ek9Xo9cVLUSVyYz9nnxCHAKu4ZHu73l36SkwwsCCqGQJBIwgoW2Kt/X5cMHKlc9FWUvZnU3EEAEptESRB0MiJPGBIKRcLxJ2o+SpRllNKObJgDrJnCaDj+C9bUfoWIT/Hw8c847Ewe87qMEB52oP5lNFx7H3dw+xnObBuANAGAbv3DqNQtt5+lzbj9t+xn6zNuf5H9vG3+WQ77izbj979K3XLHcXT77YO35S/lEIt9P4Ib/tmg6GKW9o+kgKYPspIf1sXegNvrq3DnW4WXFpX7jIr/DBAq0orcdaRbuPf7ZddRes9dv3/odw7SjuAPNBczutdpiJNEz7D3cDS9kpYHPX8HAjEckF6CzmIR/DpatUqMwXcWoyDhwpCQL1g2E9SifZgAYTY6ycd8OQUJpuhO+iRanZj+5fwv+8jM+OpPn9xj2tLZZ1z18ayb2c++eukTz1/18ex5W/2sZ65aNusvHP6rq5fOOu6y6JNS2wmZ5ZCNJTppNZG6p/i9vpuxOyw3h7uA8ErU8F1ZAlrWAgAxJXTzHYdoM25/lP23uqZ9yi/OU0ykMN95DleKJ7A/cpsXtrh/CoB3sfT+st4IdakZt1dpN99xPf3udyMgy19NTaJ/LJT4HaUcnzDEOey508T/8+M2c6N6q+LEvbnx/zsLAXp+ss0sl3B41c4IeGtmqTqMXZPU3KIy6vBmbw10JovWItCqHJS/j6JDWQ5wLQ/J3xrpin4ZF0RsmsWHrF0RqPrD3MvCrBFymLDZkFDQ8wsNUBgSyvew20BAun19Sd9lrI4+0wiPrlw6e/y0ZbMevPrjWV+Rpn/OuP9khs9gfw4h/oS/nyO3ejgNCcTOpHcRwssup75q2sezFl+9bPZvrqp5fNccsrrg0PuMStzBPD4zLUIQKlhAeysSqXWnFb+LSBkLAPToo05uvC/QZ9yxVEcSUvgljL8L+0ycyg9/HL8It+kp9SvWErxAv/39AekCMKOUSHX8PL2JPmVB5DeczuiadoZI27FMA89ooI/1BTw3lZe7N6adsgARVdDEmv8BBrPm71G/UvRMDOL0qORVVSv6NhQ18XATjstBwYr4+3g+GkocmwNsy0MGAsOWMH9Eb8lgWegw5vEUgyA5TR4Mupfz0OIppNOBnFFeDQlxPb0bC1xPxzI0JDRj/nzHtGWzz+UGPMYqhYVAcDlXnLsx/Zk40T5VcH3/O1SVL6d9/MRLV3/8uOBBJhimjyu0UMznq7smdIe7Y1gT8CbXQYY2chMM3gG5s4DUjN8fq69c/TET+w+OI0t1pvCLcaKu4yIWKp5jjUCXLwlLPYUz5APwIZe94IZ8mPdpucjixNFEILQvacXvLBIC/s0bHPbfzu73xnCxl4JLVZ8FwB9D7n4uHgt+VrzzucvCusgbNzf9lqn/gr0hhwh/MlqRGiIgzcRWMSQ0bemsiWvKvlsCRLO4aEJ7wQfDjtsqPJ5AWSAEgZ8te2KkYUSzACgpMa/KkTE5CF6ug978+MPvhmacdlsCZuq2sy4ONGNGiTbj9//ihuAVAMzZLnncmz+JNQJLtVvuEAyB1r+wGQz5BNwHegtsyKc1T7o6FzOcUaEHu4qT5r3VjVrqujTj9opoYrxObyqdzYU9hn2uXTHq+FIstPKwXGdkNXyxYRPpuENdkUU5hnJFelsW6fKeBE1sSOjK5bMH8vj9bB4anYsAe+eOOXi8Srjk6qWzr2Yhg7PKXU55QUac2F0+Xdz3N7kcr4dCa7Na7datAEC/vX2cTn2qAXAy5OfXlx/qAzws8CwLHv0LbMinHhCnm8WQTybs79/XeRPH34O9IUeAvxRr3w2B9KDErI5URo9KPMFFyue66b4Eysu2LXfmejvnH+d+HRH+3S44m8uf1oTiB2eTsBBp+Jvc7DORIaErP5nlV1K0mFvjc/LEj2JC+vO0ZbOfv/bzOYPylGeusjE4vwErVUi+LpYPZkpglwJA0y23TdB1eJvH2vKubiGAUxv7DP5Y2aB9wY3wtVwwVofy//y4Ji7z/c5k017iIxs1alQ+t/M0XMJweOVYIPyFYSDA//oCpaKxMw7VAxC48ceacJ1YTnl2AYrTD3V6qSa0cr8C5G3qLHV0iPFToyZ1FZ3gYWFAzNSFbUfcdkNCOuJ+lP+tq4ci4D0NQ5YuVzX8gEnbi32+3Ylbko3v//yTxw0bOMs34a3y01qdd3CaVtABDUWp15ctq8tovlenAkDTjNuPVkh5nbMeyL4gzrll8y67vf/qIEcyf+0vEr5EiuL1BcquEmuOC1JwA5mKRkrRlYcZwqjAlEQ9dTmyypGxbMcc4Mb/zzxM9VM+LZQbpIPyRjicCBaKADPmK5Zj8nO5yTBtPKbqVBNCmDAMlW+AQMAd8gfdhwPQSZz3p+zz4lYoa+AtZ3h37o1LW5ueBeHluq7MnxZ7ypNF2sInIZC1tPrAZIPOmsLatJ9FhwIA/fb3BygEzzJnjDYiDGHMFW1cByMWzQVFSxkD6iY1AYRJoSO8Fe4TrWx4pSZSdyEgGN72kyX7u7zjhufD0l03T8Yct5uXmwJNMwE1gxWiebHFcWE61gTkmIOET5Z77mdKQuwNOQS4eWn1it0MgRQwsS9Y9kJSc5ezQCQEmTW5JGWVsh7edIUhhXous0kXexQ4tFd/vexvGfWA0wXPaTyELu3HZJj3j1DDF8UcsHTS7SAA0Iy73LqO/+FGJG0pIp2MjMTpu7YOdg6JFYdGUDpN22zIh1X94/z+src7jWWBG80zmYnulEDq5xsaGi0xKUpCWbuFEAZRuEIVy027jZunCENJgXk11SvH5Ck/02czeTJqOuqXMqFGW6N+GjiEMMFQ1nRiua4/WHYvqEWsksd7uBTSDQk1QhO87Qzz/9x2zJj2TFzFFnL9PZMEZoibIkUs1W6QRgvC4f2LXS+kY8SpjQDAlRwSpGYxIdJtDjOmITfw+y+h5Gupmq3NwI1lcaNjtDfgNq0hn0yY5lKVPxCAoXWhIj8EZZqYYQ32D6KhxBWAdLsJWeHWUZlvCwE/PJlAYNhHCPDIDyHZnbE6+4RoKC5U6dkBmCTVVkNC7p9rWw0JPSOTrHddMdiAW2RCSsHi53/a1ctmCSNRUvDyASLmcXAd00kHI2sKJm4oKf63WK7cFUIbAUC75fYLuAGZ1FWCQt4bVvMROBo3GyVBJ4RZpDj28VWUTR81fuh6o4BmSB+tTvwIAC8Awz+a4w2WvmIYpgcARMOJCwHIzL1BIQTMXbI4wT29HsBwCUVo1JzXs/ay1jAU0X3C0qhhHBMAbDMkNBlIOQwIqo2S9LlaC98ouTB+aZSyremJ4E6rTQr0Bcr+zO3SI1tLIOs/Hqs3lT7T1cRWZXtWNGNGCRLeuf3ajEcllYSymiojpL2LpBzgD3jOExOHjACZKW2zlIckJv6hQbrWOTT1aoMYPSJ5LFx7BmuI/sKFMcpThmhxz/HZyexlqmR31hQSZkHzvlKHy2E6J7apJp1+bpgwxBF6km4xjGMiAF9F6TveoHs/2tpR+D4b0pogBR81W17PJnXe0gwgTflT3nKTlJHP776csK0GSwL0iS418a/OhIAWAUDHIjHBqVRChjmFGPT959BnQ32meXyGCKf6gp4feytKDUkQmWacj/jU5P4l52N8PBjxhjGVpSsZq1e7SKT2BCIUQ2GqNEYgvK44687kd/B5fheFze8madgAu6KOb9dUrTC4nlgiRQWE8leU/ZOzn8vemEO4qqY67jcGYq7UiKj7g+7HSaF9WLKdwdRtYp+2W+r4FjZj/lZlpU1Yu4jckJ5+9dJZMjZAa4ecu0t+NiSEAM5BdDz4IM2dXORIPD1/PjnaIzYLANz77w86XNn+pimviWDo8mi6pNXDVkM+5d6A5z/pJrJSPDFjmYAkjB/R4mWflgotgpWKL51WbvwPR8I5DOxkL8st4HHl08rLy5t7/vwuPsev8VkMLnMG1e66qr4VDq+y8npoZokcpwoLgQhbDKI5dMS/EFFzPWkQy1TJ/f6yTd6g55YUKXszYTPZa+y7dBrqsMTxdZdxTHSTlb30axPRkxYpQghYttwt5jDMBkgrSVqRuL45dWhJ/Mn2QkDzi62h63RAGJoWkgkiDfr+C1CbupRCmwDJsoZ8MmFxCpWHOL7RFRsa6OpUMZOasXqtqwnFD0YdXwSCPrKYwL2sj1zFytGiwm2N6a/w/JuvxZyNbitejpeu20sh7S1ZW4Wmm6kZ440d5/6MOzW/N04b7VcTSogNz4xDmRBBTEBjrdRUHXE/AOxyv4+vlAQ0QLMMC5b4EZ5qRdsAoh5eXe++kHksdeImAE7eqSRxH7T6NQsAQHheqzDTn6Kuw8Dvv+qQTu69WdqQT4eF6iQwUp04DQAN7xbHvdMHfeNKF0Mv/kUX143TAcTkR6PCVGsuRhRX8pjRo0s3tA7cfu4Lep4EQGFYiLMGWb99ZG0VKougQuEUD1j/B877E/aGHKuTfx+Lxa1pZCbNkgtDQr6gewJ0YUhouboiTTTTRHOMUYbPjlbX3mE1P3RQ/HdA8C1zsoG9NEcAl0VDtf+3HVChGX8aggA/2h5glePAlW1VUVywHmHIJ13+L1+0eiAiiTW+6SbpLN73fbc4b+zsZm8ID4dXjkVFf53LOoi9LPcJj7NOGjt2RJfGWLjSfYwrXbF+nWRlzDhStgplHEs7YcJbQV2oU43ydjCl4G5LMyNN4jszJCQm/61UunyV08whv9HWwqYjAfFaa3oQ5tyL5XMM79++ckjRYIvYZWyrJkB+TjlD7Lu6FoQmgIWXVTwGfvUny92Vfosb8smEWZv7NN3K8Q2P9xLh1T1lKSTzI2MnPgSFlLncQhi2n9Aq828cpB3F72OiVVinp1zp/oXfYaFmZjI6jZbZDQSvS1UNbRWaWYbmjF0eGDafe/CzJVB3Dvcij5SAY3qINoaEqNmwWGOtshZ0/jM98e0IrMN6EHMX2gVb4DKnJBZpCt0sclAQ8CBxYjUvTAMPqv3qb+jEkcLqlRg3sVoZsqU3Eqmr4KGOK7JN3yo1kA9aAAAQAElEQVTda/4K97OtrnvVqZg1n1LoTS60TMNX34NKE8ZUDG+rouJMunL8Dv+VhQDjy9faZtK8VWhV1RqZmo22OVjhCulXTKbx7ivig8uXLy9irF7hmg0JVZRN1wC9X6kJqVbY8sVAYaZ4Fa7LV3ZWyuesUGjl7iwAwL5Woro1rcOr5r9TXu7e2Dqsp5/PmUMq6vQIl9PoErUGbqh+xji90omJcsQ9ZATYTSID6lDXJvp8ZV9kg8lCwL2sApA8cxkrXY6mjHcJy4Z+s6bx+8tYE0PXSaBv7y0bB06XgGMpiGDQvfxT9fslliK6FbHrcHOrK2uc5oFKVUX1eIUrnFF5yCwnWSCBWMKSE2yzgo7eu47HNGk/o/Qh4K3ZNlRG8y50+o8//G6o7qR5kt/9tQrgJO84Yxso+YOeu1gTcINUHhGMb2rQX41E0t8lTGr+JgDzBjx/ZTIWsDfkeDhhejhct7chEAsm5vrCsmWux4xMHVjw6WRJMulHK0AwJMvkBU+2drd9fhUNxf8TCdVOqwklAj1xvW5rJi+tqhsGRL9rHZbl+VJ0JnrFpKb2/BHq8CaXQ0z4K29/z8D1RtLp2PKgO2wAoyWpP1h2Gwsnt7QESDhhvENQV16uqlrRVwKc5SAQUUcdWHgGY7YXCPoopD9oOQZkSLB4TyLVtUdEw/FbuI59p5hcxg2NZUiDrOhJbJIFlSecfGWDo7jTAv3zlZ3sfBRNF+u1T2bp9B4dKBQLJ1bHqhMvxqrjv6wJrdxPqMtl51lIvCaF/sz5D2JvxHEHEy/bbpTGCJDV0ooecJHa9DIAVoK8X4OC+on+cWWL5EECsCZgBj8oyZsQ0WEuVX0+nV3CZJbFLFjecZ4oAohvyChJR0ZDtWcbBTFTerHvQTgcPyoWStwWCcXf5/dkLQtNbwLBTUznj1KgMev4zIKuCTQLUp0XkssUzkZ4PljR7bB8uoSQTmA13R91UD4aPSqxNhqKvxqtTkyPVscP7MweshVKLj5ORDrDOK30mK/C/a5xHGshiMlbqONzBHCIRMqTAHiamGkOOfixJuB6fpdla2ombijp+x/BjxyQbHpIXaFbmMhv2Bt0+KdQaG2JQZCCJReasFio7rhYKP6HaCi+SG+itTwe/DoLnddzS38wE+Zi3+K4Xm05t9qJzlKMlWjOI60O0fhbdhKd7mjzjnbEtwEceAwg3Q4IC1xqs0AwNxquvSESSRxqlUpwwYJvi/njlKF2XJ3UdMmTzJjDJndC8GvYOFCY950okVSNCM72Bd2vSsTcAcof8PyKK9821rt2iJR5wDFbNgx6pnkTqczTWjqF31+2iYhkmD33KJi83SrMWLLk2yHRUO1PoqH4n7gztNilNq0m0F9mgfgaLsMB7HewE89hLc5JXd5uiWfGExc4zEiWGWiqVYCw3gyUZEOD5uxWAGgPK6y8TeQy34o6vcuNAmsIEvNZ5TWjJrxygmho2ycww3X/PkXXMx17sjfkWKX368rK4asMgVgssRgGKnLUPcFkn8heltO58b/Iv9WcryzMTnF8fs/VJHmXMBYqTtCSpR1uENIpIT3khr+i7EUuyvPsDTkkuCSyuHa8IZAcJebhLnekOn4qd3bu40Y/oiVddQAoyvxzQBCb5GS0ishlYQHACRkVFQr7y1/uBPi1wmrlz/OXpdyckv0GGgUsBqDDEOBmnZS3+xe71rJK7D0eMriVjxP5IxICg9E8DKWPVq0aDShhUwuC98r9pf8wRIzFEnNPD/fZu+5RPord92RRz3DwM278hVAhC7NLHBbcmncJI8S/dRkxw5uIcMqQQXWzhZCUYVLLR1c0Tex+alT7qYCCD7ffYKUQzBEThCPVtWdyvfUQN/hLeLirlp/vs9zZEdoOH9MktL18yM4NAOvOHR2kW5f27J5Weqn4hZjHmmUybCs7vezkx0r2NywAtCeqiMQYMdINfJzLH1E9f0wLosKWdChx7LJldWJIoX2anF1zS4Og6mKHvoxVHdD216Qr+mXI0l7b4J59FY3E70Gii2WWkoXFX3PjL56JTNhuscSz8/lLL+H8pQoe/EqcMXpU4rHeJgSUVw7/hnvwM7plfDcR+HkEhg5OXNVNNOm3Y7HvR8TC8XNjocRfoqH4JylVX8HvyNNcb4mVDmLGPpMmL9tBZN1GdBAVvB+X9oPIa0SdXlEI4cO8ZiopM1IUaCiRab21Q8IcHHogIF7LmoJXkg06DxnU/i9aHb+btQMnRKP1g/l+zlw0lJjC+QpTzcbyQLo7EBhmWUMe2RQ+FkrchoRSK2auXG/xBj1/zIYeGWm4gtc/Xu6+iLGeZi/TnTt6VPwvLHByp0AmrLmxVq1z38sURtgbcwS3iAbZGEjXqbm+Gcn1wQXRUPwf7L+glOMbIphFQGIzqZyv0S/VjS4+6rp8ubrLdQDspEvvKOaK3HzizhOrYhSV1LfymausvDYPdoOuivZZFmJaOCqIJWQIv0CxbazWuCoSiodiocQ9sXD85KqqFdIkEjFpBxFkNDZfJlP6rdCLfvw8ruOKUcybkFZqFpTvFkvzpAFmCTR5Mmqr691i907JJpzxwlg48TARlzRL2qyWbMIETJFOlzLdOywn4rBMXH9ukIUwkUmaLuMKY0ORUO1Po6H4rGh17Tdc33zBnQExhCe2kB7ZZeIc3ByuDwGpKoUc0NgR5FAaAC5wdnTLhGF5I4lIoRtFbgrOuHYFAEoxYAJ5/G307JLH3DrNSkGAADc204jgPy5VTfAHG2P/AFemk2OxuKfTlN3c0JNFd3KUUvYGHf6ssnL4ZoMglkkeq05cyc/j91IJJnjU53eL2dJSYbMFEw1XUnOLdehiUle2MB2lu4Tf2/t7kxDQbL+B4C8dMSPDsJO5l35Chmmaowt+11SvHBOpjl/G/H+a648VCumfIKCg61xAHNEcsYD/+pALdiLraQE8+mAxx03s92FNj7AlB4/9Lr+/rFnzv03lp8/KQSa5g+Su8bpd9sgdfvbIyEmFhbkr+KP+F6Wglj/mzyPh+BPRUO0lYvMFvt+t44rkAG7EhKq327jdRHg218vUusk/r7cjocT5JGeL5NZ0z/YG3ZcjD5a3Diz0udixTXHWnYGEL0mm5YqacJ0MYzmSycodXFJ38hAfrDSaA/fSHxAGddLBiUZr9xB1gqgbuNH/RkdlCSI8xPWGmLA6LB2MfMcZlTIlWV2xgZYWfTvJF/RMtIJvTyM3Ju8DQZ+uCpjFvbnLlrtbtKPNAoACztkA0MDeEm6jexdoKu5vCVqZyD2QgMfy8VEVlC+jofjyaHXt31jaP29p9YodNqIRa9ZRa5b8FU5rxG3QUb3aCICV0kaqa89EIDFL3ijfWopNrNVZXe++EBGNqohbMGWeCGuO/ddtmszv1xsycVn4nMbvqdBAyYQ1LVZl5ZB1iCDDPsauehPd2L6gYoJlJFJXwSr9q5mvz7NfDRpyzxQf5WfHdQOYQp3Znu7213tow8FhpSV1CG/fs/c5PHTSviTmv45Vx39JADNA5g9hkatYOU0MI26Hba4sccY1Yresv28PNPtx1Siv2Unsir69WKV3EVc4j6dQ/YorgxXs50RZQxAOrxzrctT9AhAMF5CAbgwEdvq+K0J6yr1wOH4UIj7G5VHZy3Lz+g5Yf7ZQt8sCzAXOyAkjt2zYkjyZewpvS8b/dSQUv0sypmnhvAHPbP7uZMyH+kV0cd044SOhWiFIzRk9KpFAXV+MgEKz8hNmwhD2lnNF3PyP1iwhqzTzljS0jKEmgGaSm/9Fw7U/Jznzv5rxtv0LgVJ07OjRpRu2XTcfmgUAcaaQ8gc+ml4LsKl0OGwaWsak9hgn9GqnA+Cj/AxqgOgOMPojqP5kuecBozC5TP9+HQ1fuIbOWVSvPbhorf4W+2/Zb2BP2/ymRfX6Sj5/Z9EabeaitXTRwrW0e3uaWJtyJL/EYiy8qP297K/xvxsbkj8ZNWpUY/YY+Ut50EEjGkglYehIqolnBPhVtDp+U/uS0JzTVQqdsx9Fz/k1Rc59miLnLGa/in2SPW3zayhy9icUOed5ipx9G4XPmUSRKaZej6WDcjmX1egzd4CiVwmPgPcwHn/bYMkGn2nfwXlTu4PTAloAbkDfu2/suTIEuh14kMuAWHXiKiD8k8w8CCCsupJH+nwla9vjct25NQhvmf4NAMqdPAVyf6QosNJ3oFzQnoem8zjiFa3VPGYp4nv1NPjDNfSzRWv1Dx0O+h6RZvPLLirdw5lG0bVoPa7TFwiEpPcjQPw/YPU+An25cK0e+7CervkoQWXR6viBfO85jidznOxDVzGeKBpVpskyzi9M3Cp0LBMsVQgAhFsiodrmMUOKnj2OoufcB/u4akGBj5jvPExAYsxaWJYbynk72W93gwFwbwDgHi9ezzg8TKGtZmHgWYqce6IQIvieqVwgUPop08llMhVZpiKmLxVBMGXYKGmuy5RiAUAYQMp1PtLwBVAkFL88B3OYoq5k05Fjx45YI/Jo71sEAHFDGdJXqPxqxLkZ/apRPmjsb72ZqHnlJdFDzTOb85pp15l9sIHci9Zof3ASfU1I93Ps/dln5RCgnAWcP5CTvm7aqf983aG2FhqywmyVKMqS8g5qslb3TX0qhIDiRoeYid48w1cWsf3h89u2RK76DAirgEBUrFkud0XW0uCpLMy9AHu7lrEwcDFVXdJaaJBFctY4xf3Wi06QZY2jZV3wDBKOTe0KQ2lgBinyHBXh7vv3mRLJc66GsotU157IdZuoG/lgCKp14k+UJjxq3wN2Wd06sPV5GwEAr7qqUQHiDxQ2tI5khnOh9q/bJ2AGUsxMQ71a1HSzWQjkhlr5cC2dp6ZoKSBew3RJs6TIai1X04Dioi07D4amkr5AaPC7QVpGCk3sTFJm2i3hRo0ful4D19EAtNgowU5YByPwKdhDeQiKYLXcbh/CXgD4V3BuilHknCPAJL9twz7TTUKOKclQWP1zeNIHZtwfgOucjwanim4yJeM6Iaqqas0gRBQ2Htq0x51ETy+Y6zN0wI/L93fXdpVghwxxxvWfEoIwn6p3lTCf98SM/+8rD+NKfgdy80mGFfIq0ZKub6Kh+DxWJ82IVtceWagdDz9aTSNYVf8OAT3OjBvKPjcOkQWAftA4vAR0p5ptHt84dP1o7kEnsgUwU7pgcHC9BkVHGhECSjAEeyt3QAlWQY5/+zD+PB4WuKtQ2gCxdE98K83fDH87TM+/2NuuCw4MpL7wo1Q5IBkUvLvII4tb3zs052kzyicns0hbsCQuJXUZZy5tngg/keUpXT3C6/XEGbdL12GL6rj5umc41TT2BXeaswi+PmgSNPWRYotaMMSyux+m+TDERKsj+SW4GRDnNWwcuJoFgrmRUO1vwuHEITU1NUb3FeiWjEVraYKuUIgjHsI+L053OlgIGAypvqxlzizH77nnf9iYiuFfZ5bM3LGFEJAiOoapzGhID0GHrYg6YAAAEABJREFU4fhv7vnP4n6e0flwnHt6jl9X+hVrA96h6tNL00uSfSxhZTMaqv1JNJT4c7Q6vlhvonrxrTARNzMqC06Q82+E8ymk+4ozN/xwd9PccHBqDDDfGK7gbi33/o/+k/esbwtOSYYEgEI/yTRJF/G/0BXH4RUVpSu6iNNyq0MBQNxVZ1wnZpFfwec6+4I4zVXU+NUhx/C4f4ms/AdyZX+qjno5AE1l0Gf45V3Fx57s+nHhJiLg7xSi9/Sm0o1c+VVFxQZHrCFYsODbYr4vzbHK/2QEeo0Bh7LPqyPWBiRLB0JqQNpFqlNIn8Q9/y/zSmieMquoGFbH77tQry9NJ0uEFOyqPAFD8YN0oucizoGgOt+n0Jk7rPYwkll19crSSKT2hOZ3PlRbxVqyOgB8HoCu5tZLTGDMWnUE1vitZDKf4fJO5fdhD1alzubrjCVlTrOD20fbGQ5tKgf+9ArWTjBRtbquH3HfmPMyEnY5nTkcwb5SCCH6lp/vkX7/0O/SxetUABAALAQ8REBn8LnRbTMZIlOH4S0D+gW2DBjyXqYpu4hfjDq+6CClxBcsm+kLeiZ7g55SUInHN2kqIcwCZmIX6XvCLScAjuMv9lr28/oXu9ZvFwhEJVlVtSbrWZYfrqHj+X2ZQ8BDxlCgHwIkh/ZPRwhYR4pydHnFsLQaxwKVxnC2LNwkeCzwcAD8GLr4Iff8R+BsGAjRLmLl4xbuDYr6LsXOzNr8rTDBzb370yPh2nvFu+1AJS6+e37frwXx7gN0We+B9X9fNNdl3MlxkLY713PD2U8WdR7o8BPW298gs4h7azvfpoN+CmOuZ59vV4OqcvD9Y88XGsd85y0hv2aItHsszbE7+ifaLQccxt97Rp2Zbj8Ex4zrn1VUpZLzzNesSm4/4BEFthw48Mqpy5K68wSWXA1PaGL6t7t+LKq+HA4ngtsDfL6yL8TH4Q94zvNVlO0qBAIiOJ/vz2RiepRqmMvU3jlAVIqI14pK0qU28ZBBbVWkufJMnJ7ujocfrqYDCWkOADAe/y+wSw7pD1pxp52cTTri8X5/aXWBycxL9mIskBR1Emf2OfsO3XB8FgZhoRv/FtJGgO54mZZdlNak0aVVdcNaN/iUAu7x0hwen74KxLvN/6Bn/4S1u5mizkJHaldu7Pdsrsu4k9N6aCsWTlyEgFLXmHOH6QFv0H3DfaPPf0HRYZzkurrrp4bwt4ZNmw+wqrW/VoVLS13fKn770xUqKYeLdqz9je6ule4iiPt447WfKNBYyRL01Xy9gX2u3HJunI9mzcNlOGNG8yYIwkxnUtOP5gxl9tRKFKI3olWrRjPuDk4w0l/heYI/pKn+oGf31gIBR85IwuL4VnMqcKW5tfKkOaA11kVD8SXsHxWVrBg/hXa/BetoCCn0NAcbl2QZRIpDgMbSAUAOLk5bwAYE/fhAwP1+2+CefSXUgtw4TOBS7vD+DsYPYQgu4ltmcuSDZONfO6KourpuuHgXt76T8SUpVecKlHpLg89VJIi6cCYATk5qWinXU3uynyrqLK935w7HwGPh+Lk8Ri42F+IvA2T9HvcGPdO2g/157JTPBteOGM/aB9FO5FIb8Bnnccy9o6f8dGblVEtvdLaNd+9sO2ZzSCikTxw7zv1ZNonTEgAEMM6YkVJvnn6v4tT34eu72cscFljOPe2LlWFDxjpnXDeXsdu4ysrhq3Rs7sEISbfNPQMXrPrX5qWzQU9rgYA/tD1SpOwM/PEBAH+EzR8jn/ZYJ1rQMVy6S1i6nyPGT7nibREIqqpW7KToJJaw7MZxzOUUbBYC4IcqL4mgnO4NDvsv9MKfaBxYJTyBiy4mgfEBoAgSMBz/03xuun8Ekyl87oVi45xIdfw8fu9YCI1/4UD9e/EuMr38ToJ4N/m0xzqNS9bS4KuupGjwx3I9NNUXdD8j6ka+36Vjvp1EBOIbTbu+7xKQbzLef1bXu3+KiDpftrgZEyak7hs95V5IqXvzPWFdVmaHket/vGSwVjSW83i9JVOrnxD+PcsiiMZ/gpFhzIxfCPzNb1ZyD/1XShHsykRfxg23mDEkXlK+zMjxi0FP8dtzjDJmz30dM677O06d2tQZQiCw0/eKponK65vO4mQRvosKyjyhQswkrZhhKT4+X9DDH6FnrENThgMLBKwCv48rJjFcwWyBnvpTuGCi0uXKl+YoA/rW8bUwQ8sH8zm9yAmp/s2KCY0rpCneYOkr5qMyfxQJlbCq40TOcQV7GI7/BgU6/exElIJ6Dfv81aFt+hwRxHJSfudgZEEJyn3mXJfS4q11CU4GtahNg5+pnYpoda1Y1fBPJlvm0Nzc7vbJuNd7dvye0ede28dVNAIALyEEMZdLg8x/mzjJP1l7cdzg2l32uXffc/9itWV+TH8nbmuwr8ItrHc+u/Uqvf/cp1mFOkw00viLnERlLo4Ze7zuurUsCDzCDfchShGU8gM+BYDuQEDRnYgCoVA1rmXgBPsvuEVcwMfHOfw6RaFDFGgcos64/hzu8b+Okyen9WKUVw7/RkdFVF5iOR/DSXF7sQpx7scffpf1rPUxlaUrfSyN+wNl03zBskp0wDBWiZ8IRHcyT3qsQEBcKzcNEYsMpDyHnIEkB/cTQwG/8AbcYo5CzvKxCrBQF+qoTBiEobX9cbmpyVahQfFgz+nsdcDsVHMdwXWFqDOSmnOoqEO21iXuZ3wd2G/vAKPDoFgofhAgPs83O50Mw/cycgQ4f2ND8qRtBpO6TXvnnpPXiUabe+w/wi2pnQj1kxhDbNLzbwSIMMAX7EU7IToSfI4LEXEWAl1Pin4oj/EPvnffKWfdN+a8V4V2geP2SOcqVi5qfg/SK12cezOTvOM8hiftZC0AtKZTCAOOm697jhv065QZ009lwcCv3jJ9Dz5yI3+dh497sqBwMB8v4PA78KbrP8AZM/jFb42S3nkgUPqpjijWN9enlyKtWOVNLsfryxetlmLfUky68vvLXvJVlE0XHzMpVMYqs9OYkufY9xin9e8jGlbzl4eHAjbvMliaoQ3zF7h7Cv3+0uW74L9qu49Z+BhijoITRBtReFokUaADwq0I+gRuTAeKOkLUFaLOEHOeZORRE1q5HwGI5bjyJHSERaoTst4n457ghfVisuB9+557PTfqp92z75QAH/dkP4S9mz2fn3sQaw7Ou2ff826/b5/z3+cxfvOqpww+qNbJxS59pMCPWQgQQzV663ttz+kd1oTvHwi4pax6kCIAtCUw91ei8KSTEAIkzkPAyoai1GuRSK28D2YbK/jDTvgrPP/mj16KgLENtuCH1MBm1XrB6UiHAAS8KlJL0p9tOnmbMk7s7GMUSMpZf5zjAiJosBMamSeVYwIzh1dYpb1azEXJxaZTXIeV66CIxl9mfRNVncnjysvdEuvczBnXk1NwO7GJhcGLdNR9XF/9HgDFXKWlBPABAjzMHckj+P5hQhMOkn6WFABE2cWGN/wRncSNavNqAREmwR+kaPjvXFjLi4bi5wCBMMoigczCQ+h9XKBnb3q3EAUYvNkFJ4H928oBgou2nljj/2Co4k89rZFCSxQIAW8Nh1ftLJvYUCgxCgnnMW7WQ5qctq1D6hH7ZLQtVKGvOs8/EBi2xBt0/8YXdE/wBT1j/UHPId6g53IWEN7uPFV2dywrAIji+ivK3iKkyXwuTU1ECEdpydKn588naZNmtq2lv5vp7DEu1V/asGLeeKI2Jh+KhmqrertfGv4iRKCekjfGS8hIxc0wAJdJQDINxACFtHtkUlNTtWJXFehN7miUScT9itA5kRsfMZdLIqwNZQYOWFoAEAzkF/Ml1gScx+caeykOEU4ZMjjxd8aVw59Uo5j04pFA3F8A6B3uCsnUemRFllZsPXPpVOQYCKiMA8Be7fvBZwEef0aw2G8AdGnMMC+lYaatIgIx0Vn0so3meVo0lDjWKIhIX/NRooxU9U0+F6uz+CDFrUANMjItKyXXXgBiliLKaeAKXBrWBPyTAMUOhiSLFCSYEgvF/8JCAH/z2aPWhFbuxw32/2WP0JLyeVYHXSLGgFavdQ8AXRGGmaYT4MscYx37vDmx8Q6p1nt1CBG0Ps688cmsGfWDz8xKWpd09cOCrFhINH9jiNPFN1cecHv8FZ5TVVfyTCbWcK+YgB7iMXtDc1NCobUlupNeJYBRTJMUx5XeKh6LnuSt9HRqPVJKRjZIQTlgvVq8E3b5g+7HkbDFKlUn0TILRrwoFq7L2nSmGEbQQXmUMzXK580a6D9nnGY3YQKmfONKF/sC7ju53CesrnfvJConrkyEBa5nOFI9+5w57knnDDvXwLpL2shOrknNGX5flGlKI2dk7gBcBHWgQsMO4VIDEMTKiGeavyUWsr0Bd5n4xsS3Jr453Gb4RqzHJ8BfG82bG9rdFF25PlscsXJJhSZhPC2YLUYH6dYDKceIsegO7tlBhjlgHgCjDZN5SsKUeCvc9wPBzXwq0dHV0XDtDdkA7jQoIQQSwx8mEtwUDA5rsd7WnpbtAoE/WHYvawkmL1u+g0Cwpn0aI9cWm/zXpqhWpr1NQQxcuGCVgdSFTSqEAMkUrGQ8FpppKvd4y30BzzDxDTV/Syxkc4NPfL9D5wuUPgEEhidmsbDx69jiuK/DTLoIFDt5NhRpLwDQfl1Ey/TWZiA8wVtRWpVpQju+9TjQowQAwX5fhee3Ww3wiCtJnvDWWCj+q0zQYrHvRxDCDDD6I4g16u77MoGZPBk10VtprsSCHiEQuEXlxhXFVMZ5hnsdhloAclj3tSFrrVzgxyXXicl0Oe9FyyW5DZoLV7e5zuKipcEXe3xwYz+cffNOeZn2eIVwoCvKZUxDI3sjzgEKPJjJcGNVFTn7FzuF4HKYkYzbpU1y43+ab6tluna37EtZHDATjnVr8i646A16ruNG7uEuomR8i7sBf4iGai9JNyGlHKLR7p9u/E7i6Rw+tbISDa1yEAKBqNx8wbKZorJj/pSKyk8IBCykzOI8vmOftiPFwq+Nwm9G2iXteRFVyrEKPccsUzIfAvhi6ztOUx2k7c7vf0uDL/b4MEquMEzGjeZdRnG4fjkkFqm7IB2cOXNIdSp1/N3icenETzOOBoDncuMv7AeA/esdHLBwTd75AxKSeXnAfQUh/q3zWBnf4ZYDH45U157VXcpodUIYKTK85pwQZvoqPAu7yy+b+6LyEwKBX2yBHPSMEAIBpbkFMlm4ESXkx5gNw3pIGgWSli6JCt12tr/gAna7NS7HkeaKB6z7HYN9yt6YI7qrunplaVcgQkuwz951jyLSGV3Fy/AedzToPF/QzRqFDFPa0TPkgLmi90gBQLAY+Qv55NPSZpW3uJbkFcZ9PBKpPaEzvKqqFX0B6cHO7mcQHkelKOvJQRnk0xxVCAT+Cs8TvqBnqj/o2b21QMARvmTf4pAlhZYLq51wV8tqJMukl8DanzyB2p4dzQ0+AE5OaprYOGfP5neY34Bo64wAABAASURBVGWx+yHk4Sfs4iPClRKyGuoAvKMrnFg4cTd/f2LFU1fRMrlHgHA5dwaeyiSRHbdncMDatUE3z0CovhVn3bkA9Go3UTO57UQdn40sThzdUaIiVRXj/iM7updh2C+NbASSYV47RG8tEHCFukfbLZBxww4JLBLAladFKM0NmToW5QY4T6gEsIKzmgnc4DuTTTvxu9nc4Pu495rO1riQo5834JnL9YzxzaYQL6wJr5zQEZnRcK2wJ9KyGqijOJmGMT+v9QU8YqVSpknt+FlwwGxJerQAIJhdXl6e3NjQdBp/nO+Ia0nehQr9OxJJHNoajzUD5fxBXd06LLtzescbcD+VXdrcpKqoKF0hKlkfawi0Po6Mtq7MDUXZoaKmZ5ewh6TSmrdDsO4wyHDlOe6teqb6uMHf94BdDM8IlPlYlSZFrPoxugQXdVLuF5P8WtMWCdX+Bgintw4zes5vwQzW9hmev2CUDjt94TjQ4wUAwVqx4UZxo/NEFgJkLm3py1/qizWhREDkwWNzCmsGhCTtFNcGfKOO6iXIQxgGMHKblBTj4525pbBTdKVJ6/Reb7ihgxOaYJCFi0qfmJX48v3dtYB4owT6xhapdS2rjmLViasQUMwzkAC9FYIQ7vYGPbdsvbL/54cD5sulVwgAgu2jxg9dr0HRRO6hh8W1JF+iA82tqV45JhaO/5QxD2JvyDF9dwQCpaZuYLnyWGqokAVMjL1cABCsbwSPOFjRJ0FJiTF/09Lu9Zc+BAiLjBJIQDdGo7V7REKJ8wnpz0bx2qanf/j87mvahtlXvZEDvUYAEA83GBxc79QUYXtbpi3UUh0VHv9DMT4nssnaI8DygfWbu5wElDW4xISKCh8wnM7eck7d0mQ5mmUTvIn2kA2ZL7xFWP6MqZcxsOZOJ1SuYIYYVTUVg4YvIZBYySSznn7SG/D8lOnkvgZTabu8ccCMGcl8scxYvh1oGlNZuhIdqcP5RqeW9fhepm5nTjCEvSHHwwiXj5wwsuAb/XRXiAMGohh7jXYXz2z3xfg/NqXMRlbe6dlIe+U9TzkZkmGre3Lo6BrF7y+t5l67jJVAYzgnlb0s92JSc1/Ijb8lhXdZTLBxfuBArxMARNHF8iDutR/F53H2ZnFP+SrKxG5eZqGnSzpIx+e7jGDCm5jSFgHi9N7uN+Pu1+nQJ68bSEl5HRDFLnxSoHIN0neLU8wF+D7X+WSAP6+4//rJRo2KZZCfHbUNB8x50SsFAPEomsfZVZrI56I3y4eCuvUpUq4pKAUZZC42ICmuXXNwBklMEZWcrl/4Au47bV92h0JbxIRVUzyXdIhogF0glrr7HNaSWaLOEnOOAFDqkj3I/rdQceIpwl5B9hB2yp7IAUt8TLlivM9XFtNRF3MCCrqunQimi2V2uSqnTNxwuG7vhj5NHyrJ1ES1ISkTOqdYCBDaf4jxyVk5JTKf4GpqJmdnmfGQNXQQsObm2mi47gUhgIIFfmKpIm3drruQ1EZALTquvNy9sZBE9Pa8zVr+Xi0AiIcSCAz7CEgRlv0KZST9Q64oLNEbi4Zqf6KQXgWEowXvnPWbxcESXtmiPY1mXlqZZy6i91+fb6adLTGPowlKYC1t3fAOgY5vcKXeFzPkwQo/Rb+KySzUh7I0qWlHFtKgGJfddibmQK8XAMSz8VWUvsM9xJ/weSP7fDpNR7yMGyZTT8phtStGw4lrAZrHYAfAtp/S2ARqQ75Zti3zDA6CzqLaNddHF9eNyyBZj44aCdX+9Ds6L0g7mtY1XbnjdBS0oRPBCxr+LxaKiyE809HbmiC/v+xLArqtdViezj/nYcWJhbSOmKdyWiAb85JoCwDbno036JmHCGKjn/ypRQnuDQTcoW0kmPJQU5PoXxNJPANEYnniDu+Lc/Um4HumpH07Ua41TCNACSr668JaI/TyXyycuAgBH22EUqwjsSDGvAxpgBGwlvbviMAhBPDaVsG0o9vmCVOdq/7I1OTTdsb3pNBEqwwrMm9sVyAO7FChF4gOU2TrDXieQ4KLmBidfW4d0beuvsqM3GZiDD1WFd9Tb6KFRHBqZ0hKSgPX2kJpODuj6odwx7rNIDQAIoQbjJ1Qx7eE4SZx3Rt9s2EZor9w2RX2UEdHwhYYJk5N53Vwwrf62UwXsu/QqcCCaTQUf6p5E64OoxQ+UJgjJwUvZUr4FeT/uXV1qGsTheYht9nY6OlywMzxmisBMxOYb9q8FZ5Z/JVemet8UcFpo0eXbsh1PtniR6vrfkwqLOT05ey7dI71m0Hd3NhlnELcFA2/a8d5Cm4dlbdji1fsWwiaCpkn9/wn8xj6X5mGlu9eNLLf6BeADubbJGgFnQppWi08y6Wq7y+tXrEbl82Uzu93v8eqssdyTNw6UpSjveOGf5zjfGz4HsKBloqgh5RHSjH8Qc9DBJTLJTyvCW2DFGJzABIN1V4CqAubBKXpwrvqNoCSTKUbPefxkDUTRYn1XOeyOLdjbh5S1LlCw7HjrZ4ZEqmOn0pET3LpHOzbuEYohW/0KW3H2dvEyP/FKpoAnaj+OyMmqKFaFQutPKyzCIUOdyZT1zANdexz4TbriMcLI0S5ALcxs+WAudPZAkAnz8cfLLsHAX/fyW0jwQ0a6JcbAchV2gULvi2OhuKzgceHAWCHhoLDOnXI4wRF8XWAJrC1Lyz+9RG0aHqn9PKNXXQV3lpq4l4j0yjFxcLxUxDhaQbr9JlugDHwPU3mKMi+sG4tVcJKOj5jIljU24lAeSMqBNiMU+c+gdi9kDsW1+cgpwYF9eMDAff7OcC2IXswB5QeXDbDRfMG3b8hhLsNA7UF6KOQckzboMJfhcOrdu5fXCS2TD4nW2qaG97a+oJqAkTPvw/TkI4gwk3dbilU3w2FVu6ebZnNni6yOHE0y2ZPMZ3d7lK5lvaDr+lCIOpUTmCY3LrVdAh8R2IuLj+d7LJyAQuw0VD80ZqaGj4H0/zmzCEVASdJJqgJkSaXB4bNl4xrw0nggNkhbAGgmyfk87uvIYRZ3UTL5DYiwgOxcPzcTBLlMm4kkjhUIa2a9eVbF1sbyEwIAUUr60HdlP85AcIwUR/OO53Gv1URd3WAMre6um54q7AecSoaf1RImGxOe4B/PZXDl3QpNMGgvPKAQIUVdEqzB0CQ8LtET5a+GYvFPRKwDEPw8IsyelTiCQY6nb00h4jnegNlL0sDtIF6FQdsAaCbx80fGDGT+nYTLdPbCvfKHouGElIrg0yJEPGjrC5FncR4v1tcy/DNwwF168G1eiPLFKTJwOwKQ+TnXLsZmocgNL2rqB3eI4BRDtTnL62qM+d0+A6p7jowWl17JDf+wnZ+2o3/dsRNsAd8pv8S1tPY7UE5PTZSaepzugpW0yFy80E4lFKwOBxeub9c4MzQuPHHWCjxEKcSSxr4IM/pOvWRh2YjyeWA+dG4bTM/kYWkUPSiuLHudBmcAdpUbh1nsxAgTBEbgMku6fz55IiGa+8DVpcCQE5UpY4NDTNdqOwJRP/iPLid5f+SXXOvf8VacK7bZBR575RDe9ssPUYjhQmHE4cA4nOMUcw+K5eC/vA1Xcz+IkjC0Kww0ki0AQiuW+E6b68GGLEojfjZRNmZh9ze5e/sgmwSy0gTCyfuAISpMrDaYyDCn6qqVuzUPty+tjmQDgdsAaALLolJcdyLkrGtZ2e5cMNLz4old51FyEV4dfXK0qEldfOAMFfLHRsR8WJf0DO1YjB+PX6IeqZO6Aekp7k8SfZGncZK4peKVm28nXv9lKHKv/O8CUdzj3Huxx9+l7MWr/PM5dyJheIHsXrpVUbrz96wE0MCn+rT127GUTdzI7bUMGAzANYB4C3gSO6OgSfv2GNMxdfF/dYfxoLi3yE3P9aC0D+iofijVVXkzE0WHaNGQvEZfOfX7HPlhrpUNReTlXNFb6/BtUJBbQGgi6fUv6/zJr69B/tcumJA/cWa0ErD4+/pEMm9w6CKyv8AKFfLpVaQTod5A+42lflBQzA2vkQ9G1UcjlsFj3lMbwP7dF2SI74LiNekUrjrAYOVE4OjBl7PWNM4nNjLcr6ky/nmkiXfDpEFmC+cyOLa8cyI1zi/FnPNfG7U1QM5J/Xzzfgt+p4cCzoIdfo9DJrpWvNaFjifBMCfQFPfndE/ewaOfWYNbPuJnep8FWUX83spespN24JlHy5xqfF5QgCWDdwRXqw6cRULqjd3dE9y2E9rQvGDJWPacL2AA7YA0MlD5nHDsVxh/bKT27KDB+qgzK0JJQKygVvjRaprz+Le4QdcKe3WOlzi+UKHplT6x5V1qs49YCCuPmAIPjB+sDJpTQkOBh0PBMCLEOk27gHOBKElEEMGRDOR6E5CvAQJf1TciEM4zY/Hl+AfDynFFbDt561w309Av9h2KeXA/Aloja550Wj9YCmAeQAR7w4q+ApnNZC9LLdOAX2St6K0ajsgBp/8H/qf/Dn7MdCEwwHh2K3fCd0LgH9j/wwAicluYsz7BgA4HRRlDMcfhoHZ56J/9otYObPTBt4XLJtJCh7B6RLsc+Dwxw5UFkYitd0auDKSeTScuJCQhKBkBCbdtKgDPJJv7Ua6xPXOeNYotS0AdPCcxKQdhdQH+FY+1YUlOtAbkUjdPpyvVCeWH0Wra+9AxKcYuJh9LtzsjQ3JI8ZUlq5MF/xYxMbxQ3HR+MH4jwNK1Bt4qGDqeNYS8PFM9lMPGKJOP7AE/8ICw3v+Mux0kN8fLLuHGyK5whpCBWiNryxbViezN50uazKKV1Md9/O7IyZyytRabOKG+ITy4DDWFnVMDlbOXslagde4Yf8T+p+6mhv3n7KfzOfno//JK9jfxv5Z9M7KSFsgrOahI1XJgsTijnM2HLon6rgwUh0/1TBSBwCR6sRpLMwKc8ssS3YQITdB5U41cXVuoG3UnsoBWwDo4MmyOu0irnxypSLvIMeWIDdq2jyZ69KFKnv0qMTrgHhtSy5yT1KMPZ3H+6ccdNCITFT6UqnwBTx/4tp2hlRQgAMbG/TXxIZIknGlwUWjtV5CEI2/zHkLm4GU40RDLI3QDIG83p2/HVDfcAiXbVaGSdON3h8RnhGCMQv80urBSHXtiazNeoqJUNnn1Yn3nzUbI/OaqZ1ZhxywSqC0F98qBe6OTjEBjBBv7y5ezu4jjlBBmSdjSZpoHLSkS/TgjswRvatJoaN8AfedOcLPCNYb9NzC6ujfZZSom8hcqR6sJ+lVrlj7dRM177ebtUU6ziUAmbPAm63K+SpKhVGovJepdYYjJ4zc4vO7zxcCJofnYjkpMva1sXD8paqqNYYNH3DjfwQqKFa85FNzyKxpcX1Zs5HLScstGdknPYMDSs8ohrxSNLmcf2S0UvaFdHulFP0NIYxkSwQ3WCeAhu9z+lxNYoxooFf6/WVvcx6mcb4K940EJFeAQziUK9bnvpz/pWnWXIdCiVGo628DQZlE5icB8DQzWZVD7k4LAZN0PB5ivpmoAAAQAElEQVQA6iEnPzzWpTZ9FFuc/QZR0er4gUzr8/w8Cv2OHBMNxU/KCZts0DQ5YJ1otgDQ6llFIolD+fJ89oV3CN6Uy/lqpmPQrM7EaDhxLTdYwgKczAlhLTwhwn8lNe2gYHDYVy2BJjrxB8uEvfU/SCZp4sZBfZ9fvnx5kWTcjOGWVq/YTQESqyiGZ5y48wRJbmtP9QXdYglh57EKdMc/zv26Brg/Zy9pKSIjtXV7k6IuioZqf9I2uPsrMQcDEMQETClLL7vPsZsYRPeZediqG+rt23nkgC0AbGO2sBuOOj3Cl8jeFI5Vu/uLMWjuzaelfhbCQiyc+A8Q3cEFyMWzJabpFl+w9KzKyuGbOQ/TOm/APZ2Jk6oOJYSjGjYO/GchZ1vXVK3YNYXqfH5Jd+PyyXJNLDie7g2Y26RsMOhe7ipWxnOhhXDLB+mOBWZ8TqzdZ34wi7vHD4fr9tYR3uCY5lkxwsOIWopmME22KwAHrJRlLhoJK5W/hVataadf8cUY9oYc1xpiCVSjIZBWiRnvYO7NPyMElFbBO5xGInX7JLdoH/GNXKn/6lkNe6w/6JnBqk7ifEztBI0sBAhDR2I2tkxaT3KpiSeFJUWZoOlgxWLfj9BV9b8cdyR7Wa4JEc70V5S9KAswlzijR5du4Od6KgLexvnk4j1kdsDNNZG6p6qqVvTlPDp1sar4ngrpYhMeT6eRMr/xKQC9k3mytimQYFpNKJHTZcVtc7SvrMgBWwDgpyZUqlyhCLUxXxlxtPjj5W6xguAMRkmxl+WO0ZtK/9lZoxOtThyDur4ICEfLyrAdzqeoawcJNWy7cFNfIuu0ubGYykTOZC/TnT60JPFUZ89DZkbbsYSJYtLUuXwts/HXuLG5wBvwiD0DGNoajp+r7g26byCFhLp+fS6oZg3AmS5VXRCJ1HbI73B41c6kgtxhGKJvNdCPUnXlpzyksMVguRw6wEwuh13HG2RkZsmtFdt+Ofh5NaFDrPlPS83O0TtzOilwxeTJqPmCZS9wJGF7nL9BPpPjTh4yOPH31h80nzeP9wOS2A2sRE427VHolaTm3N87bnhGa7nboxTqmhsL8gbcl3H+s9nLdEII+Cs/g5x/Q9wIuSkFb0sW8HREuIDf1adkMiWfWH5/2Uug0iGc5xfsc+H8rH37X6S6VhgmasEXlgQV0kXj36Fw0BIxs5ME6I5JYl7N2HHuz0AHCeZ9aT/WAlySGRl27N7EgZxXXmZnZiycmIxAYoaxIVJZg3A/V0gfbgfxBT1PAuJP+VqampLVelNqwon7GRPEjPRoJPF4Lsf7GftOb8BzYmXlkHUiT6t6RNSXLXcLgewpyWU4PxaO51QIEI0NN0JvMd2Gh6cYY7vjd5Iu42crWyjajp+3o89XFlNdyf04Q2ELgQ/S3VB+f16PhhPNdjTEckEHKK+z5mRfiTnVK4BH+Sp3WrYdU3HV3QmAhoVuQrhDxpJisH9pccBqkRSrESyT3uWLVg/kHtyfJWCu6NOo3tQexxdw/4Mb7Wvahxu55pr78lgo/uCGkr6LGHuKEawu0m5EhNN8FWXTkRvPLuJZ5pbQzCS1ZiFA7JInkW68kIWyB/g9QomgzVBiGagDFdGwyTRby68QTeWev+xhkWaaC/Fv7NgRa1bXu48BwHsgNz8HC8N3REO1f3c5ml4HhAqJ2axXQJ9UHnSHW2OWl5cnFdSu4DB+Xvw/ezcopep3ZZ/cTtmTOdCrBYCGPk3CaIzhpVREOG3U+KEdjkV6Kzx3c4XxW5kvEdcIlzOen30u3Oc8tnog9w4tNS6cDiMqK7GJhQAxP+PFdOKnG4efx2XRSFxq4yN6mk0ux+tMg4+9LMek4pXc+MueGCmLvqxxJkzAlC/o/jkLYmczSI4sUuKFQCBWIXAWUlwDkHJiZ+aWhT0G7sHL0NKcE62uzZUxMCmM6Bkg1itFrxUAoovrxgGhaEgNPTUkeMNf4X62KxBfwHMzAlhACqd3UqQfyEMZNV2Vx8r3hBCgOOtOJ0Axb0JaUZDwqmgoIUObBEIzVaQ2zQXASpD7m86N5INyIc2F5q8oe1pHPJgAvjYXZTtQ02x0ydeNxUVXY9PPue5YtUPqDAMQ8SExbJhhMjt6D+dArxQAuJeggKKLilA1+HwbyEFpCRHlAfe1QPCowfxymXzm6nrPkRUVw+pymYkZsIV6tW//dacxLa+xl+jo6kg4LixJZo0ZidT2ayhKvcQNmDB6kzVO+4QIeL0v6JFtHKl9Nqa4DgTcIY30/QBQLJkEE/40bpCn+NIwurTvAbusJqDfGC0Dv0+jNpb0bZ7HYBTLTt8xB6wY2isFgJpQnRhbO8DoA0PAW32+si/SweEPnrxBtxAWZE9ESyf7zuMgbAHAC31Bz9QJrEaFXvIbNWpUY1LTTiNAsY5bWqmR4JexUPzmbADFunPUFaGZ+FE26TtNg3Qjv3tyzSN3mpk5bghBdnV96URAap40aw6qmqkgJJrqDbjnNF+l8c8b8PyVAD5II2qXURjjumjVqlwtFe4yb/umOTnQ6wSAmo8SZfwFyhiT/6RP/3V/yuSxshAgZqOfx2m6HDLg+/ly3+ug/9gXdD+WrwzNlI+wZtikpY4HCYZXWpeLK9oZkVBtRr22BQu+LXYp6ktMi9RdKJmWW3yBMjHXpTWJveJcCLRc9quYp8IWBKvcC15sVj7CFd6Ksr9lQomoN0ChSzlNE3sjrgjU1CNMBBoBsdN2xAFrhvU6AUB36vfyozK6Zp4U1C8TvUjGysiJ2eg8Bn0OJ5KsfmbEDBw3DB8oTVgZCAwT1gMzSNmzogohgBQ4jodn3pNZMgT8XbQ6IcwRdwsrrDz2L3Y+AwiHdxs5kwgEfxKWGzNJ0hPj+oJlM7miO5z5W1vQ8iFe56/wPJwNDWJeDgJImGiKP46F42eB/bM5wBzg74L/9xLHL/4kAJwMhn/0WHlgWNaqYzEGLdTPTMa77AvhZqrOusPL93cXtkIsRMk7yJMr101J3XkCAIqtk0HaD+n2SCje5TJQ0fhrTe5/A+BxIPWH9/gqPL+UCmlhsPKg5wMd1EqQ/YwhzR/CrT6D22Y3atoMzu1L9gYd/ikarTfP3gUGS2OG5FalodcIAELFSgQPSXhQa1JEhifTiJ5ncaODGx1aLIGmdCFSSDjNx+P9QghJN1FviCeMHWngZAFR7vPgXtudLASIuR87sFFsKqQ3lc5BCYao2oDzuLc3UPqLNmH2BQQCO30/oH6TmF+R3yEvogd8Ac9NRh+BqDOAUMxfMgrlQa1R7KVgFMdOb3EO9BoBYEBxkRiT3dPo8+LxuGvEBCOjOCK9sB2Q1PSj+TxXW5wy9FbHDdEqBH2it8J939YQ+397DgSDg+ubnwdBrP09A9fIvH8gVh0XY7gtMHPmkFrkqBMbRwl79i3hRk8I8W9ev2caIpJRrJ6YfuSEkVtYAL5w27wAmft1dMaux71Bz7TObmYa7qtwi6FDw7sh8ssxNVodPzDT/O34HXHAumG9QgCILV6xLwF1qYpN6xESvFfuL/1HWnHTjMRS/SqmLceGWfB/uuIIeoPDzLosKk1u5T5a8/NQ6UgANGyGFX74ISE8GAklzhdBovHfd++62UR0priW5on+7vOXXmI3/t1zVMwLQITjOOZa9rlxCFt01O9CRJl7ggA6UlcxwRvZG3EKIDyczw2tjBBrp80NB5TcwJoHlStZJEURE29cBqlq0hX9Mv6YWXg2iLQtuWgIoqH4nQiY0WqCbcnTPTwj1J5+/9Dv0k3Q2+P5/WUJh4ZiA5hPJfJCQaC/xcLxc/fZO/EPfi+lNv4sYMzinub/8fsptbGRWH7TQXkDnrmqjsLewuc5IY6gj0KK2FGQh/rk5eD17vwtN943S0D0Dx2cEMKEBKjeC2Hlkvd4ASAWruNeF/7Y6EPiXvofA4FhS4zibE8vrL2NHpUQ5nZ/zWHIPlfOt3GnvoNyBd5TccdUlq7UUT2cyyezcVCJYBYSyN7D4dk1a90X2Y0/P60Mna6Qm5OUsc+VG4g6vhCtrr2DhT5p9e3qtW4xlBcyTDTBraHQyt0N49gAluSAtBfSjKVfsuTbIQB0pwTavgEFpE2aCYfr9m7o0yR2DjxRAm3dQeyjp+B1e9Zvd2za8b6YNMbq1gl8R8LMa0bJgWOB4j+r691niTXvOYDv0ZDh8Mr9WZ33OhfS6FbgDNGlQ0C8Nhque0EI/l3GTPOmeN4K6MK+gVGNT18VlFxqINMskVWjWZtuxdrkd019qqlImD4VEn7XEbu5Swr9jNXCm7qJltbtWKjuOIX0j4Awbxa5ECAAWuMrNTWJ/mD/MuKAULcqmnYYJ/qKvdnca30HrD9bNAZmI8zs9ESjtV5Wz7/KdA5gnxfHQ0DHNxSlPopE6vaRkWHzJkIEMuYPnRyprj1RBk02hrU40GMFgHA4cQgSXSThcTzLjf9LRnFY/YfRcOJaAv1FxiqESv5AvYme+3L+l304f9tlwIHyyuHf8FjxRE7yPXtTOB5GeGNA/eZTsjFGZYoCFJCIJYsTe4GGbzAJQ9nn2+2Dur4gFoqL98lw3kndeS2DrGRvyPHw0f12ByFzFlo9RY8UAMTMVoXoAX443Pnl/9m7DaQ4fp598q0pxYdVE0k8A0R3cEgheX7khpK+/xT8YTpslwEHxo5zf6YBiuEAw5VtBtl2FnVe/3WbTxJL2jqLYId3zIFY7PsRmkLz+O4w9oVyQ3jo4TXRITBKgLBfgQi/NorD6XflDsKNfLRdL+JAIRujnLF56OA6YQHNbzQDArrR6Oz5WFV8T/6wFvJY7alG6ZGU/idDS5pnoffIZy+JRx3CBIPu5aQoEwChYBYUWaJ9n4ekTrYb/w4fUZeBkUitmzR1Lkcyw6Q3VXQIoqH4U2ITKKYpa+cNeGZz4jfZG3W/qKmOG643jRJhnfTWp7THNQI1VSt25Q9LhiQbXVPvedDII46F45NIBWFettwITg7Snsu0/VUMS+QAu0dD+v2ln6AGR3EhV7PPt1uATjyGh6SkzEfJN/GFzC8UWlsCOqv98zj3Js3ynuVS1feXVq/YLc34HUZj7dTlLJhu6fBm+oEOHeFRrhd6XLuQPgt6V8we96BZZS9U/0Zn9eqk01Qjk6uiodpLuNf/Cr9OJrW5jRfWhOv+zPTZLkMOeMd5ogrgkZxsDfv8OIRFrmLl6PJyt1EDMPmh10S5iJn3KjTNZe1JwERktSYlqKFaVRNeOaF1YCbnzdopAhkrng6IheMXZ5J3b43bE8qt9IRCbC8Dv7inENIJ268NHB/2jytblE16MckuGoo/BoCPAoCDvWkdD3FMi1bHbzItgSYmrDzoDuvYLASszQOZIVCKjh09unRDHvLqUVmIPUAaippeBKD9zFwwAthJJ2VurDqRtWGevv3X3w5Iy4yXE+8QwyXGcWwEs3NAMTuB6dK3bFndACIQW/2mm6SzeCuTmlPsG9DZ8+MGxAAAEABJREFU/U7DxQSjDSXF73OE89nnwm1m0OfYy3MIt0TDtYYnOsojyDpIgYA7BATCnGzuGmaCalCLjvD5SvIhaFiH+WlQKnZaHNDHxd8LGjYE1pIdglCzP9tyLffEwR2YeyPh+MOC9kyhm1eE6HBlpuk6iD9E0fGuDsLtoBYO9IyTHiMAJBv0W/iR7MLekOPxr1+ImbWZgkQiiUMp5agCwHGQm99XCuDB3oD7VFZlCtPG8nIhvDsSqv2pPMDeg+Sr8CwkBYUQ0JCDUtc4m5om2Y1/5pwVK120ZOnThM3zNTIH6DhFEw8NnuELek5n7dn/cZRG9tIdElxKTaVvxWJxT6bgvooyMRnwqUzTtY/PGokpNQaGJNrj2dfm5IBiTrIyoyq2OO7jFD9jb9TN9VeU/TNTkCiP96NO4sMzbHSow7wJ3kMHjC9ntTMiUnnAfQUh/q3DuNkFIvKQBZfj7OyS9/JUOuzBHChiL9u5NaeacSMgmwir4bEQj0MG1z3CL/UpEmnXGfd8rh94OAHAHyz7K2t/JjB+TpaFcgN8CKVgsbBWyHlk5LiuEFtBr80o0Y6RuUpTHlm+fHku3usdc7NYSE8h1/ICAH+UCinwCD8QJ3sjrpEUJaPxN9HLiIZr7wNuPAHA6GZDDNGhm5nU3Ud4vZ749rvIQsAnn5ZO5XHNOdvDJBz5XcAnItWJ0yRg9RqIWDgxGYGEMMb8k15st47K27HFK/aVjtxDAbk+wJpw4kEkkjmRjdtjuowb/6dbs01of1KkVALCotbhEs935srt3WgocUEmmKKu4OHQrIYx2+Wzd8OmAde0C7MvexAHclFp5ZU90XDiUs7wQPbGHMFtYolXuiDV1StLh5bUzQNCGWNuHWXbyA39xaxunFpZiU3tI0yejJriXDWFhQBhzrT97WyvVZYtnowsThydLUBvShepjp/KDc6TXGaVfa6chxR1bqwqvmeuMuhJuLFQ/HZurS+TWSbGu9YXLJvZEWZFRemK4n7rDwOiv3d0X0IY98DpH9FQ/NGqKkq7k+MLusUk5IWG8ye8ISLJdLFhWkwD0HMIsbQAIMbIEOB3Eh7HpwPWbU570ks4nAiqqPyPG19hI15C9jtArOCxxsN4vL/LSqW8vDy5saGJe+z0zg4I2Qe4UKF/RyKJQ7OH6PkpY+H4yYjwNJc0Hys9diGF5kcitSM5P9t1woFodfxGQBSmcTuJkUUwwU3+oKfLukFMvuOxd9Y4EGvlYAdhPYtcO0pyiUuNzxMdj45utg9DRB1UKfQUoa6zlrN9DvZ1T+CApQUASoFYx254nT1Xrpela1ktGqo9WyH6gAUPQ4Y7unh5Fjo0pTLdZYgHHTSiobjReSIAskACsn59UaeXoovrcjWhURadBcERGhJWsYrGP+0emWFCEUegjv+1t27tmJOx6sSVgPDbju9mF4qA9/oqPLemm1poCUjBIzh+gn0OHP7YgcpCsZFROuA+X1kMCO5PJ243cSbFwrVndBOn19zuSQW1rAAQC608jB/EmewNOQR4wu8ve7s7kDlzSI1W194BgE8CQDH7XLjZGxuSR4ypLF2ZCfio8UPXa+CcxGlC7GW5Qajor9dUrxwjC7An4MTC8Umo0nNcFlbN8v/8ul1VULgXWDc8v9maO7dIKHG+WD4nl0r6R3mgNOPlsX6/+z10pCpZO7hYLj0taHuChgvE8FNLSBcnSV27kW8b3smSAO9ptqbIYLbrORxQrFgUMTOVQBET/7j9NlSCtbpC3U5yWbLk2yGjRyVeB9nqxR9ITzH2dF/QM0X06H8ITv8sGBxcz5qMo+UYAtmaLwnjJKjM4x6HmOW+NbAX/2cB8EjmyQvcqyrkjop7OVCfv7SqrpCb2ZjmLWCB7BQE+isTZLQuYIgWN9sb8PyU1ej8uFvC0j4RW0gPqG84hBBmpZ0os4j9EeEZfh/vIKIu6/DKyuGbOa7YGyWzHNrHJihTqTFtbUj75D3numeVpMuXx6xFbdg08HqmbR/2Bh1dy73/LtV1scVxn5Z0CfW6MP1qML8Ok6/mhvsoX8Bt2IynKAuqmtAEGJb4W1E6nHsc85catFXeCs+Sp+Fw4hAW0p4rcOO/nXd7pxza22IOzPaA3ngMh+NHEcFTXHYHe1nuhdX17gtRjKEbQBRDij6/+3x+Z6YzjMZetkPGvpYFoJe665mzMPMfzrx5+SIfs3eIl0cW147PHsBOaTYOWE4ACIUSo5iJv2ZvyCHAR/xhiOVbneJEIrUnsHz9HkfIVQ84ooFe6U9jCIJpSMt5vTt/q+o4kSNnNIzA8btyu2qozqv5KFHWVaSeei8Wih+kEL3K5evP3hyOcDSlYO7HH3431BwE5ZcK/jYP58rrec5V5lDMmwPqN59pZA8QpqfFsRBBPhbsScfjObCefQ4cHqtC8sPulooqmnYlZ250HwkFFXxULH9mrF7pelqh+RuyVpFUpIcl9MJSCDiVP1C9o9KzWg2j4cS1qKOoYAZ2FMdoGBH+K6lpBwWDw2T21pvJGjvO/RmoJHXHOtaFjtKd9IYYDmnOpJf8Ez0eLvtrXNwB7M3mfEmX881e90witQfwtyl7KGah4sSTRc9d9kP2j3O/rgHuz7hL2efC7U2Kuigaqv1JZ+DllcO/YY2BjBVTviEl8Ss6y8cOtxYHLCUAxMLxc7nxF7NsDXEZAf4srOp1BFJVtWZQNFz3IhDdwfdzwR+Nca/1BUvPEuNzfJ4TJ2YA66gfy+Dr2ctyYjjk5ZqahHl6wrJK1gFOrLqukns8r/MtmUKg2M+BIeU4fpcDWtL16vJFq2XSKIe4HKDUhBIBbvzFM5H4DlJVcaMjpzstBoPu5UnNeRABvpwDtghIfv747yh3XEQHRgS098lU6Z+4/oy1D8/0GgFvDYdX7ZxpOuvH73klyEUDlxMuiYaZCP4gAfwbdOJvO8IRwwsutWkBAgmVXUdRjIat54/zFF/Q8wfWPpBRsO7SBwLDPkKAYzjeJvay3IF6kl74cv6XhZwIJ6ssneLUVMf9hLpoaAZ1GinzG5tIwaMBwfikrLZ5H9BQlHp92bI6M2op2lJq4Ep8nzqS0MaUGIBpn7TGmUwdLVbStL8h+1rsMeILlJ4IiGJeQIfaR4N5qqLjEg3VPc1DJP3aYwmDYqTS/3G40bwHKKTdwzi2szgHLCMAuJQmMUlumFF+cwN8ZXm5e4exsGh14hj+ej5i/Fwte/sUdW28v6LM+GQcJjJd5w16WKCBkzm+vI1LEA7fOKjv82I1BuP2OBeN1noJQeztIHN8fTOQcpxYJuYLeERP7GbJjDuwsUF/radqZ2qqVuyqAM3jHqzMeSifp0g5at8Ddlkt+Vl0CicEf5+YF6DQSRxJpnaO4bY6RDqDtSQfRDowHOX3l32IgF0aGNuK0u3/02Lh2lx1lLrNvBARemKelhAAwuGV+wOCkFyNPoPn2zfALBA0j/cDklDNyexZtKKVXmH13/7eccM/bhWYt1MWAuZxZsJmQoqPUhw3kEdt3jDwqZ42ISgizJ7qOJcAdpLCqK0gmxXUj/dVlLZYbPRVeH4LhDLGZLfmwP8R4GDWzrzKFf8OvT++bVkn1M26qs7n8sk0vvUdKTRRmPItBGO4IX4JVDqE8/6CfS6cH3X8X6S6dochU8XVKKwlJoxmqhM+0NPeNaM8sVp60wsAooFBUoRda6O0btZAb2PYQ6ixo5HE40Jtxg/OKD5D7OCIse/0BjwnCvXfDnfzGMDDDs8jwUWcpVH1H0NsdYhwytCSxF9ZiMoF77Zmksf/oVBiFOr620Ags5fZCISnlQeGzW9fFF+F+0Z+QW5vH27oGuFQrvifE++2IRyTJK6qWrETq5vnMjkyV+LUsTZuEjfCXzJuwZyYp6O6kvsxAULbxAfpbigivh4NJ0SD3wI+duyINQT465aALE+aBTIdZGw6lCUF+UzWM/MyfcW9U0nian7RAkbZz43fTcFWM+5jse9HbCgpfp/DpxjF7iT9RiI43VdRNp0/QmmNbid5pRXsrfDMIgCxHCit+GlGOj8Wit+bZlzTRltavWK3ZhUzgEwre0lWx57GDb0Yt+6w7P5gmbBpIWNuS2v8iT1hiEbM+3GpipiHIXNYbp2OeFShtHGtH5I4F43xsuXuo0VHQVznwDsY+45oKD57wYJvWyyY+gKlTwBBtxZQu6MHAa8RtlK6i2ffNycHTC0AiEaaGyzjY6UEsUbd3bKhRSSSOJRSjioAHAe5+X3O6sUD/RWef+cGPntUf9DzEPc622hCskfblhLxZ9Fw/Lfbrix3EOPLKZSuYm5izcjp3kCZGFrqkifegHs6V9IPdBkpw5tiiKZh48B/ZrKDXIZZ5DQ69/z7upSml0DuN7qJG//jAwG3TJPZYPQ3eTJqoqPA78vZjCV1lQjjbXfn9O/jel+86yKAOyWkK4rYNdHo3CAHKPAg044Ct6f6nlouUwsA3EiLjSyMLvcRve+pYgaseIjRUO0lqNNbfO5mnwNH76RIP5DVizU5AJcCyb3OexDwNilg20EIbmyvatx+y8zHSGT1LmJ8mWkcyV6W07jnP6X9fJPOwEVl7A16rkKAhzuLk2X4SU4l8U8xjJZl+oIkq6mpcbkc6r+BhzMkEtCAoIvG/32JmFKh+H15mgWUQ7jT87VU4O1gCBX8ri8Uti1EUCBQ+ikQdrnToYjXnWd6D4lF6i7oLp5933wcMK0AEK1OiOVrnRq2SJeV3BOa6avwLBQz1qPVtX8DQDGfwAm5+c1cXe85sqJiWF1u4OWheoPuG5g3d8tDZCSi2yPVcdGr4AvzO2FKF6lJTJCUOb6scW9oijdQ9q9MOCCEgPKAWxhYmZlJuu7i4tZ5GpaZrCk23dKbSp8EgqO7K1sG95sQlNO9wWH/BZP/hHZCI30/AMwVrcNRwf/GqmsvBv4VD1gnJqJ+yqfGHNEf092q2FhGhUjdc/M0pQAg1H+A9KAEtsdRKbq+urpuOKtD3wFEMQlOAmw7CIQtAHihL+iZOmECSptpDzn++fxusRHSXyRmg4jw4PbKRSKudKhIpNZNKR4DJRwtEZw7cHCB6Mllg4msNuDhACFAzc4mfRdpTrfCZE0WnJTRoxJPcDlOYy/LNWtjvMHSV2QB5hpHdCBW15dOJKSWYUvJeRYR4l+jofij69btJd5ZGfOChjgAhfE0yaTacLnkgCkFAKeq3sKFHsneqPslpBpHO1Dn8X44wChYJ+m/V0j/kS/ofqyT+6YNFg3OsuXuy/j4T4lEIlcuj8bCickSMaVCiZ4K6iiGgWROLmNNKF3mDXgMNd78LHR+JkKd+pTUQgOcHwvHTbtigxt/jIUSD3GZxTg4H6Q4IqBLvRlqY6TkbBBEdCT8gbJpADSVoZLsc+EucSmJt0CFCBFmpLHqkBjEC2vCKyd0eM/CgT2ZdNMJANwzK0cAfvGNsp3eQQKF/8RM12FG0TpKzzX+B0oTVpYHh7KeDfgAABAASURBVIndAjuKYvowMQGpMVV6HgF2O1ktg8KoXKHPioYSwhRxBslyH1XsnOaA5pnl5RJz4+LCFb5gmRT1vXgmLAScJ6VSblNIvDAaqZvJxPIn1uZGwS9qwok7AUE0dvJoQfiVP1j2V3mA+UcS7xRX0oczb2pzkjvCoawJq1IUXQiuRjcsQp2Uh8Vwa05otUGlc4DfLemYWQNyxaRwz0zGGL0GgElCEEtdcmKylrEfadLcE8r3d+fmw4T8/cQEyYH1m04HYpW4vGxd3Ht5Jlqd+JE8SGNI0Wj9YJWSbwFChTGkNqkJAK/0V3ikTuATQoDqSpyHhC+BxB8SXRyNxE1lxjUajt/CTBTDUfJKSnidT1hclIdYMKTyoOcDVFP78/e0OEdE7EJCA0BgeJ8Apm+fLRsH/YKPPcT17GKYSgCIRRLC2t9BEliuMsZE9rlwKa6Ur/IHPJeJhjMXGRQCc+SEkVuSunYCdw1lzpLuC0gv1YRW7leIMrXOc/mi1QNRa3xdcuMvspjOwz8y5qsIrDa+vLw8ia7EaSRXO8OPBK+KhhJ/bpNZgS4iodppLHjeJDN7BPy9r8Ldo8ajvd6dvx1Q3yAsBz4mk1etsPhbhUNbXWd9ysMuN0ajtTIn1mZNi52waw6YRgCoqlqxExKIGaldU1zYu3UI+kRvhVssTywsJTnIXexO2Kg5j+cKuVoi/EAdlLnhcCIoETMjKB5W6tdQlHqJALgXlVHSLiNzQ3O9L+iRbcSnTZ5CCFCdiVO59/dqmxuGL+jqSDj+R8MwBgCi4cSFzEPZgsiD3qD7NwbIMm1SIaTz+3YhvwtiqMTMk42LMYUPmZaRGRDW06OaRgBwqeqfuYKWaX9d9rMLOUjbz2uBpURGCi5MFqdAF0uwlhrBaZe2RCF6PVq1SuaM+3ZZdHzJgmVf1BUxv0HuUATSjdzQyDXj23ERQAgBGxuahCZgB3PCnSRJK5gF7l9GQvEZaUWWHCkWjp8LRGJ8HmVBM9AT3oD7Kll4ZsUR8wKAlCOZPtMuN+Yh0qMi1QmZqzm4uLaTzQFTCADR6rofc8HOYW9W93RS0w4ZUzE8NwY6TFZqsQxJR3USkyXTVrobVG1eKLRyd8bNi1uw4Ntil6LyGDodJjNDArjFFyjLq7bqoINGNDRpqeO59/eOzLJwo3lzJFSb1x5zNFT7EyL4B5dDZv3z3Kp698ViFQXj9njnqyh9BzU4kAtqWoNjiHSfMOfMNFrU9XyyZX6AWXFLWP3iQcmHOTHXRfzfXE4DRB7j9Zwt1OPmIi231AQCO33PFYyYR7FCYk67qKDMW1pVl5NVGa3pFO9V/2LnM4BweOtww+cEf/IHPQXpNYt3kBQ4DgjeM1yOVgAI+LtodWJ6q6CcnUara48ERLHs1CExk7nF/defJZbOScQ0PZS30vO54sQDEeHfJiV2WJGaEku6TUqeTZZSaBboyVKueGjfQtPRQf5rWEV5tC/gvrODe70iSFQwOipiXW9cYoH3Sin6Gx9/+N1QiZhtoETjT0n3swB4HEj94T2+Cs8vpUJmCOb3l21K6k4xWfOjDJN2HR3p9kgoLncmfrsco9XxA7nxf44FGGkrc1gb8wEpdMqoUaOM2rRvR601LsvL3RvL/e7Tma9cj4JuNqoJ6Mqw2M7dbISlQU9viFJQAWDJ4sReoMB1pmM0QQxU2s9XUfam6WjLM0GBQOmnCsFRnO1a9nIcgjfpcr4p1uTLAfwBRWx+ozeVziGkE34IlXCGdL83UGqK5U1b52m4+JmQMHAloXBbIRDgThYCLt96Jfd/TSgRAARhjc/o3h6tCfuwqFg5RghFrQN72zmyrt3HHRUE5UQAWMfeTE5RCB8UJp7NRJRNy1YOFFQA0BT9Xpm9ga1FMvYfCV8qTjoO8fnKvjCG1HNSl1d4IqSTMOqzUVapuLEJqJB8RczQl4UpKpkiR50wJWt4D4nWNBHi37x+zzRR0bYOL+R5MDi4HtQ+k/j7kbliA/m5PBCrjl8qs2yRSN0+OtDrjDmYvRzHQrrqSh47enTpBjmA1kfxBktf0VHZHwA/BlP9sHL03nXCxLWpqOqamN5xt2ACQKS69iwAFI0KmOTH2iq6szxYetKo8UPXm4Qm05DhH1e2iIhOguZ9D6SRdRDq+JwMy2Gi8R89KvE403imNOq2Aj3m85degtzL2nppnv8+X8nabSs2lkikimVgeCgaqhU2OQzDxqrie6KuC2ucHsNg2wBYSFmupHDS2LEj1mwLsg/bOCA0dsWN6ni+fJG9eRzRbeHwqp3NQ5B5KRF8ioZrfx4NxedEw/E3+fh8LBS/ORqt9cqmuiACQLNRFsSCrkFux0jRiziFVf7TuaI33ThaO1oLdumvKHuLNQFnMAFN7GW5iQ0bBxraspaIlH32TohZ5efIImorDs1Zttz9UzO/E2LFBo+Bi4mOMpdtchuLDzcv1dvKiKz+RyKrdyEVxG6Lw7MC6CgR0bcqaRN7ggXOjoonI0x0YLwB90kEcAvj8YH/F94NZEFQ7u6jOSxTIaDF8CU39ncqpH0OhH9iGoR11iP4+BN+iDNAwwjfn1NVtULacnkpAgA9+qiTbr7jEO2W23+uzfj9I/qM37+emvH7/2kzbl/CPpyacfsH+ozbX+DzP/D5RcrmFQ9xoeRVCgyWreOabrlC+nhf0PN8thi9KR0LAS8SwVlcZo29Iac7HZAaUAzJIf1O6jsm+dWien3horV6ZOFaPcbHD/n61UVrtQcWraErPqynyjnEzUm7HLnxb95EBgmmtLtl9PLZ1fWecyZPRsPlNEpId+l5DDyhb122+Xl3cTO4r/Jzfmyrpm7HVFRzen+KnnMMRc65jv1jFDn7LYqcU0WRsz8hPuqR8xeOpEeWePDVkSUYAies2xEk85AEqerEMb1kOW7m7PkhBQutJFarsOJKfKubf7hTwDPUz3gstuBXVy+dffW0pbMfnvbx7NenfTzrI/ZLrv54VpivF1z18awX+fyuaUufuHjasln7FJDavGYttKAuNfEqZ/pr9kXsO3LcXMHpLlVdJDRrHUXINCxrAYDuu68oNeP3p3DD/ry+Ys1aHek9IGCpBacS4FEIWMnEjGHvR4CDCEBMULmGz/+2+7svn7P33H9BWWwRFNev4igFcgivp8C1f3nFMJm9pwIVJn/Z+is8/wbAnwLwE+d/mTi9yAnJof2hYcRQ2LLz4Obz1MC+QC7nzowmVJc+fkfERj378/UxAHgFID3ADf3/dq2nVQvrtSc/XEdHzWFhgMOwJpx4ABCEZTSQ9eOG7z+r692WWlYWEMs2HSmxYkPm3BWVG5JZsW07O1LoghIKnzuVG/h3QXOt5ecjKqzfM9/PB0ChhRjHx70BYBxCavwAXDrQjW/CCJwFo5VbYG+8Azz4Brgw82+e34lVOuqH+/2lnzC+7dLkgDdQ9i+F4CCO/hX7vDudX5Kv1QS85YrArD5vQ8jx+V2E9Gf+pi8FoKOYIGEmfAwB+Pn6QH7OJ/D5rwDxr0CwjIWD79nfP+2T2SIeR8+Hy38emzcNEubEj0wz5z1JhbcjkdqRacbvNFrGAgDNmNFfu+WOafqaTV8g4L/5Yf0EEPp1mkMnN5wNm2DoF0thj3dehD3/+wIMXPElP/9OIssPJiC6c9mn7uODYjKVfPwej+gLuh9DwqvTLajWr6i5wd8yrKS5109qxq+eyKqE8zybhyFeZ2Hg88XfNLxJiLJnrb/Wd8D6s624plzYi1c0TQgBMit7VaX1szeHr38WlKbvueJ+hB+EsBnv4GNGrggT4GYBYB/8PYzER6Avpk3meiDlmEBgmMy5DhnRbuXI5RWeiDPZVMkN6tv5KkcKNFji+Ab+VfQevOkMw1dKHJo4LIv8hab4Z6DTR6wZCE9bOuu802mO2OslCyhzJolV11Ui0UUZUrcr6vh2TdWKXTNM1yZ62rUwt5iYmnHHeToU8fgE3cMo4sHwwbjrs241jPjf/GZhoDjXGgGELUhwvhjvt4J61zh3c4fgrXDfhwAzoIuf3scJDdzTbywdCELl30XUTG/tlhrY5/CGXYaA1l/OsnJ+L94o7r/+ZCuvKS+vHP6NqqMw4PR9pgxtH1/hKtvDDfZovNVZjF+fyvf7spfi+uOnsCfeB7srf+XhgS5XmG4GwhO8FaVVUjLupSD7HrDL6tXr3EeJjk+uWfClWgtz+rwHixzLYDNukZYdCS0BwuPDlzV+NG3JEwdIA24HlPdLJKHBxCzy3V1T1XeXVq/YLYu0zUnSEgDod7/bWZtxx3wEepxTudnnxBWvWwUj330Z3MsWA+clPw+ib0FTDvFWeGbJB++diN6g5xYu+Y4b4iA2q/e3lJUA8Vg/x8mJE5qExp0GgBAwQMnmG2oha17/dZtPsnLjv70kY8e5P9MAhSZgxfawTI/F+C2MwrtA9NgRU5kmTzv+AFgKeyt/gMHQoV2jJDf+p/kq3O+mDWhH7JQDQqslOj6IMIUjNbCX6jZjI7zmWgxvO6PQAEmp2O3AKvhb/2Dasll3zJg/P2NNVDusgl8SkPhWs6KDa7zdUqjOzda6arcCQNOM24/UU2qYMxL2+rMiMpNESDqUfhKB3d5/DRyN8qRHIHiPVKj0jStdnAk9dtzuOeANuKcTglANN0fWnSpsGb5V1d8ckId/YoihYfhg0F2Z1wf8br9PCp0sdlvLA6l5ySIYdC8nRTkcEGozzXAoftDcO89mrD7TvER8BRphF+WfsAs+xeS2CBsaAJ7Ljf9rYP+kcsAb8Mzm+lDMLl8pC3ilsgaeL1oIK5TVsiC7w1G5DNeuLfvunctr/lHWXeT07xck5i4Gc907pdJbsVjckylOlwJA6pbbT+YILzGotGUHjJWW67e6Fka+9xK4NklZkj8zqbuP8PvLEmllbkfKiAOISD6/+3JWL/5d9PYby0pAsro/LXrIoULjsBLQil1pxd8WaQE6sUdak/P7Sz8BhSaxgJP2rLtSfAuG47+5Ieb2dxuD8nUYjFUwUnkUVGggRLzEF3Q/k6+8e1s+vgrPwhQplfygFxkt+9dqAuY6q3Pd6++MzIOcqnPhVUufHNVZBAuESzBjTfuSRv+t+ShRlkl5uX3vOHpqxh1n85jos3xXzgArA2XqXJs2wO4fvAbOho2ZJt0ev5Erkot9Qc/UykqUuXZ9O7593MYB5jM1jvQ80DC8pEmo5bcF5/3ALQckSweC1icNIQBhkatYObq83J31C5b3AmaYoc9XFuPvWMwu7tZozjB8EcrwlQxzkBu9H3zOQw9/+Kocf/kvucg2WnsOVFSUrijut/4wIbi3v5fu9VdqHN5yRCCFerpJchCPdkfU3/nZsicMz4rPAXFpQNLyNCJ1H4VwtO6k1zPZZ6VDAaDpljuOQqDHOMcO73N43pyzYRPstuANUJPJTPNcwWrdH3sD7r9nmtCOnzkHPqynkRrQK4DozDy13BSkICTdA7sYhTFsAAAQAElEQVQcDuBe8UfJlPPo3mBKtrzCE1FAP5q5vI59h64U34ad8L8d3st3oBPXcUWuP0vzD8t8PCffxFo8PzHnxVdRdjESTuOitIy/8Hm3bqWyBv7rjAEhdRs3DxGGqYRvXLn876V5yEtqFgT4skRAf5PTOTcUWluSDqbSPhL97ncjFJ2e5PCCV+RMQ7Mr2rgOdlnMlRM1X6bzb6FDUyr9/rIP04lsxzHGgVeJiojoWUYZxt4UTggBjSwE8Dj4DvTwaxRWXMljxKY6O9zsoQHlwWH/I52EECCsXrYpZT/4DDz4apswE1wcDYN3+Z0J6OgVJHgr3PfxN3M4FzatnT834RZ4yxkBDQrZ82dq27pRSsrxr9OzXibYFixfVxrpD3Je8rSQCBUOSL5RVbVmEON26doIADRjhkNLqc8AwtAuUxXgZv/EdzD0i5p0cp69sSF5xJjKUmkTXNLJtDfHGVqv38Xlr2BvKkcOtXklQjuioq5k05G90Y682M8BAYQQ0FLZOGAD7KrM4k/eVBX51keGdA2FzxbGYrZe2/9zygG/3/0eKY5KAOpyySUBwXxXDBpNOaqKE4Yva7w2p4ySDC7MeSPCZTJhuZOzv8vR9PqyZXUDusJtIwDo4PoZVxCmXV/pXroYXJt36MBsL18KEKfzeP+Ugw4a0bA90D7mlgMfraP9SFjry202WaNr/YpA69tiWfMTpQmPEmuiswa0eEJv0LNARzyGi7GJPQxTXgQhBIhzE3qFv+mZFJmSsaExE5bFEiT5/UO/G1DfcCghzOqM4E8c30Ec13Z22wzhN01blrkZ4UIS7hUrMxB+K5UGgvHJzforkUhtp9+Psj1Duu02DwCKNd1g1p+ia1AW21Grz0LLKh7vP8oXcN9pVtp7Il2s9ldYrfwol63lPeJz07mmIeL9x88cmjLB3kQGIBBwvw9EJ/XDz5MlUG2659WOoF0BtWvbhdmXOeSAWA7r87vPZ+FrOmejsW9xW7jXX+X4rOXapCdFoMOfTUpbp2T5Ap6bEfC2TiNkcwPhUEXH12tqEv07St5ScetNyi85wkD2pnYDar+B4rbWAiMp0Pfj8f63TU14DyRuUT2cRABBsxdN56GAhp2HPmYPC/3wpHwVZW/uqjz+MQA/wR+CzXlG+HOqOivvS5HNyYz8UIWI5OMOFel4POdYz77ZLVG/hkawwIIqhGOuXjb74Gai0/pnjkjeoPsGQLpDJjX8hR+iN9FzCxZ8W9wet1kAoNtvH8w3LmVvCbfTp9FmOonwX0lNOygYHJa2UfHmhPY/SRyg6ZKAcg6jO/GS+UT2rPJtnKbIOeMdtNG/7dLsh/7gUGTv+WD2MpuCPv849+uqjvsxMUubIAVLHd/yqTUckW6Z+qk1R32Bsuv4+g/sZboj+xe7nv9y/pd9WoM2CwB6I4gtI7ucLNA6UaHPhRagz/q1t/mCpWdVVg43x1aXhWZKnvNfsJaCCCAqhjznnF12TOuufdeCPaFsO/sQ/m/7qSWOCBcTzWiuryxBbw8iUpiWdhUr45eo31QnrdD7b+E9HvuL2NMjWi67ODHbLW/APZ3rrIck0zVpQ0nfJ4h7zttxmz8oVhGctz3ACkckHUq+WT4hFk48Eg3FH7V9/nng3LRF7AthhdelhUalMXmv/a7EH11S/c3fCJzntjDGGie7fhPe/wX7+eX/Wxc8Tzbof/zcsXK4NV6VFiqVvbHsGUG/1bxo27hdFkvxmyfrtpTI+MnpsVBdy5wahWbc5WZJY3/juPlF6LNuzUGc4yW2h4LwQC9yeJn3lnJM856AheEXM6ogz6mjfPsqX1yE1OTie5ZyffF7MR5tGj4y83oNLdzzv2QdbC7jMlvKrcFNYlVbN8/JtHWC0NKJGcxyeY70u9jiuE+AKhpowvgDywDi0jq+75o4iFUB1qG451Aq1tcLb7USESLoLiFUW41yufT2A9PP4u6wwP3QmnR3WBiLBa5Q1oJJLP5lxLmEUs+DFqmM0vSCyCopW5ccKgg03ooFRl2DPutWW5F0y9OsFVm3EbUy7bJenL74tSyovOIUw/egQDKvedqZbeVAnbpu64nF/gujRauUTm3HNJeml/47MRKp20cIAKOtygDXhpbVKVYtgiXpJqdiSboF0VamXdAvwxeBVTfFJHBBnQwW2BgZcqAeWoxHZpiy8NHrFevSnkPuoaLpxysEsFcOM8kpdNHGDTnFt8E75gA51Y5vWCDUyrTLYK8KDeAA61aIRWgLADLeg0wxNiibM01imvjrsSvaTUNm3gkhhKNEV07YAMh75jIyVJoaZcDYGBlygBTx2mSYyCTRrUy7DBYKAUAGTqEwVNhSqKx7db6NkLJs+ZMWpj3HTB/JNTl2aCIwxxlLgVc1C1ikklJSk4Gg5eaM/sBAK9P+QymyPlPA2mPoii0AZP3sjSRsQs1I8oKmbYLOaS8oYYXPfBgLAIWnwqbA5oDNAZsDNgdsDtgcyCsHdBYAyLIDgppq3dnoeX3MsjMjko2YPzwr0y6BSzpYbvl/m1Lr0MaSaZt79kXuOOAk6877cUJntOeOXxZBjrMAAGstQuwOZGoua1dmOxTIIgGo6xahdEcyrUz7jqXJPESDHfYDyRykgCk0WwAoCPeLwFGQfGVkWkTWpV1G+bvA+ELh0VzLWtdI9hvURdnsW7niADZpuYLOOa6VaZfBHI0FgBRYdtoPNIJbBhtsjAw5MEDvm2EK80QfSB0b0zMPhQWiBOENhQCXFSh7w9kmB9gCgGEmZgGATRbWAFiY9iweVYdJrNuIIiSptMMy2YG55UCJhYXGQbYA0NHLQTooLyuEsLCju2YPI0WFLYOGmp3MHkmfuiVp2XKpjfbKkc20uyWfXwPsDDo4LUm71Yl2a9bsbCmAsJM+sAP29/qg5wOB0k8VlRzzmRXE3lJu81AP6CwEWIroHkIsajooFhwGQCJQkrYAsAmsaftrE43qIV+Q9YoxTB8MyL1Fq1FeSiUsMtqTANs9Nw1UulmEKTjjmgQBLBIXVvJbBg5ZwPTOtD0UhAeYTMWY95ZymGz6HKgw/GJGFeQ5dZTvZn23vxM6k3zPUq4Bhr/EBJuGj72JFhc4Z5ZAv5VcZku5IfqAD5ngme29Ra7/wnRuYi/bXe/zlTXX34pARsRZ4mgVT6hA/chRC7wB96W+oGeq7fPPA+rX5zyrvC/b6dRcRVfa74pn6tiK3S9GSlnqm+dn+M0I/0cn2c8v/9+64LmrWPnVnqnhtfwcrOT0JUXfnibot5oXbRsCpJjZ/dhLc0T4L8a+aztgswCg0JanOWA9e0u4DcN2gy39Bv8qGqp7OhKplcogSzDABETuPxjDTMZH7K3ivt4yGOZZhdjc04mid5H7bGTlQPhXxBm6LDgbJ30OhEKJUckGfdEYbZdgESvU009Z2Jis2X7l/lHnfrcjFeYPqQkn7mT6L5NM6dyB6zZdwB1+ht6K3CwA4IwZ9QD4CFjkt2pvbzOliHQG6vgBCwEjmwPsf3nlAALentcMjWTWRI9MQBQStRGUHpMW/bM+TEF/IcSZv0yIG0HRHzA/oT2PwsjixNEqkBD0xzjBAWNSI6xUyDusROx2WqPh2tu5hb5m+7Wk47wB9Zt/MnLCyC2t8ZoFABGggHo3j4+uE+dm9huG7w4Ng3ZqTaKfhYD/Raprj2gdaJ/nngN9vqxzqMkUv6u5z8tIDpjSoPj71RctraobZgSnJ6WNVtce+TVdMAYAwey/hH4ERulet9np7En0EeuKo+HEtajQy1yuEvbNbmxqdyhiQaD5wsT/uFJ65b59p4h5YjtQaeaAWCjxOyCcLpNG/sLfJ4VObt/4izxaBAAxGRCQbhKBZvW66oDasft1RN5QVmu8Ll7Yjm7aYfI5wALXiayBecq5egO/X/LxZSK6Vm/iZo5GpVR9fs1HiTKZ2FbECocThwDi85tpD1c9jTN1EZpgMNTRxH6oafOWVq/YzdTE9hDivpz/ZZ9oJPE4EIketNq6WKLxr2zau3WQGc8bHaD/woyEdUVTNBy/hYB+01WcLO69qyt0tN9ftqmjtC0CgLipjNnrQZacTGsXILHvOEj2HSBI7cg7xAsbDcVnL1jwrbXtnXZUOhOF8ZDL4ajgv5gkp9KYAsf6zXxqTufY1AhqQ+N24vbRnfTGxx9+12sNSMRC8YMUoteYIc1zZ1bSiZCiTr8pjlZIh/AdnbF17T/iCA3VebYAl9vnEYt9P2JDSfH7SDCls5z20XaGYfqQzm4XPpzg5j/te/6nHRNiztBYdXwKEMjugC90FSvHd9b4C060EQBw8mRNdWhnMCGrxU0z+Y2eEbB6j7HpkHRO/z6u92uqVuyaTmQ7TmYciCyuHc9DLi/wO9KyK4tz7WYQgkBmSLmPLWwVuFZvaJ+RL+lyvrlkybcmrsHakyznWjw7FvBfZ7T+7JtdCvrDN3QeP842VUHzvUL/S9DhsJF+6G0y7aOEANcbn10+nkUkkjiUUo4qAOxSLYSAcFiTF/pSEZjw9/aKfYv+aEK6OiWpqmrFToTwYKcRsrlBUA1q0XGjR5fuUAG2htvhq8cbbvhWRziTIyXZm8JtGVAC3437EfB7B2n9ECp0VV0oKry04tuR0uJATXXczz3/VzlySwPC5zxyRFBUtx6EgSBxbQqvE7iYJuBje3oQIKAlXW9Go/WD29/rqdes9g9ue3YD2pdxE+wJtXR8++CCXm+AMZCgozuiwcfP7tVly+p2KEdHke2w9DgQDdVegjq9xbHTmmshGn8hBDhohyaEIQrmPnEo6hnP4ORONyspGGVdZOxyqFfybYnvMy3W0HWEz1fS7UZ/HT4954zr3iTA85konX1BXVNxP/jmwKNAc2YsbQ7nCu+/seraiwtagB6SeThct7eO8AYXp8NGE1MaFMXXQUcNLqfJq+OKDIoS60FJprrKNwha4yu9oSERghur/d9kZnT47DgcVtFhUEcTxGnB/WbaHb7Rz2etRJvh59Z0HdDYQC/YQ32tWZLd+fLly4ui1bV/A8BHAcDJPm0nhgF+zJoAJBap006Vs4grEFJH373P2atylkOugHWQJn0TQFh1NU0KBgfXp0Ou0lkkx4zp/ySgU/n+FvYFcWK8/6tDjgUhBGRJQBEh/jUaij9aVUUZvdxZ5tcjk4nhFIV0sYbe01UBRYNbvLK+oJoAJGru+ae5X8GBjQ36azU1iTYaja7KaLV70WitlxBE49/tkEctncCagOMKWsRNsBd8SZeA3k1bhEAT+he7nhcNWEEJtnDm1dV1wxs2DfwvIF6UbTF21z1wZCoAamE1AV8SKYfds++FX3VdDpPeRZBj4xppmeKAo8eOHbEm3ZJ2KgAIAMeM65/XAY7h8wT7vLpNpcPgi8NO7GrSXyb0XOJSEm/FYvEuG7BMAHtL3HB41c66qor9ItKaU4FNKeizsr673ndO2CfG/Is4b7Uh/dErBDhYT9KrkUjPMygV+ku/lgAAEABJREFUidTtAzrO5V5Bm3WzXTG/jo6A7+n0rnrfXSU3dG8tHABf6lNBh5bpJd3hTdq8YeBT8+eTo7uI9v22HIhWxw90oF7FD3p82zuZX+2qlcIxTeNADAtkntpwinedThp/35hzlhtGKhQAgtN41vgxC/o/9no98UywuhQABJBzxnX/VZx6AAHF+JAIyqknVCAxOghfH3R0Nmr/zmlDOJRSUBWrrqvsPJJ9pzUHqqtXliqkzeWwPdin7VAMB3BD7NjQkHYaoxEdm7ZA0cq12Qke/G6gjs+J5U9G6TBL+lAoMQp1/W2u4MsypWkNHQif69OgEUozTZpVfNHgf0dnw3f6GUyumhEGIpwytCTxV6LCdkEzIrrAkWPh+LmAIOrzYbJI8eiD4eTkgbCznrasaTTrFD/z2wbX7nLEH/c6L60OqtEMc5ae4DuD2J86NDzC7y/LmA/dCgCCMPzNb1bijGsn0tZ5ARlJGCJ9un7T0DLu9f8E6vYJckWA6SbLJN4upOjvRarjlrNjn0khZcStqlozyIEolouNyQavWRW/euNWbQBrBbLBSCdNs7ARX8dq/w2AOqWTpLM4EzcO6tsjVMpLFif2UoGE1mZ4Z4XtLrwBdoHldA3E6WjukUvooHSS4ToIwKf6tbCWKsHA7/xYKH6vgfS9IqnQlESra+8gArEPhPSl0n3IBUcnK2BCkw9yqw3Ahagp+9035rwbZkyYkLL8wyMQwlhWxeAa72sHaZPGVJauzAYgLQFAACMgOWZMf0Lp59gTEK/msO/ZS3Gbh7jhmwMmwlcHHwtbBg6WgtkpCEEf7jU8HgnX3jtnDmXW3egUtGfdqKpa0delNL0E0PVyIEjjpzQ2QZ/v14IrsWELN9CfpJEk3ShfOTY2vi2w1QxU/l2BswrtqIaNA5+z8riymK+hKSTma+zcVVnTuUfkgARNgk/0G5o20ch/AsL6dNKlEYcawb3kc/1q+EY/D5pgUBpJuomC+LOYsKLWTbTeelvYvhg6KPEGIF6bax7soZXB5MZD4eCmMdCP0h7O6Z4shDA3Q5PvHX3OwfeUnxOGjH4mjkyK2JeDsqDwK1XTfjSmYvjXWaRtTpK2ANAcm//hNddsUm+efq8CjXsQ4kkI8G8O3sA+I5fs2x9W71UOn084Cb489HjYUDYCgMEgTz8kvGr03omXe9NSsHRYW1NT43I51H/zszg0nfhpxmlwbt58zP5DlH2J8BAgepTxs9lZbDUAzQLESQeU4J7jdulzpEL0UJo0pBvtGKuOKwsjLvrW+Rq7p1vYNOJpGvaf0j/wu7MgmdyV+f9TTiO0C0k+ZupqgPAmAGXPPv4/l2+m3X6XKUBX8QnoN9HqxPSu4vTGezXVcX+Ty1kFCIfnq/wqKDBa24UFgUNgUjIII7UycLFAmUX+3yDBvezH3Tt6SvDe0ec9A8hXWQCZNYlvXOlipu2v7DNx35BCh5dXDv8mk0Tt4yrtA9K9xhkzko6bp7+gzLjuNAUahygKHcQPhjUD9DACvM4fo9hAYikAhlm0eR8Bn+fzP/D5hV/86Pgnl0+cDLVj9+ce/xAo2I/gaNAaPwqHV44tGA0mylislKCk+1kQfJFHVxOCcro3OOy/yB/ugUPwg/FD1EvHlyjDQMex/M5MRaA/8XvxMgII291RPq8BhEXsX+V79wPhFTpgxQEl6B4/WD1vfAnOYyydPZUH3D8DgkdB4g+3jis/LVSmEmFzCiUma1LKIRrmPSRmpPE46xRvoExYfQSsfGYd+p/6G/qf5IZEGcKC3NHcI5vOz+nvnKdYaSAqMqHl4SO+w+Fz+P6tQHgGqM5hnM6Lgdm3on/WlxwffBXuG/lZyzXagnR7NFz7c4Fve4BYuPYMHZu/q90LwQ+FBYEReikczsMC5zZOgMqmvX7J78Q0fjeE4C6MUn0IgEv4248AwAc8dCiMjN1FCBcpOoy6d98pu90zZsrV7Kv5ftbO7AmL+6+/kmkU3xAfunWfowaH+/1lzd9Rt7G7iJC1ANAak4WBFN50/UKhGVBnXH+5MuO6Yxwzrj9AnXHdWHXG9KBjxnWHKjOmn8zn1/L5Y9B3+OWcfgV7M7i9FFIWxsLxk81ATKFo4IpecamJxwnpBIk0aNzmT/EGS1/pCHP8UFw6vgRnHjBY/eWBg5UTDhisHDx+sOLnc+/4EuVA9scdMFi9avwQfOigwRhCRL09DoeRN+i+nCuMWe3vGbw+baeSxN8EXwzi5Dx5JFLr3jZZc0+JmfGzgwv8FWVPd4TJjfgmDDz1BvqeuhN9T17MjftE9pXsR7Pn4+zDOPwMvn8TN/pzsPyxDjU+voD714w/k708R3h3rLp32/8Qw5tbx/tRPL++8phrAImUf03xHfgn7sXfx735K7hxP4b9+Hv3Pbf8nn2nBO7dd8oh94w576R7x0z59X2jp/zjz2OnfGYgN0slHTVqVOPqevcx3HG+nYWjLZ0Qz9UR/suZbDrAW+n5vJM4GQVLEQAyypEjjxo/dD2X5Fd8ahY3gAj+vfWD6X2ziflZYCyceJgfxlnsZTlmKV26vfcoC7QjHBYC9E8+dV/I955kL81x7/Q85ouphQCxUgN1fJsLPYa9LMdFp8u8Ac9sWYCd4fCzI2/AfRnfFw0VH6Q4JMRHY9z7lYJmMZDli1YPHD0q8R9AFOP93Lk2RQHWk6L8sjCUWCPXCRMw5Q+WXZ/SlT35Bb6Kv41/MuVvckX6HyC4SUfd669wn7nvAbvwUCjfkeAKIgAIurf2LEiYlRWXZvAoPphouO4F8QGZgaB80RANJ/7AeV3CXp5D+BW/zJmOa2Wd/+TJqC1b7j5/20eTNU4HCS+IRupmCiGpg3sFDRLzVxygCDXqWImEsBIILvcFy8TEJImwnUPxM9OTGj87wpc6j5XxHZUIZ8VCdcdlnNLCCcLhur0b+jSxWh1ONFUxEH8TCOwkbeK4qcommZiKitIV3gr3/SwYn+ULeib6Kzyn+io8twYCw5ZIzooHaGQjZoCn6ooYC+pM3ZEBkryoPOZ8fIMr9X40WitzLFUegZKRotWJWxFArjaG8DpfwPMnyaR2CyeEgMZUqVji+UK3kTOIwOOSF8cicVMtMwuF1paAtmUuIFRkUJTuonLPH6/0Vnge6S6i7PuVldiErsRpXB4h0MiCdxLoz8RCKw+TBWhmHCHsKKR/BISjzUUnVS37tFRoGAtClp1p5xwomAZAkDR2nPsz0OF2cW4qj+AFDf8XC8UnmoouycREQrVXA9INMmER8DZfhfsOmZiZYImGRHHWTSbAlzNJ121cwiujocSfu42XhwjNNhog+QYAVoLEHwFc6wu65e5KlgF95eXlyWRKOxUI3ssgWXdRiwmUF2pCK/frLqJV7wvtFGvxrmVh50Uug4Q1lYwiz+k60hVCOJcHaSPJ4kBBBQBRCMVVx40FfizOTeaHcIX4mviwTEaXFHJ4bPsibqxl99If9AbdUgWKbAorGhLVmTgVgF7JJn3naejqSDgud9Z655l1eCcSqe0nbDTwu7l/hxGyDWStjT/ouSvb5LLSVVYO35zUnSfws1ssC5NxBuqgzA2HE0E+71FO7GNRE0k8A0Rcj0LB6/P2zOU65n5WXYsVYe1v5enazqYrDhT8hRGVNRCKSUDUFaEFuqeKDysaij8ljOMUiAbp2cbC8XO51/AXBkb2UhwDPcFjVldJAZMAIt6rjQ1NpwOBmCAnAXErBBL8MhKKz9h6ld//4h1EHV5hNblMGw3MIrqhkFqb9lysrByyLkUk9iBZ2v6egesShej1aNUqk6nHsy9RrCq+p95EC4mAhd3scXKWEqG2UXPcnDN8G9gwBwouAIgS+CpK3+Hjk+zN6s5yqer7S6tX7GZWAtOli4WZk7jC+AfHl/bsGe8/q+rdF4vJXIxrGnfQQSMakrrGvUn8r0yiEODmaLj2BpmY3WGJrW+dqoOHNfDH3cXN5D5L3bf4g2W3ZZImH3ErKobV6ahO4ry+YC/LuUHV5oVCKwuyJl5WIQQOC/GTSIX/8Xk5e1M60vFKIcwVkjg77645IK0R6Dqb7u8mNe3nXLGu6j5mwWIENVSrrDyhKFpdeyRzTywtkbl72ty+A9afLZawMLbpnFApk6Ifz4S9y16eI7w1FkpcJw+wcyRhnbF/sfNZBJrQeazM7xDC3az2L4g2Ix1qA4Gdvlc0TZTZkLWzdnntooIyb2lV3bB24Za5jIZqL2Gh+xUmOMd20zmHLB0SvOGvcD+bZXI7WZ44oOQpn26z4Yp6FVdIee1VdUtUuwjcW9qJuPKIVSdMo+puR2Knl7FQ/CBAfJ4jFLGX4pgfH5BCpwgjFlIAcwTi95dtKm50nIAAUsciCej30VBcGLLJEeUAovHXmtz/BsBjQeoP7/EHPHJXf0ilbyuYMHWqoyIm48a3hkj5v1dK1ecK+/hS0PIEInar5PeNtXcoLF/KFOJll6CBHHS5bNDM8ewU3XHANAKAINTrd4tx6QXi3KDXOH26ZhU5akbOQUj3RsLxh0XlnFHKAkWOVddVcmP9Gmffj70ch7CoqFg5RjSucgBzi9JsfEotOppzCbGX6e6IhOI5qezE+yVMM3PPX2gwpNHM7+99vqDbMuZyA4HST3VEMSegXhoTAMqbXK7XrGLzQ+zzsKGk+H0u/wXsc+E2g6TVFwh4q89XJnPoJhfltTGZA6YSAMQYMvcopzJdTeyNOBWAnKyGOg8QcmJngLEv1ZpK3675KFFmhNBcp41EassJdbG2eqC0vAhiqjN53OjRpRlvAiWNhiyAfL6StRq4DueKTqZdcUSAByLVcTGRNQuqOk4iTLlqSfcTJNc0MxDi33x+z9Ud52re0EDAHSK9eWLgRnlU0n4NRanX+BuRJxjLI64FqSYUP5g0B2uvcFxLoNyT7xDpDK4rvRJgP+nTf53s1UVZkWUn6p4DphIABLnco6zh3qoEoyv4Y648NdDhcMZdyV6644r/YN1JVeHwSrlLsiRRumRxYi/UcS7DDWUvxXGZlyspnDR27Ig1UgDzDBIMDq5PgS40ATUSs0ZEeDDKY7MyMEXjP3pU4onmSlkGYAsG/cPnL70EGbglyEIn/nFli7iD8BNuqGQK9QfxN/L88uXLpQ2NyWSpeKd0gLeBIDcdDe71owMqdV05l+kuYW/EkYL6ZWYfEjRSwJ6W1nQCgGBwk6bdzMcv2Rt0+CdwFC1LkVLJlcYig2CdJd9ZIeXdaCiRK9VcZ/l2GR6JrN5FU2geR5I32YnoW5W0ieX7u2sZ17JOzDDnhuQILsBS9rIcy0b4cCwcFxVp1phEpHDj/xgDnM1emmPinvAGPD/lxp/bE2mweQfiDsLbrAk4gzM2qiVkiBZ3ZMPGgf800+6PgpZouPY+ABTj/S7IzW9mUncfARr4WSYUPDWYCz1WHhgmdqQ0iCMjuY2RDgdMKQBUVg7n8Si8Ip0CdBPHg1rjbcK2cnG/9Z8SClwAABAASURBVIcB0d+7iZ/tbe490D+iofijVVXkzBZEVjpWabqRmkTjv7ssTMZJkKpOHFMx/Gs+t7zjhiTBPZ/DAWmZxMIoRPBYpLr2rGwwufHfvimTISGig7yfWWXCZZod0JlWkL+i7EXms+CxmOuTVpo0Ip00tCTxD34GBa8TxQZPQ0vq5gGh2CI2DdIzjtLIguDFvqBn6qBBn4l39v6MEXZMsCZFJDYf2vGOHWJaDhT8Ze+MM74Kt5i0ZtimOw8nTI1Wxw8UailfRdnFACRjjkFnZF/iUuPzxAfcWYRch4dCa0tQx9e58pBm8IR7j6t01A/3+0s/yTX9+cT3ej1xQqeYYS5zwpLKleusWIY70XHDgzXhhDDDe4lMHnBD+Z/V9e6zJ0zAlEzcQmP5KzxiZcRPmQ7+xPm/HHduLBT/i3gWcuAyRwmHE0EVlf9xPZWr/QtWsAblMG/A3dwZatgwSKy82jtzStum4Hf+GqFZaxtauCs75/Q4YFoBQJCPjpSQgI1O+hFlbOmZ+4JlM3mgSqh/EyIP+R5/7EBlIffC826gg/Psp0DyZS6TTJOn64GUYwI52ImK6Sy48/uHfrdtrflXEolRiXAWawLS2pFNNDjc8NzHLZnUiYRcnuebdPeZPa3x53I1O1/Q/RgSTmu+kPUP8aJYuK4gk9j4fTmLu+MfsMCdK4NjCx2aUinmUgh2hcN1e7MG7BpxbsQzve+X+0v/YQTDTlsYDojGsTA5p5Gr17vzt/xy3ZJG1K6jIHhdjoQQJprj+f3u91i4qAQgmfbGm7G3/duTe+ELI9XxvJnoFJbiUFdeZn4dvI0GGQcxFHOCt6K0SgaYWTHEWnMHaYdxAyxzeMPJvaJnWBPQ7RK+WDhxByD+TCZ/kOCN4v7rzxSbI8nENRuWt8J9PxDcLJcuujqaR0uPYtJntLr2Dn5fnuJyFLPPhZu9sSF5xJjK0pUCXAidiq4/zOc8fMn/s3cp0OEKpp0/n+xB5Ka00dLlgKkFAFGIVfXue/jNCotzQ57g1tYmQIVwMaC+4RBCmGUIt/PE/RHhGfFh88eWUz6LeQf9i53PAJBMtWESCE/joRi5FvQ651dB74ypGP61DiiGA1ZIJMTFmoBno9UJsYa9Q9hIqPb3fOPX7GW6ef3XbT5JDHvJBDUrlq/C81um7Q/s5blmS4/xnBtKWrLk2yGjRyVeZwEwV+PnKcae7gt6pgjT2NsZFA3XiSXSh2+/zvZIQHd5x3mi2aa30xWWAzltmGQUTagvCXUxbq8bxOurgtJGtTdywsgtPr/7fPGBMLbMCUUM1+yQsa+NheMviS1cm0Mk/xO9B6dSx0IMHicRmnmB5/q2zsOQCGtuqGDQvZwU5XBAkLnKoYjVrM/WhFcKk7ZtGMCCwa38gsg1J0zwHil0sni322TWwy+8Afd0FuYfkVlMAvhDVNLSzo7oikZrvVrS9T++J0x080G6W83vwlG+gPvO1shC6EAgwwIT8+drUOC21thmOLdpSJ8DSvpRCxeTx58/AgJhJdAoESdHqmvbjMsiIokPhHQUqlqZlsZa0YrHutSmj2KLV+zbKtDwKWsWcN9RdY9wESQs4WkhRwha5/uCbtYotIT1mhO/mOio0CQEWCWx0H11Ul6OVtf9eDtmtDp+EwsGYgLW9iDDR66QP1BceKzfX7bJMJjFAJq/Y7/7cskrffg1wIe5zhArDqRyJBKpPQE0fJ9B92CfCxfRQK/0+8vebg+uJ4uEQOBuH57ptYL0M8bvde9apnwyc3xLCACCgUndKVRkK8W5Ec8Vxf01NYn+7TH849yva4DCoI/MteGts9mbFHUR9yh+0jrQyHkslPgjq+DETGgjMK3TEo8dX+ELep5sHdjbzn2+shjzQfTKVksse19A/ZVIJHFoNBz/BWsZjM9taUvcQmGaubzcbXTSbFtUC13xt03LPvOIVRQyhVeFcR9vbrAl8EII7dFw4lrUUezLIc86ZyvaiPBfSU07KBgc9lWr4OZTLscBXGdc1Hxh7N+z3kCZmHBsDEV6ahswEw5YRgCorByyDhF+nUnhOom7q95EN3Z0T6iAk5rzIALM1YvNHzz+W1QAoiLoiIZ0w6Lh2tu5EflFuvHTiceN3jXeCo9UNWo6+ZoxTnmFJ4KkCIuB6yTS1w91eh0I7paIKaA+LG50HG0108yCcNl+8mTUivuvn8K4wgImH6Q4JxLOYU2AWD2UNaDYdyAarnuRtRR3MEgu6l6Nca/1BUvParalwhetnZgrhBoKTarRvDfoqFrOnHRrXtjnWzlg9EXYipKn/96AZzY3em9JyO4XNdVxf0c4QtDwBUpPBMTpfF+ow/kg1amiAoiG6p5maTwrG+SRUO1vgJrpk0YYAdzCjb/shkkafYUA8laUVpFOQghYLzH/vhKxgJ9bWHUljxWbHcnEtTKWmPy4sSF5EpdB3gRWgj6I+KLQ4DBuxi4USoxqKEotRCAx1Jhx+jQSrOdOxSmsvfsD08mvxY4pXI66XwCCYXv/rEG4MRDY6fsdcyh8iE1BZhywlAAgiqYRXsYvsVFb4A4d4VH+YDosv/iAmucFKCQqEZmVvyhCsxfj9qwG/ICFgJHNAWn+i4YSVyDg79KMnlY01vvf5w96ZqQVuZdFEmumEUDM4t9gwqJHXcmmI626L0Mu+SlmvLNW5AQAkrmEtS9rcF6KLq4blwnt0erEMSz1f8RpxrDPhfsUdW28v6Lsxc7Aa6pW7Modjxs6u59BeHRNvUcYrMogiR3VrBzosAE0K7GCLqGm56PhGayMcUA0HO9yLMzvL3sJVDqE48q0FMdwLc7PQsD/0lUtRqrj53GFdl9Lajknj/ksuDucnKKnh+INehboiMdybPOMryMtQwdM2veAXWTOU+Ai9hwntCJJTRfC2xKJpRoEiv5aTfXKbhtz7mBglMf7AUkMKRrdaKeTItArPGy5v3fc8I87idAcrKuqMPe7w9yn5pvp/9NZIzZVrMxKP0k+Y9p5ZcoBywkAooDF/daLtdOGzdIi4J2RSG2Xs2HFhDBWse7H+b7JPhduKGscXm+uKLpAj4XjpyDC3ziKzGf27LLlbrFBDDGu7brgQCDgfp97UCdL0D51kUvatz51pNTDhSnjtFP00og8Fr6KFDqci2+4vmCM7a5UR2VuNFrb6Qz+L+d/2ScaSTzO70yuxvuJse/kYdETxbDldsI6Ooq6g8NPZG/MET0kNGLGQOzUZuKAzMYkb+USY3wI+qWcodGGawj3wLvVJggVKzeUR4sPjvPMhXMw9h3RUHy2sOjXPgP+gCcRwVMc7mAvy72Y1Nxni0lTsgB7Oo6vouxNBPhJgYWAz1KkTNhu0a2n81xG+fz+sgQ6UhMZa4dZ8RyWrdsZNJzfrFpvhxCLfT9iQ0nx+0ggJiO2uyvlciPXB6fz+zgdEbucp1RVtaIvxzU+twehVsOiDidPSymRBBAbInMOWFIAEMX0Bof9l4//ZG/UncdaANFD6BJHNJTig2O13tkccTP7XLhz+vdxvd+6UqkJxQ/mD/g/nFkRezkO4a0B9ZvP6OlmYuUwqy0K97jmkoYnc2gj+3y7bzTQJ4rdLfOdsdXzE5Y/VR0nsvAm08jTrqxanxeLxT3b+SMmCVLKUQWAGc0TgPR/n7NG48CtmyF1n8ilqmK+kOFdQRHo6mBwcI7spHRfDjtGbjhgWQFAsIPHQH/Ox7XsjTiWofHh5cuXp9XA+ivKntYRD2HVg0y78T/Qj1DBlcrCyOLa8SyYHMDivdgVMavVAj+AtjpDWKQ48KTeZimuFQcMnwqbEYggjMM0GQZLF4DoW674Dwt2sLY7XYjeHm/sOPdnoNAk5sMa9rLc3pSCN6LR+sHRUO0lqJNYpdTlsGL2GdM7KdIPZI1GTToYPETh5Xgy9piY6w2U/YuxTOxs0rLhgKUFADEGyr3j32RT8HZp9m7YNOCadmGdXvJ4cEhtwvEsBHzQaSRjN4ajgv9FHd9gmAHs5TiC6mTKeXRvNhYjh5EArAl4DpGEilesvZYF2xnOd+CAw7ji/7KzCHZ4ehzw+cpiLEiJCZ0yV3X4QWv8GAAfBQAne+mOEO5ettxzREXFsLp0wFlTqcDWNf/G6EHYwpqTK9LJ045jPQ4o1iO5LcW+oFt8dAvbhmZxRXhDJFK3T7opy/d3166pdx8mltClmybDeEIjMSjDNF1F/xSdcGx3E4a6ArDvteWA6BUhohgSyqUQEEddm8QN1xdtc7evsuUAC1IfcsUnVgfINGPryZaeLtNxAwyAF/oDnl+JYUhI8xcNJcT+KQekGb3zaDr8vllz0nkMU9yxiciOA/wdZJfQLKm4AtZRBzEh0Kg6tgh1PaMldmI5jD9QNg2AxMeWNAtPOqDjczFxTGhMOrhnBxnggDfgnkOAFzMEj9bwf7kuoZB+uLebJV5ys+wdaOVBzwcIcDKXthBzOTjbtNz3/Px/xJ2cx9KKvS2SmJOACDI26fl0wLrNd22DtQ89kAOWFwDEM9m2HeUD4tygnxQL12a8sY4vWDaTFBS24xMG889F8u9Y5WlPHMsFZ7djKiB657loSBJqkxbfno19lMsBb9AzjwjPZdRcanAYPgu3dVfHivLgMLFbYEYAlAKx6+ngjBLtGJmrNP3SkRNGGjW6tiOy9BAbMFsO9AgBQBTeVazczMfv2Bty3Ju7JxRam7HRDr/f/Z6OagX3Kj4yRIDcxHXcgziKVZ722LFcvragicmaqNMrHFDMXrYrT7qcby5Z8u0Q2cA23lYO+CvczxKBMAiWCw3O1kwy/z9TcdUdyd9txh2KWGjlYZydmKDKh+wd12OzygPD5mePYKe0Agd6jAAgNkJhtRer4w2ynaBMpcZbs0ER9rH7128WW75mpLLLJq800qwjRTm6vGJYrnY3TIOEnh0lHE4EUcFXuZTyJmoyWGvHFXFAS7reFLPMW4fb5/I44K/wPAGAV0HhfykkvMoX9EwtLy/PeEhRrGQiUB7hYvBrw/+zd2t0hdKeFJ19NnJS2ijZc6DHCACCBd6A5z/8Ab0kzg15xMtFzy4bDKEy4w/4Qtg6LyCVDYaENJt1xOP9/tJqCVg2RAccqAklAgqRsA5pVNXaAfoOQUHQG19dtqwuZ4LGDjn2sgBf0P0gIP2igMWuQ9AneivcwmRvVmRs3jjwOk6Y9kRmjtuJo+nZaB86AbODTcyBHiUACD6jnhLrXo3O7lW4Z/fo/PmUteU9MS8ASBHzAuoEXXn0SR3hlIAwXZvHTHtTVrHFcZ8OzY1//lTzBOOTDfrrNTUJo/bce9OjyqisvkDZnwno9owSyYkccpC23zbjZlkhit0GWQN6bVaJWyVi1cFH3JESJsdbhZr51KbNCAd6nABQXjn8G0DMSoXfjpG+ISVxQ+tffRWl76AGBzJuWoY7OJ5R10QKnRYIeIT9AKNYdvoOOCCWipIKgr9DO7id66CDqIlei0Rq5RmGyjWnBROaAAAQAElEQVTFFsP3B8uuB2qeRJcvyp/a2JA8eEzF8K+NZKgiPcx09zGCwWlTCDgVEXU+t10v4ECPEwDEM0umSsUsWMONLn8Mvw2HV+0sMLP13krP565i5SBO/xz7nDpEmsKqO+NDIDml0rrgovFH0v/LFW1ZoUpBAIegjv8Rm80Uioaenq836P4VIczKcTlTrG34uS/oOUdsXWwkr2gofg6/k0cYwRBpEeDP5UF3WJxbxdt0GuNAjxQAhI17HfEyZg3Xl/w/ezdQIe2e7JNvTSkmKHoD7lNZMzGdQ3T2OXE6KecuX7R6YE7AeznoksWJvVDX3+KKtmCNf6tHMGnjoL7P20JAK45IPI1EVo1CILEDqETUNlBrgOgY1jYYrluqqtYIY2Ey1up/g078bRsq7Ysez4EeKQCIpxbgMXAElDGWdVo0lDhWYBrxrFYjX8B9JxKKJWNGoDpNy5XW8Q2u1PvRLrYp7TSxfaNTDkQitSM11N/mCIa0QZxemuMe6lEbSvr+s6qKnNJAbSCIhmp/opBeBYSjc8UO7vlf66soExNIDWfhUpruZJBh7A05IrrSeibCDRXZTswc6LECAJcNFFejmBSTEOdGPH+wD3EjYHjcNRqO30JIJxihpdu0CF7Q8H+xUHxit3HtCN1yIBb7fgSr3N9i7c2IbiPnP8JPnErin0Ymq+afZHPmyA0gRsMJri9Q7LyZ09UW3DG5L1pdJ5YLG2JGTWjlfoDwf4ZAtiZ+zl9R9uLWU/t/b+JAjxYAxo4dsQYA+aMGQz8E2A10MLTpUCRUOw0IbjJESPqJh/DYx2tbK7T0E9kx23IgHF61M6Uc8zl0JHtTOkQ4ZWhJ4mlbCMj+8YiVFTWRxDOslr+DUfJRJxYD6i82N+CcYTZOPG8dFLEPilF6N2ugF3L5YzbFb05j/zPOAaMvj3EKcozgDZQ+zg2vUN8aygkBrxHLv7IB4Yb4Qk7/52zSGkijigotGoo/VVW1oq8BnF6ZlDU+blYFz+PC78leltOI4HxW38ueYHba0JL4k3PmkCqL0N6CE6uK76k30UJ+LqfmucwDuQGfWxNKBLLJd6eSxNWcLsjemEO4MRgc9pUxEDu1VTnQ4wUARCRdUcSEQKO22h2gwINCVZjJw+YG+Bwg+iunQfaFcGe5VPX9pdUrditE5lbMs7p6ZSnqyEIj7SuRfgKgy/wVnic++dR9IeM+yV6iw8mjRyX+yu9nj/+mZTEtFo5PYpFJ2Novl4WZIU6JDvSGWF2SSToxLMUv082ZpOkwLkEsmXJnbXioQ8y8BdoZyeBAr6gsAoHSTxHwj0YZxh/dIbFI3QXp4kRDtT/huMIscKH5HNRQrYpttRPOJNmuMw6wtmQnlvTe4vtj2ctyhASX+4JlfxGAkyejtmy5+3wWTv8priX6C6KRupksBKBEzB4Jxd/mJdzrFxNy82HJsSseulHT5oVCK3fvKlLrezwsJRptowahxGqkqWLFVGts+7x3caDQDVPeuL2hoVFsj/m54QyJ/ih6iN3hRKprjwBEUcFnbU2wuzwyuc/Cy04EyrxYdcIMNs8zIT1vcUOhtSUuVXkdxERKeblyOwM/81Z4hI32FlQhBDSmSs/jgBfYS3NIdHEsEr/XFgI6ZqlYOhkNxf8BgGL83BTfJiCOUPnbrPko0e0S02h14hgAEB0LPmTveBhqpq/CszB7hMKmtHOXwwFFDoz5UYSxDUS4XAKlQxyAYrJQp1DR6viBiPg8EBi1zNVpHlnecHBX9F6uAB+tqalxZYnRI5OJ9dQqNM0FwHEg8ceC17X+oOehjiBF70tx1k0mwJc7up91GOGVsXCdMIaVNURPTBgOr9p5Q0m/d7lsaWvxOG6+3F66g+Z2tfMja6f6AtKDEgiKo1J0vQQcG8LiHOg1AoB4Tt6Ahyt4miPODXnEC2vCKyd0hFFTHfcDglAtGlXRdQQvK+wSran07XR6HLIyNDNOJFLbz6U0vQSyjb8QXseNf5dGWsSub6ozcSrnLd4ZiWyiq1kQvVsioKWhakLxgxXQqpjP+5m2IKx50pOu15Z1sulTkarOYNplrEj5pc9XspaxLOpssmVxoFcJAIJpKVJ/zsd17I041El5oH0vOhxeOZZVa8LAR6HHFbstGwIcrDv0j6KL66T2eLvN2GQRxBIwRUeh9j9UJmkE9BtfhbtLTdH2/IQQsLGh6XTWBIglh9uDjR8RfhENx28xDmRthEh1/DIdYD4QdKtiL3RJCWD/ZAO9uGDBt8WtaYlGa718T8z8bx2c+TnCW76gR/IE1MzJsFOYgwO9TgCoqChdgYQ3SmD/GGpy/3I7jlhOpJAylz/SnbaHSTh+BrpSyRqFRRKwdoTgsUdQ9A+ioYQZVaI70is5RKhUtSZ4kZ/ZITKhWbia4Q+W/T4TTDFE1aSljgfA/4LMH8FN0XDtDTIhrYIl1spz2e9DhIeYZif7XLiZQHgsf6Nb5IHTYf2LXS8sX768SGASkQIaijkkRsvQCClV7JYqYC3rbcLlcaDXCQCCdeXBUjGO9qE4N+K5l3cjS+Z7hHlskVQQa8aHG8Frk5boWw30ib5xpYuL+60/DIj+3ua+vAuuZOgfYl5AbzIrKypXl6o+i0AdDuVky15CuNsb9GTV666sHL6ZFJ2FABDj1NmSsGM6wltjocR1O97ouSFiou7Qkrp53DhfmaNS/j97TwLYRnHte7uSHDsHdhJLTjgDGHLYuuKSQEshQChQaKGQtNy/LQ1taQkUWgKlEGgLSTnKfRVaCHegFAqUmwDlCOBYhx1ISLlJYsk5nNOxpN333zixsR3LlrQjaWXt+o13d3bmvTdvVzNv3sy8aUfEn3Jv+my29DzHv88fMZ0EB1kwvW3ziA4HT43ByFmM9CAOhoAV3XnuutHLDCGxMg8qCRSlAsA/XJ171ufwm9Q4GIFSSODfFNLEsjEZY3OdvKxWSTms00FHdXV1u9tf9VO2XMzmBDIrGUbXBbMcavTZpUu/HNkVM0gvROPftmXEk1w8MaOaT3KAK9hrPV7XhUaweTxVW2Ka/XsAKNang6yDldWrQoFm4yZkWQxlEU9TYPU3bKg08Hj/oVkis5IUOqTW6+xSyt2+KrGaQ1jSeLRBGtUTRle03A+AV4PBAwFWjGjdmtKQlEFSVvYCkkBRKgDi/YieNSAJ06C4zTwgHMaZ9+cgC1oVwGMmTXb+rzfCWr/zJlJQ0Iv0fibpfroWc7wXCjXnyzGKpGIkRyOsHNyzWggERyVPlf4TQrrJ43P9Nv2cO+eoqxu5IabZpnMDVr/z08xjEPD6cCAqFN/MkZg8ZzjQfIoOyuvM5m4csgHv2DTlGx5P1U4WRLcYW0cUvXWSRZjN/8KyYFgpZzy/HDdtnMRhClkltPDkUwJKPonnm7ZjiCr8+6/MNx/d6G9UQD+yxucMdovrcenxOP9Liq1OduPQjcg+qOM7oYbIid3iBsWlcJVrV0SPCriHLa9IhHiP2+OS2rsWSoAGJdNZUeGerDRekb+bm/ndCs+Y0pCaAZF4t+GGZu7hopjg1mMCnUT+HtjcFjt8Yl3l6mQ43V7nP9jaIiYaJ0uSj/gH2YIoJifng7ZF08QSKGoFYPz4yk08HGCWjTDagJTv1fjGDGj69XhGfTW8te1gQmDzYFa+rmGI8JioULnnMCi+EdFAjK+OLkCkH8qVGP3D7amchYxYLl4An6+iNQG6sFQ0ScTNrMKt3FOeJRFnXlGJYSt+t88D4kVZYiTBuOdwD/90MVkTAPol4/FV3QgIV/abKHcPNyZI+V3uyFmUCkkCg6JyNyJwHsdbSIByHbGkz1AMAE9y+yuF6RJSOYQ5z+1xngmIczi90bkMjGInQMZ9UWMw8rRwkrPT0wKKEEoMNxDCJfMpktm+r9brOotbVF0y3i50fv+YFh5vPpwjPuAgCxAAb+d3exoU+NG4JOLmYSuhNB+RjaKwoNaw/L/DPfv56eB3e12Xc95+fUCkgy/TtEhwkVj5lGl+K9/glkDRKwDi9dopIZbGbBHXeQgaNyCnu33O/6RLm/OR2+ucTzqKmeOt6eZPLT0e41Dj7zUuWSVzY5zUSEtIxY0/NgajtzMq2Y3dY2tbnVlt/JnnDvB4qqJog8MASeYMboUI7mVLgGylqIPnXPwLhZqPIwX+y7T25pANCLEF5hss/1d7IE/xpsbrvIiHcITL4RRzyE6G7/Nw4l2ysVr4Bo8ELAWA3+VE/9jPedzO8ExbRpUuEBKdXet1GvJO6JnsfF7VUXg4k9lL7F6W/UhRF4camqWOnXcnkI1r0fg3BaNiyadUczc3nE9w43/KtGmYyAbffeGsrXVFCO3T+dknHGSBCoALGoPNkodFIKuHeK/hYPQi1FGs5BiRDWJE+GhM0w7yGdgqVyjotT6ncD/+UDZ4HACnpiOczTxkzTo1AH3rcQFIwFIAdrwk1b5GmOuy1YDuoNLjxPUYnFPrr7qnR2yGN2LVgKNUmcrZ/8UhGzCCK5MnQ4HIXGYcs0FAJk7BY2MwejMB/EImXsb1ZFx3/iiXjT/T7AAx90PRNOG34NOOCDn/VCK8v1CUO+Eml9/rE0A0j4ufjfpL46EvHu+vPFn4ZWAavSGte/7N6MtWOM/gTI9zyB0Q3Oj1OgO5I2hRKkQJZOMHVIhyAOGOlRT8OTPPbQb/zzYgXuzxu4RpWholMamRrQknigqMkWZD80du+S8PB1oeZvPrUKZhWuBGQjQQUpe88XjqC6XDNv5IbOKTr4LX1I39wkbaNP5IP5fIgx0RH2sMNouhJIlo5aIKBKLVsTZ9MWM9nkM2YCOP95/g5mE1lgeLWA4JsfOjYm85FRCel4NxACxEXyoOvHyAVNZjSwJgKQDdPgKPxynGE+/rFpWdS4Q/ikomG8hFxSVwc0UmKsmN2aFBP2Tz61usBMh0fiSN1VCgWbjhlT3z+aVhG7YeL5wySWM0Q0RiyEoHFMMBqzJE0Vc2B1sC/hkORI/p62G+48IN0aNVoPeYj4kcsgEfgaZO4fH+p/tFnuFD0cGIJbQTgTrmLGSIJbVsqODsmhrn5tRSW6mKWQKWAtDr7dtjceHJraVXtLxbpJvdXtdl8hD2jamjIlNJ+LiXOWbcnZiHlYD32XQsZqh3j8/rNTcUf0RAuW5vudJmheoEsfIir4XrRtznc64gRTmMe5XN3aKNXjoA6PGmJDtdGkWeSX4xlBPm8X5AEit1yjPBMXAeejam2Q/ItptcMaQQ0+3HsYyXDMxTximeq/W6sjUMmDFTVkZzSsBSAHq9lwlTdluLRHIbkK9p3Ffrcc3++ja7V253VaPqiInJgWKfgmwQG8UWh+c7KuhsYE8TZ2Mgcjk3FJemma3f5GwHfovNqcewQpWvVSJJ+fN4KpeDQkciwJqkidJ/UKqT8ky4oeWQ9LPKzfHpok+H8FDOgiyO9xPjns8N5veE46UUuDecRNCJabrw7ZCN+UZbWVGVqb4XEgAAEABJREFUOuxluMAWAlNLwFIA+ng9hIp00zk3lI8sW+H8KZ+5TemDaJaiJk3afd3aVqcw6/41SyRsXInOCwWjdwsf+1miMSDacEN0Dgt27oAJ00jA+N5S7XiUmc2pQsnD7cMB69Io2kBJywD1p0NLmsWk0oHSZuW5GF7aVF4mxvtlL9/s5HcTIpzo9lfNQUS9MzIXZ7YErNFRPZJpybXOIWzUdeLPljFbYEkgBQlYCkAvIXEvksdWSaqHPSR4YcjQDf83cyZqvcjl5FbMWHf7XL9hc6pY8701G0TZavLTtk0j3m6qX7VHqvgXfUpD3l5LB73bSj99d502b/E67c7FrdrDfP1ox/U67Zp3W+nst9fTIYuiNCwZXh7zPw+Q5C7jJGhAteQ4Mzf+nfKo8TmDCqAYipGpBAznseTnmwKrhQWpk1SPMwXP2JWCpx7L4QIKnnIzhU+9h0KnLaTQqQs43E7B0/7AYSYFT55ExIMVPXInvwmFogejjqLx9yRPZejJx9xTPoh7/umZyg2R7JnZ6x29UqzoIAB5kzkJqlRQXm5oaBnbk5p1Z0mgbwkofUcXZ2xjYPWh/IMUu3qVyJQAKfioGSaPefxVDyugH8pl+4qDfEDw66r6DvfepiRD/sYmqly8nmYvXq+/WroLrVcUeosVk7sJ8SJAnAWEP+LrmR3XiBfyszsUoNdK7bSO87y5eB3NWbyWujZ6aWyI/pp7wNcno5dZPC3R0HG4212+PrP8uc8llADS6btMWab1ahcdFFYCol7G2wHcsE/taOxDpywH1L4ChKc5XAuIvwKCnwDQDE54Ooefs1J2JYdHAZUmCJ8W4byPUPDUE6hphoOf9wn8Ps9FnYTjHWefCYxHvqg6YgfwkI5M98oZcSVWdCCA7KV6+9hQf7G+ftXojJiyMhWVBCwFYMfrDgZXH0Cg/Jtv5W8kQnSNWX6QYq+BmKb5APA1yM4xlntvrzc2NP+0O/r31pP33XXao44EreRG4gZ+Ng0QhvA5VbBzwm9yg3I1KPT54lb92YYVG+cR0o0cjxxkQdgeS3zH56vIkmdFWWzujMczuWoxC0Jscbxp56cZx4wkiL+6KfiHK7gBF+PW74Bo7AH3Sw8jVXL6HwLCE6A5VrEi8EeqP7mrkRLDR+GG5nt2vE8bp80G3MXDYd8Vw2IZIJeeJbQkKuYCiNU6snFPcqjqy+Fwa4VsxBa+wSUBSwHg9xkON9cqpDzHl8M5ZANG8Q/yqmwgzgSnGINc21o5nSvbmzLJn0KeEkK8OxyI3BlqpXHcc39cB2rguJmcVzTkfDIEbBSAY2Kjh13U7toFdbtqCFlXZqRlaIMjxUTQrrgCu6j1ud7WEcWcDynLwEZAGPZXrq4Yhp+IlSuy3EGPYkXgUrArn1H4lEs/DLyzV9vmEa8DIlsQsiBwhG0E+H88DHa2GA7LAoW0Ub799pelqJDwUpl23hQzeEBrf7apKZp06CxFPFayQSyBolcAli6J7gsavsDv2PCe24yjPzirKRD5Zn8JcvlMVIQeb9Vs7o2fzXRjHKRDYnjprDaiFYz4RA7cOeX/kkErdcC2sRUQLx8KYIzCR7aEephwuQsFfni9zjeB6AQuRhuHjMAGm2Av5W7YU7kX7JC1kZChQPjHvZWHV5TBF0mHjTIqwNeZViqkf9vjcxrz7/E1PilXw8rslzGibO1hwKg74EA9Tv8Sqyk67qx/lgR6SUDpdV9Ut42NK3fXFHqJCz2GQ7YBdYA76utJRg9YGq9uX9Vd/BHIXU+uIMScIyA2qqPzIal73k+REVkBKAO2BgCpXJp+kiZ59L8EKdMm1lWuTvK84KLd/qqXWSzHs1K0LV3mh8LHUK1cB8NBWPzTzZ1+egeste2t3Ayj8Y30M/eTgwDeUuJYJ4a9+kmW80c83DiJFZ8LckT4iE3lZY8sWkTZGlbJUTEsMtmQQEa1ZTYYyTXOUKjZSQmbaPz3yiHtGocaPT+H9FIiVeNzvaWDWocAwtNaSnmSJRIN8LaqckiUSZ1HmYxcj3htCFsDxpQDpTck8IUG+vTBuGVqrdf1ImkoLAHtPQTVz80IaIRxeCfYQOZcwn4I7niEoMEYfBLG4hMcQxwMw12qveWwmgOcMhwlGWamEwERseVfvYXvc9kR+P6o8ui9TLto63uWtwV9SKAoP4hAYH056CjM/vv3IZNsR13OyofpXOiKZUnDWrcK5y/3ZiqAzsZfd+Svs0E2FYQCkpISQPQlKXSoz8COb5nKKlf5xE6RiHAy04tz6Bcq8D0QJn/EnG1yuBM/o/BN2B0f5viMlQAezqJZYrxfuN9lRKYCHgb8CQCJlTi55uvUxmDkblYCMNeELXrmlUDRKQArFq8doUL8Rf4VdC1tyvHrKUMdb80xzZTICVe3XHH+mCuosznDgA0Gp+kCYrN/hwk+vd53V36ZF9sVkV1AnPvB+xW/h2keT5XMnfX6IZe/R2wJ+BdRhxKQtGUfAUthV3yMmSQO+YVyrN9hCUibjxYE/Ts8rPW3tHP2l0HSsw/f/WoUIcr1V5EWb/jjcCgiVuCklctKPHglUFQKgJh521YS/zc3cEmdm+ToVR/N2rgwzeaIXHpkuAK9C0iZzrlS3hMhNno45LPnz7z2AFJVaHeOAODuL+x8RFDXjqytc32886PBGePxu/6JiKdy6XZSAkqgBXZXHgCEvPipYpZ2hlH4FlTAuzs/SB4TUDStrtY3JlvLW5NTTvFJ3GG/lpOK5ZB8yg8g4bnhhshl+aFuUTWbBIpGAWhqanIMK7U/DoDCzA35PkinG5tMvETH7a98HTU4kOU0oMOU+Igy0PIw5s+89Qt6ib1jcmCvRFGF9MNqJ4/9sFf8oL+t9ToXEuBZXFCdQwcoEIc9lH+AAilPE+jIl4t/Y5UnYAikNIT/0Oa22DeFY50s8CUFpfBuyIjO5JB/QLgiFIj8Nv+MWBzkWwJFoQAsXEiqHq98AADF+mgwxYG4ux6jK0zBSxImRA9ZseOBiPDPJElAZ5N/orws2eO8x8d3KQOhCAhGeNhnDY/5H17jH5Ob6e2CqMmCWA6HiD9jtjqUgEp8EVJsZDlLbkEoJ7spDzNR4tAnaIA4x+1znXrQQbtnvOSxT8wSI0XnA3W6g1HyJ8j/TQDMyPxwMCKG+kzAjcVCviQw6BUAIlLGV0fFxDbholSWnLnioWWGkSGc2xSI5msuQkrsC1/4NR7nDCC4nDN0NBp87oL4yGEgxv+7Ikx4EWMema11SHAEj/kPaNHgtIMa2BLwdwA8l03/VImvgZmPUvgSRuJ7fbG4ln/b33F7nfP7eigtTgIiLT76QkYzkYNRkKm4IhDcFg40n2KUKSt/4UpgUCsAXEFgOBQVE+5k7ihGBPRzTOCx/NqN9jpsOtAdzKep3wP3GMntd10JQD/gMne5mRU9a+GIh+NMDXqJDdqdI+fX+F0hUzOaQ+bcPuetuysLAghaDqlmRsqJLwBCj6kLYbbkfMPjr3olM4y5yxUON++NgJcap4jvK/YWH/ZjjcuABtc7eC8rAd/PIK+VZRBIgD+AQVCKJEVoDESu5l7fz5M8ziiajZEXeXxVdwvzOGvQMmb0TmErwKyMmMlxJrev6ikdlToA7Bg/j5vY9A+9Dq1MPZkVLewVXbS3tPS0fUthZbZ225MqVzu0QgW+D+JAwqdL220HsyUnF6s3BElDgTRF7FVhdH8RXUftV2JZI9pauMdOzxpiqmdmOwAuDDdExR4SYB3FJYFBqwB0zHQVO8zJfJ8El3l8rms6USqOFjY/bm8MO+MyORPC/ELZwtPrrfyotF2dSg7by4XQ++/2PrzvrAMxqbFbVBFfJkCM/2bfS6MkEY/EtwGI5tf4Ko+vnjpqoyS0WUXTGIzOZDu7sBQaooOAN3u9YzrGQYQSsLktzsOZ+JohpD0zOwDpcVYCvt0z2rob7BIYlApAKNB8HiBcIfPlcc//WjaD/7E7TvFjRNB+yXH8mP9nDiNsqF+Tefbc5hQVcFtVOdfIuaVrlJoa33Z9OBi9yArNczRyFITVqfOdl8JKqLWf/xAi6p1xWT8bICD8jbDF6a8GUHRmXTmkXb2s80acxYRHVsLZbL/DLCIijYcyVgL+HQq1+I2jsjAUigQGnQIQCkTPRMDr5b4A+ofb6/xdXzjFumMEuL+vZ2nGnRJuaD4izTz5S64gV0D5I58RZZt9Cvci5xV7GEqfXq1i+4iMZJjPTLoq5qDkk4OUabcNif+JE4/lYAiI8DyhcPdGIuI0sB/J8QEOsmAXRddfCAZXT5KF0MJjbgkMKgUg1BA5EYHuYZFzm8z/5cADtV7XWdzzoGTobLH4b5jgmmTPU45HvL0Qdu56dyON4jLVcigoIFUBsufPTbFZhDUU/2cWVtLkgw5LM4OR5BnnDS9pmQyEwjKYMQ6REQle8Pidj4vrvoLPV9FKCh0FSMZXJO0gwJXcaIWUV9gSkA836Tu4sE65ksCgUQBCDc3fQ4SHWXAyxzWfWtvq/DEOYHacMGW3tQT0e6ZtFPbdWF42xyiSbOcnDb7FNAry29GG2Jn14oah8EmhCmAKNc1wmJl5NvsroOhi5ZFqkM82stGASoTHUxUltE9nWp9xkAUu1PUXP2hYtacshBYec0qgICvx3qIMNTQfjgo+yvEya/cXS4dt/OG0adhj/RHT6BPYSnA3PzA8Ls6WhDnBYMt+jMu8QDDBvMz1zxnZjdbL/eMvhKclGC0ENvvi0QG6Ldt76G+nm+H/pkDLOZx1CgdDgIB/dLurUtLUPJ5RX2mARwJCsyGiPTPvkVCU50OhZmfPaOtuMEmg4BWA0JLmqdxDfxIIhkh8Me8odjyxurq6PVWczIPO5jgxszqeap4k6UoU0u7ingQmeZ7/aNTNraD0IyG9yBUABWJghw39SMjsj9C0pumm96JVhHSlBAkuHzJsQ1rzmHw+5wpQ6EimvZaDHCAcjzq+tHTplyPlILSwmE0CBa0ANC6JuLnnL9bEDpMlWB4DC4Ja8l3hAS9dnGyOa+JWW8JuW3hIYzB6Srr0s5leLFMMB6IzwoHIneq2xEnZpJVN3GIeQDbxmx23iluZRf7K+X8hwir9hNvENyi+RbG7XpbKkBFa3a6LNf/lGWX+OhMpqP8inc5HZ1a2GDQqgGIicWtnnISzW4s5/rNsWctwCbgsFCaTgGIyflJmR5jJSYEXOYNM7XS5YoOj3O7y9Yw3I2jXtLmcUYaTkuvC4dYKxpUXEB7MQg2RM7ZXtpFPbKivBKCFzMwsPhdsZUDIKhoXolhBoZSNWqYUEb89MbNefIML4w77Gv4+P+Zwp1AI6utXjc4X08Fg5DsAOBOMHkT/qPGOWZQpmhqfM8gy+i7n38JBFkxpb6OnPl30qUwrqyzeLDwGJFCQCkBT/ao9FNJf4nK7OMiCjxOkHFZb64oYQVhXN3YrEIpxQCNoRF4X6e1XiYtchO4NfigQ+Qw0/J+/Dx4AABAASURBVJjbyvuYNle2MI7PXVDQjSjXjl0FKcILhIJYRp/0zSBovZ+JOQH8jdJCh6q2sDLQoRAI5bWxceXuvROndJ9morff/rJUIRAT/9LMuVPydQkgw5OAa32ut/kzP4GxS9P2EGjapvKyp1asWFHCeC0YJBIoOAUgGFyzq66qQkPeQ+I7+IrH76f7/ZWrZOB0+53PMZ4nORgCJJgVbohkxXudaPDDgeZZoWBkQTgQ+RK6NfhcefQ7+xf1wjUhIxUu74Y+ph2ZdTD1JPodXCY/aTBg+9OhEAjllRK2L/jb/nj7N94864MszWofXloiVgDtk5zrFJ8gXuj3j2lJMXW/yVgJEB2kH3GilCYxc7pU4Mitm0Y8tGgRWWtpU5FWAaQpKAVAmPgU0oTZX/zIZYm3BXXtSB6/l2G27+IJbYlz+WYzByMg3s+d9fVkaHWD2A45GFw9KcwNfjgQWdgYiLSIBh8A72Ql43QA2I1DyoC6nnJa0yUsYOVFhiw1NOqWXgYXmePQIW3+997+jeOdCVQ/4+9/FYeFYfFbCDf3VY+kxVww2LIfAYnd/tLK1zsxK91v1noq7+0db+Te7XM9yWX/CeOQ9oNlxeoHo8qjdxPxACwjtqCwJSAamIIoQX39ul0cqvI8MytjW01G0wEbSFGOqp08tmNzm44YSf9qa3f9kn98cw2jQ6gtUaJCmUgZlWjww0taJocCzbPD3OCPr45GFVKagBt8AJjBfWBDY6WYkFafMDu5BYxruSVoMmoalYGWfiNqmlLESPigMsTOGM4tfOnfCWz14t9Hl0IglGR+ljJwI4iKrt/OGQY0S3Ca/iDBIzPnIHKN0V+qDJ7V+l338+/91xlk7S/LmdyJEBMe+0tjPSsACRSEAsA9/zKHEn8aACeDvGOLjnisx1PZIA9lT0xrNjjFjyTQMzb9O0K4MhBYvVeynMIk16vBXwOKXo+AYkUCV3Ygc6IkKAXciBYy78nef7rxMTCk/6VLTmr6dqiUio+RdSkEQkkOByOrWSlY2KE8sxItGnlO0yc0BlvOBATD3gkJ6Jraya5wn0QkRHp8rtuYxvkSUH2NAvFX4YboH7+OsK4KUQKmVwCampocDpv6T/6hHSxRwG0I+rFer/NNiTh3QjVtGiYU0IVvAKNd5jIVlK6NRTob/HAwelEoEH2aTXJrezX4Rpci7VSW7hHYLnNYsTvm7F+rscLlXZZ0tlK/UzxkkZGORzT+WbdeEFQx4zNQKM+sRDcGo83iNyZ+a0LJZoVA4eewfW08zRfXRgL3zj8HBf5sBEcqeT2+qhu4THLpIF3KSoDhSYup8G+lyY4EOj7m7KA2jlWMfVPM+TgQHGUcWxeGGACeJDbxgRwcNb4x7zP/f5NA6njumdwVDjS/Nqoiukk0+GJTGwQ6lnGP4JAzUOIJQM2oTpMzdrsIiQmAyjajfpq60BXsxRbYtyB530xZ9z/Vl1ycHb8xonniN9ehEDRE/qnFHI9wYicHQ8CN8i89niqZS/aS8lPrc15KSDclTZDJA6SrQ4HILzPJauXJvwRMqwCIcewSW8sC/mCPkygmjQhPdfuc/5GIc2BUtpKLOVGEg1H4GQAewgpF3tfjqm2sR0FhHRhLbATSlwBQUYfNsE+QQOHOZ2G9v8003gwMVyLCD5gR4X+fT4bg8VzXRW6P6zwg+rshrntlRoCbQw2RM3pFW7cFIAFTKgBsZsMJ1S138FksY5ElRq7w8Kz+dteSRag3Hvd2x0IX9I4v5Ht1c3vBsU8Oxy/cvqq6Yg+TvHv7EPR/FtILFJMXN8H47LKcW+ybdFTPyy1JAESkZf9zzWIlWDj1AkmHggj3sBJwoiR8FpocScCUCgCPt/2FgM6SKgOEC1nblrrMJh3+3D7Xg4DwSjp5zJxW3RYrtMmA69RtYNg3AwyWA0FqLzDbYlkP32DDl5ptMjnDz/XbH7ze0StzRrAboZkzUYtprtMI8Jlu0UYvbawEPNQYaBFeCI3iKur8jUsi7nAgMr8xEPlvONj8IV+/xeHOcEOzcPMsVTamUwDCwciVbFK6UGYpEfASt9eV1uYaMumLHbU6tGOCjTLx5huXbWNbvllImT4S3V43FremnGGQJ0T3g8/p4JC+/DUbYiNQYQ0ckg3U3XHm8lpHxFGNgdWHCi+CuSTcSauuDuMjWrfMYCVAOFXrjDZ6dhDoC8MN0W8bRVSM+bmdGBoKRhaQAkEA+B0BfAsIhdnrIL6fBYgvhRsib3wg0aGVFAWA5l47OnHF1Sdqc+fN1+fO+5c29+omDp9yWMchyuHjxNyr3uXz/doVV19MV151MM2du5NLslCgeTYQ/IELKw248b+q1ue8WhrCFBA1NkZc4UB0RijYfGM40FyPOjYjwuOcVbjn5NPgAHXzNlASmukLgzrBkK/WfStfla0ZBRQMtuz3Fc2sMiNvvXlaR1MhTuW9owv5XhH1HIGyaFipY6OoI8INzfO4ATiuvn7dLrkq2Lhp47bFtcSxCCBzNVQZID3dFFj9jd7lOH/pwpHnfbjgB7OX3T9v9of3P8GhkcMnHNZxaOHwMYf3zv3w/gf4fMmvP1xwyK9X3GTUx0JvNkx5LzZbQg3fQALhmI1fSRI2EQ5OoPpeMBj1JUmRVnTGCgDNvX6kdsW8cxJzr16sQzzCjHMDR6y10PHMwSQOe3EQm9mIhbt7I+ABfH8af/hX6Tq+oUPJelYIHknMveoYWrhQbQxGf8Jpupa6cVoZcCs3/sJNpwxcSXF8UN8yJtytwacErBZjbEh4Lmz3XYAwCA/uVYN93RbTl8y+fgugph/Cle2Tny6yNjRZuiS6r0L6og3kr9hEE0z9/jQo1aMkcxFQkuLmL9oGoo5AvAh1/LdDja8VCkGoo/MQnZHtDcHE3iXtmv1Yrpdl+kMZoYPyYpAbqfMC/yg/d9mCn3OD/pautLcQ4D+Z1kUAIDpDNXwW+4yIdkI4pxCeGb/BleWpHP9nBfA1JVGxnhWCx87/cMFxcxctYlnBoDzat+r3AoI/xcI5VaIXxVBBiumTJlOSPknygP70p125p/9Xndq/AKJb+GVN4aRp4+E8ZRx+iIDPxpd/sar8s2V3I2sGHCcFEGBBrdfJDbAUdD2QNDS0jBUNfjgQuZPD0oSqryqGBn+HEHQ+f8DhLgCcqW3aKhS8p8Ckh9IeB9umrqGKIzdVlP2rmDc0ERtpaQoJP/FiVz1YTceDDoY8TWf1zavQ9pOEWrYPEZzJhPibA6kuuxmn2UAFVgi2dx5oIWjtYoOjpVzPcF0TnbHd/wBIPerqRm5IgM5aFkobEtqK7eXvqR++CUNsK7kswluiMGNn0k6Ucl1+kg747/VVK1ect+z+Xww2q0C4oeUQthCLlSUpv1cCGM1DBS+l672yN4GUXwjdeaede/yz9YS6jBu781hbGdobWab3qhZ3jg2+hfu++gQMi36VKZru+f61ptX5U0TUu0dmei02zgk1RJJsjQsTM8VbIPk05rOrwbfH4k63zzWJw9lun/Mx7kGsiSP+mNN8zsFcwKb/kpZNPXkiOKpt84iHhY+Jng8G/11j48rddVV9jUsqrHN8AmiHSlilm3by9qPoefA+t7vqE4/ftcDtc/E359o7QcquwMonAAiFQHybfGkIzJxZZeZEHTOL692FWszRQyGor18les6cxBiITYh0VKYzFkMKFgHBUtsX8HjJW+Jcxg1VGeOUBLQXK4K3KfGKped+sOAYSUjzjoYU/acZMuFUSHm1qWG1+D4yQpGSAkBzr5qor17XwD1+4Vp2WEaUUsjk2LIR9nznRRgbfBMUXUshR59JXiwdtvFk4YWvz6cpRHZv8EOByGeg4ceIcB9n5R8hCJMVXw5aYMHTEupwGIIzQS2p5Ip3EgeufJ2PTZiy29reJT+4HNeTgj/kePNMsuOap6RlI2DfcxROKLFFHxYeFZnnooBQaO1ulLAt4sLu9P2uhwNgHWRl00kmlyEQhECN9bkSSOza6Wbl071dIZhk0xS2ZuDM7d+s8PHArVCGZAsgm6izRYXPdREtdKiqUAg+FhYC0UkRSl6mZfB6R69EDYQSwBbN9LFsxC3wVMm7sNi2DOKQSB9BqjkQ9kHEZ2d/+MA/LgwtkNYRTZW89HQERiZNOllxeykQiFZnwpf4mPrNl5g770c64XucSIzX8Cn7UPH5RzDu9X+DY+umtIhxnf8WKfSD6urq9nQyigY/HGjOaGvcdOiYNC3/UrnSJJrPsvteTLOPcvuq6jzeqtluUclu92EwIOsH7oLvsqlvJidkfPw/z+BYtxn6c1bEPYkTR5VHHhQOp/LMatbJi0mpqHfsorlPMmLCCrCBPMke5zr+U0jg0Vjz2OZUCE+sq1wtvlVPxzdbVYc2GANsIUhZIYCCP8TY+SzkTgoreV+EA5GPQ8HIgjDXaR80rNozndLV1rk+5gZlGueJcEgZPlMi8CQ3/mtxY8p5jCek/4s78L3zl95fmK4tdwiAhzj4e91xk9lprEr6K6IdSzd7vwoAm/zPQaAHASHnWtaQjeth3BvPwJANO3U4+ywjC/G9klLl6IHcahKRIsZNxI8jHIgsbAxEWkQPHwDvxO0zMHeDwX3E2ZS4hK058zlM39wWGyEafLe/ag7L7mkxHphp8aeMxGcRcAb3v7ZlisNwPgJwrN3cfdy/H5Q4c3x19B7xTfSTqKAfhULNTkrAq/zO+53tR6DAl3QqbMi/ErAcdO0wrHtgdaaCr611RborBAnSXaTQ9/h7n89yWMJ4dQ6DGfbeXpfhnQlUP+N6rmvHQ/4edrIA9RaE11v5kULwHY5fz2FAWKGuhFcdYchqrz85FxN1Bd4874P7U51AlxxT/p5sNUwacXdIwGupvN/utJIqANrcq87lH8wtnDhpGn6WVbC1t8Febz0PJZta+6dD0Kg4YkePH1+5qXdC0cMLL2np2hq3MRht4XGTJuAGHwBmcHshZQyNcZkVtnIZ3+J3OZ/D9OGtW7safG70Xz7ooN27ZsjJKMCUCnxSQfwOArRAjg8kAmH2t3096S8VDsTWpn8bjEqAGB9GHYXzqYmpCILABl/S6bCWjFgkU6GULA2+CXH9W+h75LNkKTKJF+PbQrnl732Om61bjlKlXPwWOMwngLcYJyvF/H/wguhhzgCu8/h7+KS7QhAMrp4EfRw1fleIFXnh1KdfK8wy9St4w76Uk3It0weeHEWxggevnP/hA7U5oiebjJzJl6wE8Pt9WQz3pcqg0ldCYfYHwL+CCQ413g57vvMC2Ldt6ZMbbmhWKAk8ctKk3deJBGJct3uDP746ugYUvR4BxfwF/hHASJFuEAchqJf553gFV3DTS4dtHOnxub7VUfn5q14eN21c1nvnB1TgG5qGPpbxGxxyAkosAUNWrQd1a1qjP9t5Q/wJK4Z3sBKA2yMK/38gsL7coSrPc0nSGrojUGAVHQ9f6GeADkM4e06AgHA+rPsZwXiPAAAQAElEQVRqGtY9vCbbFEVHgX8PL3OYI34bih1Hit8KAVzBtF/mEOMwmKFLIRCdoXCSLZDdftc7/Js4HhC29SWMz5QovG2T03b1hT+tOIJyHej5c5vu2yOtfGZIjPiURDb2VvTEq2KlWio4d1IA6Mp5k9jsfw9n3ukZx+UF7G1bYLf3XgUkvTf9zxQdj9FKoDrcEPkDa7YvjSqPboCeDX5570yD+L5VdcT2cPtc07lim8sV3MvpzoeQJZuDRuPKKeV4KAKK5VvZq9S5129v3QIlq1sB45oR9n/WGIxeZwSBWfIGuPFXoZ0bMpycKU8bwAvL9TnQSnWQ1UNM9lPwW+h9YA5Oey2RVVp9Iee4mhrnZvFb8fhcc8VvBwDEhFY+FQkQVHFJZ/Bv9QZRdzaGoqtCDdFHQoHIL3nopBkITubnPd7NRtwK/7U3ASGrTfzQJDAWVeXxuU0Ld3IyZxL++mQjlrDdwQ/WcZAC/EaqbYr2StN7UfFe+8XZo5Gnm24q0XV6lHNIXLrB2CRA2foWqFwe6I2JNJUaUac3WEu9kh8KX8mm4535yhWUazGHkEOu6PVLBxGJhwQW2FScwNqb8MYob4YQwTZ1y7YvSr9aB/bWrYyeP/t+uUnp4fmsRM5PKaVJE61YvHaECjHu+Wfe+HcWLQEjeEjgFPiEzoF2GvVRZ7yk83J+aT+G9SvrsPaBtyXhNIxGOIpCgL8YRlTICFgh4J/uD1kOtwoLARflLr5u5XMH6KDzmH8IYthDJ+h4ZoJ/31ivtP/JBHykzIKYd6UjnMIZDPVgOP/XQDhet9NrAykBPRQAff2WOYxhEgdTwuiPGmHIxh6K0jggyJmd0pRC2ZmpX4SWNE/dOTp/MXUjcM3UcvWSEsA9ifCXrKy9w9xk2mIHCfACcOBe8S/WjkddF2PcjE4a/I57PtdIw5ZDRDzmX9ZWkniaSU7hIA02096/H+K9aX/QiYd16EZGHOGQCbRxpkdBx2PBXT0R3Q/dm69eP/MhYKewqaLsYgLIaEnVTsgGT0Qly6RrrlST+jmsxU3mLR3Cb85retBrXgZ35szrdb3AMhaO6/i08/MMY/ZnJeCFD9/9alSy/F0KAP3pT3tyYypcNCZLm/d45CGAqqZ3886HyRlQuOd9q5j8aDY+fRXYeuBIvH1quXIQ2HEMEJ7Mg79ioimbq+FL5re7hUBMPhLrkV8DojsR8P94uGePqRWK78AKvH7qMIyICYyxhPY9AHodJB4IcKEYUpKIMuuoQqHmoTzm/x8mJHcGH8HlHl/VVYwX0PdQED0PnceNt1h3PxkILuT4hziImfVr+D10TsAQY3ViBvmHrOz9i9OJHtkRsCU2Cj0P/gh9DzyLOFek4azmgWCwZT/m1dR1YL6ltRXbIWD/JN9sDERfJUW/eaBEZnvOQ1C3IeF5kvlyxx32V5IpAV0KgJ5QxIdfKpm4dHRDW1bD0LXN0vHmEeFqpv0YV55n66jXAKKwwnCUAUDw718d+ZUBDFnPKhrwqSPxkQMr1F9PrVCmcxCN+y58xh1hOJ935TBt6kj15zyUcN8Bo1AoCT14q6sbuzWm6cIr2Bs9Hhi9QbgyFGi+xCiaXOR/++0vS7nieAoADwGJB3dFrnX7XTsNKYnGGz0PNKD3wevQ8+CpHOo4VLJyMITPyEHlMJLDRHQ/+ANO9we+fgUPekxYACRyaBBVr+wK6LdxVAkHI5AAXakTgZVbUZnzbxt6mC2NIM933kbbZ5AAeZbqrJUH4VvnfXCfGBLOGolsIK71O2/iobHfSMbtYSXgpXC4taI33g4FgP78ZxcACneuUAjH6I/ChcBmMh67GnxQaR+3zzWWw0y3r+our3fM0rXrK8VEtFCyzKnGI+Af01kOkipeM6YTSkBpu+045k2qeYhl+OdwMCoUY0ZtTmhqanIMK7U/xj3XwyVz+FfukfxWMk7TomsMRk6TJMPr3ZMrl4jg8VXdKH7by1Y4nR3KPdDZLAChEKzlc8FBOzf9YtlfoTBOqFxcKLx259PtrforbreudY82eu0Dvf0/Yo5Qd0QdCgD3/k/jyIIZSx/WshLsbcJCzFybHz4hhPtFD99G2l5cIXQ1+MLHeW/2p03DBCkdFYVRE+lw1BOmWMrZu4zZuK+eOmpjTLN/BwDfB5kH0dXhYNSU1hTR+FPM+TgAfhckHqz4iIZLdi9EIodSUHUhqa9ftwsRyJj494Vixz92Id5xMXMmakK5F0q+2+diZd81Wij/ok7YXjeAlA1QdpDL2uljdRWrAAXQ+/9aAtN+veLefb6+LZyrWr/rOgSYCzIPgqltJYnHuw8PdygArPmeLpNO1nHxr3WXr0w7DiUYu4tZPBNtCbEkbx+P13WG+PFP9I/9PBXZeDxV7yLg31NJO0CakxqDzccOkGbQPBazaTWwH8kVqxiTllUuBKKbQoHIL2UhlIFH/Ij1+Oj7CUlYPmSg7MDB393dNd7K8ztuiuSfQ4mLlR9ibbyhEhPRr8WSwlSQCOVf1Anb6wbX7r0Ugi9SwZHrNCtYAcg1TYP0sGbb3i+GA5GXCjEQwLcAoU8fDAbkMn3/6ui8zvwKzZ0/lm9M4wSceUkJhkVMoTSLXvoHzPBdADgzpmli4xxh1j9b7F5WW7vrl5DhoTjahek5mmH2rmw64S1iglhXxCC/8PkqWmOafhQXs4mDLEAEuCUcjAgTriycGeMRjf/46ihblVDsvZAxnp0yEv2dG/+zEdkAudPDQRaxozhNgdXf4Er2ZztujZz+5fFX/TtTBL0Ugj2FQiA6EYyP6xb4lM95hW0Yg7VK9zm6eWUnZeJRZf3enFjMBSjMkIVVblyXXRDasVJM0YCEYFhGhQVl66OgJOK5ZprtX/g+m+2uYzP99zRwjGKTXtdOeTwWvUYWQ8KzIVcAhsdg+WXvydX5pbL4KgQ84j2gDY4ApGUS+WVLANzW2BDJq7VsR+O/gMt1MgeZcG+tz/Uzbvx1mUjNjEt4DdVB+RvzuN0SyhcZwma29s3OMG+f2YRCIDoRXL+czWFvoRDA9nla9wHkXiFYheuBmHChgViu2A45byfMLiZEZftQlYKgH2B2bvviD3UdSlPcKKiv/CnGiS/nHUCaB4THOEqVCrfPeQCb7S5kM/3ToreZIp6MkjEt0ct7LaPM3TMRXhBM4vO7e7LBdC02hEno6uGsAK2QWC6Flb9/hBqafyQRZ8qo2MSscM9feOkUTkNSzpdCwgeXrXCeVUSNf4dIRu8Snc0Xxq2fCJcbsfYxDwOCUAi4PrjX7XP9H4e9WeHYAwnOQMC7EUDmNw59HS1qlx+gvh6bNo6HyArScpEDgR7R1BDxsAKgjM8BsayQcGyWbpJqB4L/AuGf+Ed1JPfyucF3HeT2Vl3s9jufEz7Es1KQJEi5QibQlF/w4xgHI2BXdOV2bkC4WEbQFFZev79yla7YDmOuxbwMPkkBld/L/aGGyIlSsKWIRLy7pmDLnZxcuFbmkyyghdz4nykmqsnCWAh4mupX7cHKnOFJVtwrDq5d77wp12UWCket33V/rc/5s1qfa78EKbvyN3IKl+kO5kUMS/JJHmzArfKQ5RjTBhTbo+SYaAGQ05COVQhonwLgtU8WHVsMKwBtBLiIW8W5bAmZtrktVuH2u77t9jv/wD+ql7iXn/cvx103ehkrJMZnKCMc3BRqKZilnn2+8AwiPZ5RX9lIO4wAUpqAmSIJGyI8HA40fz/F9IaSccWOTcHorfxbPcsQol6ZeYjpiZjmOq3YGn9gOeiqKjwaDuNLI6CDTr8QK3eMIJGRVyi7Hn/Vw2yd/AVbCCZx58VFhDPYenkzEDQyDUNDO8L3P+MoSNigFK7ykk2BIyhHiLGvXaBADzXe6Xgs5QKIBv1Frkgv1REPVuwt5R6f8zBu7K+o9Y15TXiWSxlTDhNu3tZ+FZP7mIMh4IbkL/X1q7pcehpCVkCZxeoLVElYAmTOHLUD4MJwIHoMZPkIhyI3sAIjLEHSKCHh06qj5eS6OhTDXNLwFgKiUEPz95jP4zkYAu5t3+WZXLXYEJIsZebOS9Tjdz7O1stz3X6X2x6LO5nUCbB9V1SxqYoGaRxxSKSR2lxJY5BWUc3FfFa5oT2FAmBUC84qi/0hT2ESIJsI6D+AOId0OnBtq7OctePveHxVf/Z6nW/W1NQYNa33x560Z0Ix0RHOkYBwlENVjFsTJDCSaxRud9UnGqBQAlZJpO3gHtY/G4ORIyXi7IEqFIhcw4218BHeI97gzXNDhm+YUSjfv8Gy9sgeCjUPRUQZbmIjOjkKxtHMhCm7reW670m3z3m+2+fyxzT7KEQ6jhXLaxHgPRZSvy18HPt9zNnNC4WsvGRZqi6hABgyDWWZwQHQC/Z7JBH+x/8NCBcgKd/gsc2Rbl/Vd91e53yhqZvBVNeD2zRuvGKzCEKxU2MaufpKiv8Xboh+u68ngz3O53OuAE0VHvMy3cxmZxERDCGCJ5uCq6ft/NBYTCjQfBVXzsLfvjFEPXO/PLx16w+qq6vTNp/1RFOgdzrOZc734GAULsj2JGCjDPaXX/jMqPVWPePxuX7LFtApjlJlJOl4NAFdzfnE7oxxPncBK6Fd14V2oXCDUGg854jfuAIEBeNSr7dQdFXZxpXvE/xxzlYIvLVe52jWbr/v9rqur/VX1g+2sU27jsJBy4beckjzHrnXervwIpdmvkGRXMyp4PHRI7gwLRxkQalOytOhUPRgWQhDgchcflGSe5j4WkzTvj9u2jjZzkVkFTureBqXRNwIcB4YP17meuZB42jMg0FMcPZMdj7P1tFLuGzf5O+kHIimc9spPBu+YQOVjQXm4TcdTuygppO8mNJGhHJUkH6pxVuq+Pyjazx+14m1fudNNX5XCBEL2JohStR/mFhXuRoQL+0/VUpPJ1LceUFKKQdhIh4fbWKFcToXTeYmLUNRp2fDDZEDGa8hCAWaL0GAyw0h6ZWZ8b2p2OG4urqxRTkjiojVPgVuZ7HYOBiBdh0VGcNxRnjIel7xnbj9VS9zZ+oyVggO2YrtS7NONEsESsCRJcyFjZYAP1K4Ysj6GtJsiUkUIFu4zYp32UeVXImhYX/3bOr7QzjcvLdZy5ltvoTCCLoixu5lLnAeDgjPNQnvchkWoDEQuRAB/5xh9r6zISy2lyrHpOqmtm8khR3bGIyIFRQHGS0FAczzeis/Moqn8PJjwZZ5hF5WeOLOAccI8Dx3hPDDHNDKColVdYdOa2qKFuwkxkyEIoY1SMGfc16NgxEoBQ1vMYKg0PO6J1cu4X6hcBu8UWJZdtFBeSEUavGni5N7/rMJ4Jp08/WfnupjCftRwsTbf7rB+zQUanYCoBjbBoPHR2XDNsrAY5CN3GZfuiS6736JsZNyS1UetXKyFIA+pKnZKPGMQkhiwkcfz80dpdvssGHsnj/R4/RRY0PzT4WLVHNzLI87j6eyAUFK4310OBCdIY+zwsPEwwHvn8OBnQAAEABJREFUKgBiKZ/MuTAVqOsvijHnVCUSaoj8gt+p7N0bA6oj/h0x4StVPgZlOsJruVwjgf8ZAqJzimnyZDjcWhEORK7XFFq6l+7c35Ds8pTZRgqMpoJd6Z41qRHCQxP9Yz9XVGpfxFSM9iYZRW5h66gqIOSqG2AMId49vjq6JNTQLGZ455aRPFEb0q5exqRXcjAI9NcVi9eOMIikoLPX+FxvASli10SZ4+OjuO55ORUXzNzzPwsRbmUhIgc5QNAY07QjJ03aXeY8Bzm85RBLU3D1NCQ4TQLJB8WYuAQ8pkdRX0/2xobouaC1i+FhMfHYUaWPBIX/TM98LwadVA4q/xB7RRf7bbuSgCuEEBScO7cVAd8QN4UUNo7ZaSWPBxFfZo31JTb51RRSWTLhtXrqKDZbo/hxZpK9e55dt5VoV3aPKMZrt7/ydVJQDAcIZ1GyRFCpkPJqU8PqickQhgLRM/n3J1z8YrI0GcQvVxJ4ZF3d2DUZ5B00WcRKF53UTsXKSLk22DTF8MZcRhjIVd5wQ/MRDjUaYMuw8JQ4qpOuHVQYq43svC2Yc4U+9CUgml+YAa5nQbdxkArIlqzaOleHY7mOLrQOJHYXk0okm8hIUWHj2L2SkTgCdQywInAnKwI89pcsWeHHu33OxwjwGaMlIaBfs6ymGMVT6Pk9Hud/uRU+ARC2SSyLU0fl1XD9mp323BDDLwh0N9Pq+B3y2TAw/ysSpBxWc4Cz2TCyAkegxyrnANAEo8VgC8KcjhU4RhGZOL9QUrnOFE7TXmI2+xzvr9bH8qOCgvhyx6pT2HIzp9DC2g2uS7ke2p2lXcpBGnD9cFutv+qeToQdFY861PYYEBTMcsANu+4Nmr2kswx9nW0cOYsVgeXhYPSiTxd9OoTvByXYKfErLpjRXquCOtxaTPMoWGZ9Qq3P9ZIOINzEynSU4wJVe6n7qovGYOQH3Dg9BADiW+WTcSCAz1XSpgu/8MaxFTYGMXGNLdZf+1HIuDj4fo3PeVfG2U2esaGhZSw3/HeykhpmVo/mkBT20J1QRv3Wu0nz5unBP6/b/5SCs4KJenhUefQfLDPJ87No4YcrnD28iipMBPC3v93CPxZh8hG3pg7EatGa/dyp8iicWczbVF62PNQQOYOIWAFKNWthpBMTObgHL/YKMMgwTh6/X4tUf/MGGcpbduF1kYn/iEMPb2h8bwR2Aw0XsaVlHFe4xxPBI4xMWuPPuL7QQT9UfA98XfSgKfqN3KkxqvgndISzcRD6F6mvX1UW5s6RDXWxCmwWfzAqh35BTKiblNhp6LXfPHl8SAqghHoxtyUQbdT46ujtTPU0DjLh8bWtrlPFKrLuSJXOG4XahX/saOe9Wc8bdt8X2oelPatzD0S4rzEQfb3JwBpts8pEta8Rs5yNbwFK9KcP6lvGmLWcueTL7XM9CYCnAoBMJ+h7oAavM07h0tnOZzlA9CUpdKjPN+YzOQgLG0uooflHAChWdsCOI7MTwU1er1NsnJNZfhPm4gZGCXFnyKGqy3lcfB6zOIJDyjBB26NQrACP/nXCaWIXxJTLlu+E/G4wHIrexnz8jIM04M7GEzHNeUpfrvC7FAAxGZCQfieNahYQ6TYHRCZNzhwzwsE6KO+GA5GFgcDqpJMIMieQn5xiUxcd8WymThyMwC5xhWQvRTPCT17zun3OxwDwFJCpBCCKcT2ZrskioNuO9HiqPmU+ix7EihZEvM6wIFipUhx4uWE8JkIQWtI8tTEYfRO5M8Rs7cYhbbCDClMSpl8RuElRdNl7aKQtq3QziMYfCYSPl3Sz9pf+qbju/FGyXT+7FACBQb384gVsI39eXJsxrK6dAokSw04duIgwQwXlg3BD8zxRYZixrOnyxD2VNwHo3nTz9U6PSD9sDLR8t3d8sd4LJYAAhRc53YQyiCqkHyb2NzAhb3lhaVtJQjjq6TlbLRNOEM8dLJ4Tm+pX7REKRhaggsLni2FX1XtrVbCHVpmJVHOV57d/3f9MCUukc8UuQDgY+Y38xp+eVewtM5M1/qJ0ivjXGRCQ0EFn8L3phLdh13HQukc1syYNSgHxIq4wPg4FmmeLiRfSMOcJkT2WEEuVWoySJ9Bv4bHqoUbxDJb8Hp/zPv5WzKYEtLDZ//Aa/xjjQz+D5EU1NrTUEYCwhBkt0XPujiEgo2jym7/DkQ93cnRV/QgJTmdukIMU+Ha8BoZRqRRccpHgYzdOOF0sq5WLNovYhIIGBLLnK7w0vLXtJGEd7o/1HgqASIiXXNKigPIDvt7MwRSwtaISVvmkbbTWo0xcYYxGwBvGV7c0hgNR4+OGPbDn9kbs+Y2IcyRQ3Qs1RQYeCayYA4Xb6/wHEs1ibviT4f/5hVZSlKPY7N+UXzbMQ10o8Ky4iopf7cVVurdbWbEq6M1+hCOfcKB5Fmjty1hxvYgFIH3qfgnY4YiYBxxkY/Smgfq45viJabhJkRFSVbGSS947Qnhlc1vs++OmjRtwOfNOCoDgGede9B6PKZ/E1zKXQjG69KF9eDl8ceCRoKvZ/tBoApvQnw0HIgXtSKjGU/kPAhTeHdMXdvccSL9rXLKKZdI9srivxfpZJDwvz1LYgKRMF+6g88yHqcjvXx35NSD4jTJFAHNZsSrY+RThhg5HPg0AKJQhJ2TxGEUj4Ii4F8TqgCySSQk1v7eP7Hb67m01M03TcU2JcU5EBMIBGV/JAHo9ltC+d9BBu6fkQKhPBUCwYb98zgs66kfz9UYOeYH4kLIvPv/W0Ru0/tf8y+atoB0JsQWACLVfs1BiHIyAgxT1DjEz1QiSwZa31u+8iYBkeGDMRDQbddSPrPVX1meSebDmEStXEHBun+VLL7IprjlvSC+LOVL3cuRTkyuuxugjYXrc/7kKuClXNHvT4ca/UUfbtGv3PcP0q9h6895xj7B3x9n4v3ccpepxdXVjt6aKKqkCIBDYL//9IgX0Q7hn3OE2UMTlMDxaosYm6sPUvYFoPtM12qAxipRBmBsK1pGQ1ztmKQEZnwkN8O1wsEXMCUlZcMWQ0OOrugEJcj3LeAsQHsfv9r1ikHE6ZdRsuljCvEs6efpIS1wZ/ry/CVN95Ml7VDqOfLLA7FquZ84rWTd+3wTpB3FD/FEWaAyAEp8YgrFv3jL+5FUDJDTzY/70DLKHsLi03Zb2rp8DEsa5vw8qQ5TJzN7DHLIPBMKr3S/UuRf/SDgoEpuZCDeOOiq1TPwxDrmEgnUktKUt/kcW1CccDAGyIlFfv2q0ISSDMHOt33UdV3hX5KhoWxH0Y91+Z8Ht2ZFt+YSWRI8ighOT0Ekn+u4asSlUOjnymJZ/k2k78pHIboyQbopp9n1YGb5RrC+/aeIZTdwQ1zGNXLmV30qA5944/tST/jL+p3mzPnB5jQPS58aQUL1GjqO37w+THqYBFQCBDufM2cAN8ik6ohiryJqWhwD/VOzaBKZ1h6DbPXi9lR+5fa6ZpNDhBBCE3B7bHQkFo+80BiIH5ZZ0ZtTEGBDpKGMy06gS1SaWVmXGyCDO5fG55iLgn7NcxDb+5o+r9Y15Lct0Cg79229/WYoKic1+jPK+NqZplxhFkov8YkguHIjOcKjqUraMpu3IxyiPJPYeUWmCx1s1u65u5Ibu+ERDfOOE089EpMPZarys+zOZ10j0FEJi0k0TTrsZmJhM3PnARQAvGqAbsscSR/l8Fa2Z4EhJAehELOYFKNA+iZCEWfiDzniDZx0B/qUoUKfMvfgkvPTSL/vD5/FUver2Oiez1n8mp1vNIZcwhV/Wm+ECcSTkmewUPh0eNyogNvP9tDGw+lCjeAZj/lqf81JAEhVxNorHw154kvjms4G80HEOK7NfxmVIPn7KD1MBrkt+w+OmpvcZv8ORz1sAtJDLlWNHZvi+jniwx+c8zu2u6teyeMP4M15dNX5IDQGeSgCyvPHpjOtp0GnqDRPPOP6GCT8ePF4vUb2N32f6HkcJGllxPUKs/uL8GUFaCoCggHPnJmyXX3I/99InKQqJ3vBtHJ/uy9D4Zb7LGuxFik3bgxv+H+BlFy9hPCkBIuoev2uBYsf9cHsPLKUZjykhHzgRchLhSGhpuCH6x6am6DC+Ny3oqIpZ60YnciKBcrNYXmTaguaRMUyg2NFPDF1J5YJ/I+8r9ujLUpEOEmTB4OpJQHiB8eLga26f837jeLKHYemS6L6hhsg/UcF3mMqBHHIJn7HV4eRab+WU7c7GUiP9GM7UuIf+0E0TTncriiJ2Gr2Fc/arOPDz3qBxxPsIdImasO3FuL5346Qz3uW4QQUeT+VyLpDY+pdPKcMHpNIRRhXXtBWA7uzhZZe8w4rAORzGMaJ9CPBkQJgLAA9yK8lmGniZzxxQ9ELv4mcX6gBHK0NwlG3uxVPVKy75C/f4M3Y6JDx11XIPjBu5aqZ5FwdGz/9zA2Xc87uU4vSpmR0Jeb2jVxLQZRJEUuNQo/ma/S6B/eygaGxcuTupILZQle44iX8739TjlY9YilfPd8cNElv+VdGg2Hs+6XGXyk0M9cQvEZFSSZzrNJ2OfDSFmhDhBzmmv4WFcsXw1q0TPP6qR9CAjP66/6nv8dDArznsg5AYx4qb2KvhciB4QJjzCfDl7QG4naC/AeCF/I6/i9sSoznPATdMOOPq62tP7tcyDAV+LFvhFENQqc2zI2hQ4ni4x1NleNUDt9tyJIdzL/7ENnfOI+rlF1/BCsFp3Ks/nsP07WHODI47m59dZ5978fNiToEcqtuxiEbO7XOdDbpyAMfkdKIUAZjekdDyFa5b+MfWwLIxCpeHQs3jjCIZLPlDobW7UcImfC5kUyYnlNiiDy9aRGJlymARnaFyNAUiPwEg40NSCPNrJ48Vu+EZ4kd2ZqHwhQPNs7LpyKcfnnVCuJ8bmH09PtfcVJzJ9INrp0fCdH/jxNMevXHCaVfeOPH0029gc/5NE06bvj2cPuPGCWfM4mfX3TTxjP/c4PtxRuPaOxEtgIiZM1Gr9TpPRcLZzO5aDn1BDAFvjOnawTUHOJv7SpBunDQFIF3C2Ujvnly5hBWBQ0ih7zH+HC9dpAlcKZnSkZD4uBAU4SJVmNTAwFGGOsqYdGWABXNkbWyMuJDioue/T7Y54jHqE0eVRx+ylACAD9/9ahQhDjwpdeCX8vHmrTEZeAamlEaKcA4d+fTB1suog8/jdZ0hq4Hpg4YVlUQCwspS63fe5ChVxvH1D0Vjz+dHODnXuXR2gpRxbPE+j83+Ka/z57z9wqBSADpLyqaRp2OacwKbvsX4d661SFM6EtrhPOaOThkZOB/dGIycYCB/wWdlK4iTEvAqEI7PYWFmsBJwN5tGB+VvNlU5xh32azltJQdDgKDMFitlwCRHU8PqieFA5D+AKJTKnDny6Sg+0jIAnMmdp+m1k11hsI68SmD8+MpNbA1YKBp7Pp/M7+VXbl/VXX5/5SrZjA3aykQ49PD4qm5UHbF9wHIk1PHdlLbbxDhTxvXyYtUAABAASURBVHMuOpDwP+6R3lpfv86o4xXGVHjQ0LC6EnV8hTmfyCHXcGZjIPK3YlUCQqHowSxwsfqHT/1Cvw9Fr6rWV/lsv4ly9FB4MeSG/04dFdHwCs+rOaLcQabDkc/a9a5at8+Zax8rHQxY//IrgUGrAHSK1XIk1CkJAOEoghsPGR7sxjiUuIyJhV8zVwBXgcD6chvic8xqbntoTLALEH/SFGy5k98jdsUVwUVTU5MDdRIWLKPl3qiBIuM3YEjqnY58EqrOvW+YxchUDrmCnRz55IqwRcdcEhj0CkCnuL2WI6EOUYgZvWKuQseNkX8Is4PBqM8IikLKKyweKsRfBEDhFRPyefDQ1lmsBPw1nzzkmrYWHy22uk7N6tIvc3iJ1zvasBWsXxL9PBSKW9ikjnz6Ydt6NEglUDQKQOf781iOhAC1jpmmRn0nqArBnQsXUi57Lp2vMafnFYvXjnCo8RdYcfpGTgn3Q4yVgNlsOk537XA/GM376IOGVXsi4MXGOaT6ZSsqhRXBOKoMMIRCzVMag9E3+TvKiyMfUvDbnhQc+WRQNCtLgUqg6BQA8Z54DLDDkRApVA2Iczgul1tIItMTjoQ+CDc0zxONC9/nFGrrXB8DgYQZ0PSN/feNCvNlTvnPJTGutIe2lSSeZprCmQmfTAXnhwKRa0zFURaYiaNNrPlP1c9CMg40UtSzxYqYZAmyFd9Uv2qPUDCyAHUUjnwOyhadJHi/IoIzhSMfj8f53yRprOgilUBRKgCd75qtAVvcXud8HVUxmzvXjoRKWfm4aFtJ4uNQoHl2rnvSiqNlPgAaXgONCPPEjmQwCA8xTou68gwX7dscTAmsTV4YbohcZkrmJDDFPeaZCHSsUVQIeIvHUynDF0bKrIg5I2FW8nVV/QgJTueMyCFX0OHIZ3NbbD/hNRWROcgVZYtOwUigqBWAzrfk5TFBt891tgL6VP6Fsomu80n2z9TlSCi6JNTQfHj2KW6nUFNTE0PQfsl3zAL/zxxG2FAfdL1QsdGMQ1G550/GHc70lO1fCOCtnlEG7xCuCDdEhSXLICJzZRfWMR4zT2+uQ99FWDmkXb2s70fyY4Ujn8aG6K9ViP1PKPlMoYRDrkBj696dbN3c2+NzzTXTUsdcCcCik7oELAWgm6xqfGPer/W5DuYfTx4cCYGHtfSXeVz3pVCoOSezzGt9Y15jhef+biLI9PKUcEPzEZlmNls+MeN8WKn9MUA4TCpvBNezonlRWbvtGMYr16c50tWDTQloGxL/E8tpLAdDQITniRUwhpCkmFn8DhxqtIGQbuIsozjkEoQjH7/b7/o5WzcNu4nNJeMWrfxIwFIA+pA7/3iKxpGQLRb/DSsBxndCQ7z900WfDulDnAUVJRp/ijkfB8DvgsQDAW/kirlj8xrRGMU0+3cA8H2QebASEApExGx5mVjzgiu8pGUyEAoLVTr0d0rLhu8XPH7xPnd6JDWiqcORT/OzYDnykSpXC1l2JWApAEnkWyyOhCZM2U04AxEOgpJIIuXofTeWlxW0GVqYbvV45ULuvR2XcqlTS/i3Gm9lj42U6upGbtDAfiQApbwLZiqkEGA+KwGGG85UaGUrDZv9FVD0Wxm/ysEItJGNsiqLno58UFh2jPCbbl7x2z1vreXIJ125Wel3SMBSAHYIItmpGBwJ1Xpdd5OEcWlufC4O168REyqTidO08WISZomtZQEz+H0O8oDo77Ve5895eIdF3BOtz1fRGtP0ozi2iYMsQH4Pt4SDEbH3gyycOcXTFGg5hwmmv+qCM3UHBPyj2131Sfc4Wddijkg4GL3IcuQjS6IWnnxIwFIAUpS6dxA7EkIxQ1ihn7Mo4hyMgAPUxB3cg0MjSHKdVzT+46uj9zHfP5JM+75an+tnLF89Gd66urFrSCEx+XNpsjQZxCMQ3B4KNJ+VQd68Zml6L1rFFpgrJTCxfMiwDdL9JPA3gsKRz7BSxwdANI/5HMEhZ0CAz4BKEzzeqtnCipQzwhahQSkBSwFI87V6BqkjIS6X6IVKmHGNhzQGo6ekKda8JRcVOjf+tzMDp3KQCLRw2QrnT/tr/DuJseyjaANWAowvy+zEyWdEwDvCgYjkcjHmLIJu129k9OUc0oXu6UlB/RfV1dXt3SONXocsRz5GRWjlN5kELAUggxeCiLrH71rAPbdqGESOhGKadgWL41MORuG6cLi1wiiSbOcXjX84FL2N6fyMg0x4fG2r69R0nM7U1roipKhHMhMfc5AFYgz9vlBDs2zLhiz+euBpDEa4/DizR2QmN0T/qPGOWZRJ1r7yWI58+pKKFTcYJGApAAbeIvfcBpUjITZHbwVCMf5qQCodWV2kt1/VcWXSf6LxbwpGb0ECMfQhk8t/xTTnKdOmYSJdpB7PqK/QlpjG+WQoYYymA1RWWBeEA81y5zZ0oJb3T4ypE4FQxjJD+nWudQkgKZNRLUc+XwvVuhqcErAUAAnv1bvDkRCSIiYuvSEBZcooCGA0m3pvYDN2mMcmDc9CdvudYre7f6XMQJKE3LDOagxEDkryOO/R3PjPZ9nJnSGO8HzpsI0nixUkmRawtnbXLxVNE86HPssURx/57AC4kE3Yslc3gKxjeGnJ7xnXPhyMAeKFfv+YFiNIFi0iGytMs1SILWcL30WMq4RDrkAnhPuVOO5rOfLJlciLl46lAEh897X+ynq3z3UIDw3kw5HQRAB6NhyIGHYkxL3Q2SwWo/sjKNyju0MsrWNcpoJwsPlqbvxlr5d/cfj6rSfIGHeuqRv7harjdBbaKg6ywIE6Pt4YaJHq30AGc8Fgy34EZGSL3g42EODNWk/lvR03Gf4TjnxGlUcDAHgnADg55BKEIx+fx+s6o+YAZ3MuCVu0ilMClgKQhffOQwMF7UhI9EK5Bz/XsGgQakuU6LmG8UhE0BiI/gmoYwMoiVjh5c1tsePHTRu3TRbSSZOd/9NREcMBq2XhZDwOAv0xtgTI9XDIiDMFMRSj6LqYhGm0l50AHc7h4Q7W7dLnJq+OfACWA+BM7jxMr53sCoN1WBLIkQQsBSBLghZmYI+v6kbVEdsHiOYzmRiHXIGNCc1CHZeHg9GLVqxYkXblumaDU8zG5p4QYzIAhHBlILB6LwMopGUNBSJzCUiYmqXhFL1OxY4nZMPnutdb+REprAQgyOwNlvJ38XRjYPWh0oRgAFFjsOVMQIMul5k+v9drMmk86+tXjQ4Fm2/UUeGGN0+OfFqdNW6f8zEuhgWWBHIqAUsByLK4Ox0JcUXuZlK5/pGXs/Ixr23ziI9CDZEziIjbK+YiBRCT2BTQhTOZpGvYU0AjkpSpoEhYXihQZR4aGyIXcOEvzxxDnznfRjseXVPjNDpc0idyEenxVC5HDb7D12s5yIIyAuWZcEM0r7scLl365UiADuXYULm4y/85KPDndJCISYdCOXao6sdIKKxUYsVEOiiMpI0R0k0xzb6P6CSI35oRZFZeSwKZSkDJNKOVLz0JiIrc7XPN5Eb4CM4Z4pBL2AMR7msMRt9JZ2Ke2ByJVQaxTbJRXo8PNTSLeRFG8WSUPxxsPp/LcW1GmZNlQljsKFWOymbj30la9GwVQPHdrOuMk3AeCkhPB4OrD5CAKyMUiXjJXzij0XF2UJB+xcNuWxjXgMC/P8uRz4BSshIUiwSUYimoWcrp8Ve9Uut1+olAmD5lmnZTKeIU7i29GQ5EFqZqlo8n7GJJleHJaIh4c1NTdFgqTMpM09gQPRcIZXuEC4BScsz48ZWbZPLaH64anzPIViQxMXB9f+nSfDZCIeXFxoaWujTzGU4eDEa/hUQ/MYwI4PFab9UzqeAJWY58UhGTlaaIJGApAHl42dwYbnckhLQvN8jC+U5bDtlgSzjMUEFZGm5onrdi8dp+XZnucDf6Own87UFxukwCnpRRhALNZ7Gp9YaUM6SWMGSPxae73eUyG+KUKLMVqQEIxCx+mYrHLoT6Sx2776XEhfFEYpmdQnQLYxLfIp8yhk2k2HpsstQXpnw78uFhjrNrvZVTPR7nf/viz4qzJJAvCSj5ImzRBRBmS7HWlxTbfiwPYWrX+ZwrKAPEi9pKEsvCgeZZwh9+MsI8dPEgP3uZgyFgZef8pkDUawhJipl5fPfHuH0pF6aYZeBkBI0xTTtiwpTdZI7HD0y3Wwq33/UO/2iP5iiZ8w7KQdGf4x5yDePNOoyqaLmAiXg4GAIC+oPHM+qrZEi6HPnY1OVIcDqnk/ctMLIBYAt/71dsbovt5/ZV3SWU/gHSW48tCeRcAlyX5JymRbCXBEQlxo3s2ZgHR0LMyhjghnJ8dbRfR0Ia4C8BwegyNxtX2nfyOGxWv7tQIHomEN0NADLpLFcSeGRd3dg1jDevUONzvUUKCqdPKY17p8hsJer4SlPD6okpps8omeiN87v5Q0aZe2YKr2t13dozavudsDAIpVbtdORDMGT7k5z8txz55ETMFhEZEpBZQcrgp6hxmNmRkM/nXEEEYjmjoXfEvaIDGoORrO1SFw5EZyDIbfwRYEWClMPM5JxFmJOZrxMkKGXd36dTR+XVcP2a8d0jZV6ztUuY/ocaxKmTTmf3NXueh7WOyJsjH4RXFAK/5cjH4Nu1sudMApYCkDNRp06IhwZM6UiobNjGqwFpWeolSZYS57G52fDs797YQw2RE3m89SGOF34Q+CQF/qehOs3vr1wlBZtEJLU+10s8ZnQ8o5S5650LVO2lcLh5b8YrFVjx+wEhGXdHTHSbZ3LVYujGXeOSVRO41/8sIL7E0TkZymA6nbDdkY/XdUSN3xXqjLTOlgTMLgFLATDpGzKjI6EON7e6KjbP4Y68IcFVAKHUZXnhQOR4RHiYuZLZ+H+hgT7d6x29kvGaErxe1wssyxOYOZlKwG6g4SJW0sYxXimwbFnLcLYgCedSxvAhNGtY0jWE0OnIhxS1EaBjWARyeKzlIa3z1lqOfHIocouUTAlYCoBMaWYBl9kcCbn9la9zMUUvm0+Zg5iUFWpoPnzxWhrxbivVvbOOTl28jn75TitdJMK76+hX766nM/j51Lc30Mj+KIWWRI/i549wsHOQBV+BStN8vjGfyUKYLTxuv/M5Vn5OYfxp70DIeZLBHqDjog8aVu2ZLAE36EhNp+9BjadNp9BpZ1H4lPM5XEThU39H4VNmUfi04yl88niqn2WPtelitctuyXClGs/DO+f5fBWtb7/9ZWk4GL3IcuSTquSsdJYEdpaApQDsLBNTxng8lcvdJnEkhDYQs7gzXganDXFAbORQiO026llQqJWI3kekB3h44VYkmicCm4pvJqD7+Pk7ik5rF6/Tl73Tqt3OisF3FxF19fIbA5HpqJLYvTBtd8f9vOgIaOp0t7vqk37SmOpRrdf1BBGezExJUwIQYE8e/nipoaFlLOPtAG7YKzjMotCpj0H41Cho+ueg04s89PI3tkRcz2EeEMwHwjuB6F9Ayodg37ppnHLreU6qGQQJAAAOvElEQVR8BRxoaA7lizUe18JwIDpjWKnjA8Y/j5nqdxkrP5cKBPgMK4YTPN6q2TuWyErFbyGzJJBLCVgKQC6lLYGWGRwJUQJu5spXLFtMvUQKQnyXobBtt5HQXrULJEaUgWZXRaPN7UwKaBD2R8Kfs2LwTOkG+nJxq3Z1w7K1JxHAUyB3lndUIf0wd91oCXMdUiiXxCQev/NxIvgpo9Q5SAGWb7UN9UVbGq44msKnPsqyXg2icQc4iQmM5pACUMkw+Bhd+Cy/xKthH+Vm2AWDnI+x8/8UoZ3L9mBjMPomKxsLAWAvyOmB75OC3/b4nMcVkmKYUxFZxApOApYCUHCvDAAROxwJOYYo+yHgVQDQxiFXgExoBig4m88DAiE3/OVDoW23URCvKAPdJsHlOkEVEM6JOcsfi48cWsoV84B8pJhANP7TavxjPkgxvemSefyuBUg0ixlLq3Xl9H1CCURgL+Wu/crUj/4DBDMBUChtkPlBUAafwh64APbDv8AIXJoaKrb986d0Hyc+iEPOgIX4ORGdUuutnCJWXuSMsEXIkkAOJGApADkQcrZICFe0tT7n7ykfjoRS6HVrbOpvH1sB8fIykNhIfy1ObhHibEnYtutI0MoMtksAraQoRxdy498pmFp/1T2sBPyM77n94v8ZAIIGVfgsVCvXwnDIjjGkBCOwJ94Deyr3gB029M9lz++t/7RynnY48tnSFpvAVreHETFjWcphx8JiSUC+BCwFQL5Mc47R4xn1ldvnypcjoZ3Li9DR6LezqV+3S+jx70yhRwypCrQ7R0Bs1DAQFoceD1O72YCkTPd4KhtSS27+VNuVAEzJStO7NA5Yy2b6m6ASXwGhCPR+Lvt+BCyFfZXrYBgsl406E3w6IdyvxHFfj88196CDds+ldS0Tfq08lgQyloClAGQsOvNlrPVX1rMicAgpJHbe+zgfHBIitI8ewQqAUV8v6XOfGF4KMdcuwMMT6WTeqKN+pJBdOpkKIW2t3ykmUp6fDq+l+CXso9wIpfBlOtkMp7XBZthL+RuMxLcHxpWtFJYjn2xJ1sJrUglYCoBJX4wRtjyeqvw4EhKNv2sEaEMNm+MzLr42xA7bqsqBzfmp4NgChMd5vWPeSyVxIabx+KpuQIILU+F9KH4Me+NtIBrjVNLLToOgw674OAjLg2zcA+Bj0wPOdHtdliOfAQRlPR5cErAUgMH1PrtKk3NHQggQqxwOOo/7dzGRpwvdYYN2VkSAFZJ+WNjKDc6xbr/zjX7SDIpHtX7XdTyALdbhJy3PEFgNe+LfQYH2pGly9UDMPRiFSTfOk8mG5chHpjQtXAUnAUsBKLhXlh7DuXIkFK8YBgnjE/HSK1w/qfUSOw9FDE+Woo2HSY6r9Y15LVmCwRYvxrOB8E99lcsGwvx+F6hgnuHuMfgUDMMVfbErIy5GSDfFNPs+bCG5cdo0TMhAauGwJFBoErAUgEJ7Yxny68miIyGttATiI0oz5Cx72cRQRGL4TnzFAPAkHiZ5FYrsYGvHHwjo6p7FJthdeRDssKFndJ7vkIcDdsf7wQYbe3Ji8I4sRz4GJWhlH0wSsBSAwfQ2UyiLx1/1Sq3X6SeCMwGhOYUs/SYRY+2x0cP6TZPPh7GRQ4G+9j0Q457/SW6f8z/55CmftLnHewnT/wuHDhiFb4FJZt938NP9nw02w67KE92jDFxTPVmOfAzIz8o6GCVgKQCD8a0OUCZElOZISDj3EcvwBiCZv8eIHcsDmYE4Ec3gnv/TfF3UwArgHAS4TTSwLnze1LIYAWEYDl1+mTLh9Qt+76fUel0HWI58MhGflWcwS8BSAAbz2x2gbEYdCYk1/n2Y2AegmvvHWqkDYiPKrmbrx79zT918FBGRarzOX41VHmtUYav5GOzF0RhF6GzUK3bA2w5HPpvbYuP5vVuOfAYUl5WgGCVgKQDF+NZ7lbmHIyGC//Z6nPQ2vktZ0mdme5AYOfRAs/GUV36WnTlyF2jcO688pEi8BCLQ4TI4tfQ6WY58UpOUlaroJWApAEX/CXwtAOEMx+13fZvHyQd0JCTM/mKS3de5TX81ffFammh6LnPFYEw/m0nl3lsTE80ERuPrA2dDeEUh8Hu8rjNqDnAant8yMEErhSWBwpaApQAU9vvLCvdinLx02MZJbHT9HRPoc3p4Qjj7QR5J5gSFAmoidmm4ofkIKzQfoYPj54Xy3gSfQ+ETcMA6cdlX+AAIj7Ec+fQlGivOkkByCVgKQHLZFPWT6urqdo/PdY3qiO0NRPNZGDEOXaALBaDrrjAudEU5GRBfKvYwRFn9kgLtuxfGW+vkkmAEhjtvOs/rCOi8ta1Oj9vvfK4z0jpbErAkkJoELAUgNTkVbaq+HAkR9/w1h73gZCKWA4pQcIxLZngYfCQZYw7QMYlh0OUYKC4c+WjgsBz5sFwssCSQqQQsBSBTyRVZvu6OhPQyxydQWNb/rrcl9grouinSi6GQl32iDEt7KH4CoOvPogYTPN6q2T5fRathpBYCSwJFLAFLASjil59J0T3+qlfaK3e5LZO8ZshDOdie2Azl7I+HIRDp77EZn3XwxMMWUGu/4NzaOldhajAdpbD+WRIwjwQsBcA876JwOCG9unCY7cmp7lB7RhTZHUIC7Jh0Ml0BSAP3LwAmLRYtCRSEBCwFoCBek8mYRKwyGUcps0NKcSsANtjMozd6yvIyRcLuTOiF++11L4Z1bUnADBKwFAAzvIUC44EAzOv8fwBZklKgkxcGKFeqjxVsTzWpOdOhnnSLR3MybHFlScC8ErAUAPO+G9Nyxk1oiWmZG4AxZOYHSDKoHyNohVa+nvwiDukZYd1ZErAkkKkELAUgU8kVcz4C8zuQT/J+iNh+keRZMUTr4CjsYhKPYRR2CSzuLQmYRgKWAmCaV1FAjCBsLCBue7CKepErAFRgxpseb49viDbxfwssCVgSkCABSwGQIMRiQ4FAXxRqmTGhFSrrUvhOwDDQofCcOHUVHpXPuq6tC0sClgQMSUAxlNvKXJQSIFSWF2rBlXhxKwAACDGqhAI5+mATC/bb66MwVpQlgbxKwFIA8ir+wiSuIAQKk3MAJVbsCgBAG+xWqK9vFXrujxYq8xbflgTMJgFLATDbGykAfj4bAQ3MZuG5YeXhf2VbjFkvbtgC+xSGAHbm8pWdo6wYSwKWBDKVgKUAZCq5Is43E1F0owuuMlbj8QTqtJ5fXVGHzXr1BuChACi0g+DFQmPZ4teSgJklYCkAZn47JuaNAB8yMXt9sqbZHee5fa6RxR4m+PcvByCzK3C93+EWGFLyVO9I696SgCWBzCVgKQCZy66ocw4vh2cQoKVghECwDW3wSMHwm21GCe6Fgjronzj+79YSwIJ6ZxazZpeApQCY/Q2ZlL8axJhOeKNJ2duZLaR7pozAtTs/KNKYxNBHueTmXVLHzHUDNjjhtd3urUtLApYEJEjAUgAkCLFYUdgBbuGym34yIFsq2jVQrmFeLdghAay7K86XhSEThCfR/WAjWIclAUsCUiVgKQBSxVlcyOpG4gYk/IPpS4107Tcr8HPT85lrBtetvAsIQrkmmwK9bkmoHXR1TrcI69KSgCUBSRKwFABJgixWNJ9XwO1c9noOZoVP1K3KVWZlLp984bTXEgD6r5gHnYM5gZQ/o3fBR+ZkzuLKkkBhS8BSAAr7/eWde7EkUFfwZGbEjPsDxFHH0+rGYsFuXsRyzSqg9+E3AenPWSWSLvKv0/8X1n919de31pUlAUsCMiVgKQAypVmkuA7aBf+HiGdx8U3Vk+Thid9MGYXvMF8W9CeBZfErgOil/pLk/BnCaiD1ZOywUuScukXQkkBRSMBSAIriNWe/kFPK8TEg/HX2KaVGgYj+MmUkikmKqWUo4lQ48zENhgw5kUWwhEO+AQBhI+jad9n0vxKsw5KAJYGsScBSALIm2uJDPHUk3sZKwCVccuKQN0Cgm6dWKHPyxkABEt6+xl45hlkXbp75lDdYD4hHo/eRgt1vIm+SswhbEkhTApYCkKbArOT9S4CVgKt5OOBnnEosM+NTTkEXCsiUCvVc5iGvSkhOSy2JWMdGO20wjdG9zCEf8AWQfjDWPvB2PohbNC0JFJsELAWg2N54DsrLwwH3cAN8EJP6hEOuYA0RHisUkFwRHIx0cOqDG2F57CgAvAIAxJ4PfMoJvAyKfgB6H16aE2oWEUsClgTAUgCsjyArEmAloL4EcDIiiWWCelaI7EBKSA8pcaw9cCQ+tyPKOhmQgJgTgJ4H5gLphzKabDvgWQuAPwP3g0di7cMRsA5LApYEciYBSwHImaiLj5CvAlunlKu/BMQDCOAZlgCf+L8kQIDXdcBDDyxXTz3Aic2S0FpodkiAe+NvwrqVfr49h8MXHGTCFkC6HuL6eFY27kYEqd+GTEYtXJYEBqsELAVgsL5ZE5VrajkuObBCOU4B9HOlfxuzto5DprAJgO5lc/+3plQohx5Uga9nisjKN7AExDI89Dx4G6ixaiA6g2X/KufSOWQGCB9wU38xN/x7ofuhC7Du4TVdiKwLSwKWBHIqASWn1CxiRS2BAyowOLVcPWdYOY5REI9g073w0PcaCyXKIRmwiRje4obnOiD8rq0Nq6ZWqD9mcz/HJctixcuWANY8FkPvQ/ej56HDQdN2B8Az+Z0sAALhSngb9H1oAPgxAIhtfM8HBDe6H5yE3gfnWQ0/S8UCSwJ5loClAOT5BRQjebGT4AHl+MqB5ervp1Yo0zi42uI4XEXcBwg9CqBPXJcAVvCz0Ry+NbVCvXDqSPyP5dUv/18M+h9ZhZ4HFrAycCY35l5wVw+FOI4FG1azhacOFGUiKNoeULZuKKfbFz0PHs/hBm78+5tPkP+CWRxYEigyCShFVl6ruCaVwDQnbv5GOX7CjXxYWArEtZhDYFJ2Lba6SQBxro51D6zGSQ/8j836S7D2/g+x9pEvsfq59m7JrEtLApYETCYBSwEw2Qux2LEkUJQSsAptScCSQM4lYCkAORe5RdCSgCUBSwKWBCwJ5F8C/w8AAP//TF87wQAAAAZJREFUAwBUCTvr9rYc3AAAAABJRU5ErkJggg==;" vertex="1" parent="1">
          <mxGeometry x="450" y="475" width="30" height="30" as="geometry" />
        </mxCell>
        <mxCell id="IPuMuHIr2qcVIGaZvRd8-94" value="&lt;font style=&quot;line-height: 80%; font-size: 5px;&quot;&gt;&lt;b&gt;Machine Learning&lt;/b&gt;&lt;/font&gt;" style="text;html=1;align=center;verticalAlign=middle;whiteSpace=wrap;rounded=0;" vertex="1" parent="1">
          <mxGeometry x="435" y="515" width="60" height="10" as="geometry" />
        </mxCell>
      </root>
    </mxGraphModel>
  </diagram>
</mxfile>
